<svg xmlns="http://www.w3.org/2000/svg" viewBox="0 0 260 260"><defs><style>.cls-1{fill:#ededed;stroke:#1d1d1b;stroke-miterlimit:10;stroke-width:10px;}</style></defs><title>humedad-sensor</title><g id="Layer_2" data-name="Layer 2"><g id="Cuadritos"><rect class="cls-1" x="5" y="5" width="250" height="250" rx="12" ry="12"/><path d="M125.84,210.36c-2.6-.48-5.23-.81-7.78-1.45-16-4-27.64-13.73-35.64-28a61.83,61.83,0,0,1-7.79-30c-.09-7.46,2.1-14.46,4.8-21.29,5.55-14,13.27-26.93,21.5-39.51,8.65-13.21,18-25.88,27.9-38.17.42-.52.87-1,1.44-1.68,2.71,3.45,5.38,6.76,8,10.13,12.46,16.24,24.2,33,34.05,50.94,4.87,8.89,9.19,18,11.88,27.87,2.85,10.45,1.8,20.76-1.5,30.85-5.17,15.8-15,27.77-30,35.19a48.39,48.39,0,0,1-17,4.8,5.42,5.42,0,0,0-1,.28ZM164.5,147a59.78,59.78,0,0,1-2.32,17.21c-1.69,5.38-3.84,10.63-5.82,15.92-.61,1.61-.36,3,.77,3.57s2.61.07,3.39-1.56c.85-1.78,1.66-3.58,2.4-5.41,5.51-13.58,7.94-27.54,4.78-42.09a55.33,55.33,0,0,0-16.39-29.34,3.46,3.46,0,0,0-1.41-.88,2,2,0,0,0-2.5,1.06c-.69,1.37-.08,2.39.88,3.33C159.21,119.39,164.2,132.49,164.5,147Z"/></g></g></svg>