<svg xmlns="http://www.w3.org/2000/svg" viewBox="0 0 1593.97 204.2"><defs><style>.cls-1{fill:#48acd3;}.cls-2,.cls-5{fill:#e94d5c;}.cls-3{fill:#fff;}.cls-4,.cls-8{fill:none;}.cls-4{stroke:#3c3c3b;stroke-width:8px;}.cls-4,.cls-5,.cls-6,.cls-7,.cls-8{stroke-miterlimit:10;}.cls-5,.cls-6{stroke:#f6f6f6;}.cls-6{fill:#f9b807;}.cls-7{fill:#95c11f;}.cls-7,.cls-8{stroke:#fff;}.cls-8{stroke-width:5px;}.cls-9{fill:#3c3c3b;}.cls-10{fill:#f6f6f6;}</style></defs><title>CienciaConDatos_2</title><g id="Layer_2" data-name="Layer 2"><g id="Analizador_de_datos" data-name="Analizador de datos"><rect class="cls-1" width="1593.97" height="143.53"/><rect class="cls-2" x="680.74" y="120.25" width="231.8" height="83.95"/></g><g id="Analizador_texto" data-name="Analizador texto"><path class="cls-3" d="M506.21,84.06a28,28,0,0,1-6.53,6.26A54,54,0,0,1,490.82,95q-9.45,4.32-17.42,4.1a28,28,0,0,1-13.77-3.69,27.42,27.42,0,0,1-9.49-9.59,35.35,35.35,0,0,1-4.37-13.27,41.22,41.22,0,0,1,1-15.3,47.31,47.31,0,0,1,6.66-15,45.44,45.44,0,0,1,4.86-6A18.27,18.27,0,0,1,464,32.4Q469.58,30,479,31a86.31,86.31,0,0,1,21.15,4.68l.36.18h.18a1.91,1.91,0,0,1,1.21.63,1.64,1.64,0,0,1,.41,1.35A87.31,87.31,0,0,1,500.27,50,1.37,1.37,0,0,1,499.5,51a1.88,1.88,0,0,1-1.39.18,1.42,1.42,0,0,1-.9-.54q-4.41-1.62-7.2-2.47t-6.84-1.67a23.82,23.82,0,0,0-7.47-.4,16.66,16.66,0,0,0-6.3,2Q465,50.67,461.75,60q-2.25,7.47-1.44,12.2a12.48,12.48,0,0,0,4.14,7.6A14.9,14.9,0,0,0,473,83.3,32.48,32.48,0,0,0,485.06,82a25,25,0,0,0,5.26-2.25c1.83-1,3.34-1.95,4.55-2.79l4.77-3.51A1.55,1.55,0,0,1,500.72,72a1.52,1.52,0,0,1,1.39,0,1.82,1.82,0,0,1,.95.94l.09.27a1.37,1.37,0,0,1,.36.72q.81,2.16,2.7,7.92a.26.26,0,0,0,.09.18A1.59,1.59,0,0,1,506.21,84.06ZM449.15,66.6q14-17.37,17.82-22.68l2.16-3.06q1.35-2.07,2.56-3.69a35.83,35.83,0,0,1,2.39-2.88,17,17,0,0,0-3.06.09q-6.48,9.72-21.6,28.53A26.08,26.08,0,0,0,449.15,66.6Zm0,3.06c.72-1,1.85-2.37,3.42-4.23a77.05,77.05,0,0,0,5.67-7.2.35.35,0,0,1,.36-.18,37.35,37.35,0,0,1,1.44-3.6L449.15,68Zm.09,1.44.36,2.34a86.79,86.79,0,0,0,7.74-11.16l.54-1.89q-1.26,1.62-4.68,5.67Q450.5,69.3,449.24,71.1Zm.45-9.9q13.77-17.28,20.16-26.73a12.69,12.69,0,0,0-2.79.63q-3.33,4-9.9,13.5-4.41,6.57-7.29,11.34Zm.81,16.29q2.07-2.52,5.94-7.65A34.38,34.38,0,0,1,456.8,65a114.69,114.69,0,0,1-6.93,9.54.08.08,0,0,1-.09.09A25.25,25.25,0,0,0,450.5,77.49ZM451,55.62q-.18.81-.36,1.53l5.85-9q5.49-8.1,9-12.51a10.15,10.15,0,0,0-2.07,1.17q-2.43,3.15-6.57,9.81T451,55.62Zm-.09,22.95q.36,1.08.81,2.16A40.61,40.61,0,0,0,454.55,77Q456.08,75,457,74a13.54,13.54,0,0,1-.45-2.79Zm2.79,6a73.81,73.81,0,0,0,4.23-7.74q-.36-.9-.63-1.8l-2,2.52a33.37,33.37,0,0,1-3.24,4A14.51,14.51,0,0,0,453.29,84ZM452.3,52.11l3.78-6c1.8-2.94,3.29-5.28,4.5-7a40.1,40.1,0,0,0-4.05,5.22A47.19,47.19,0,0,0,452.3,52.11Zm3.42,35.28q3.24-5.94,4-7.29a17.85,17.85,0,0,1-1.44-2.25,71.46,71.46,0,0,1-4.14,7.56A17.29,17.29,0,0,0,455.72,87.39Zm1.62,1.8q.81-1.44,2.43-3.87l2-3q-.72-.72-1.44-1.53l-4,7.29Q456.89,88.74,457.34,89.19Zm.72.63.18.18a62.51,62.51,0,0,1,5.13-6.48,8.19,8.19,0,0,1-.9-.63q-.54.9-1.89,3Q458.87,88.38,458.06,89.82Zm2.7,2.07a.26.26,0,0,1,.09-.18L463,88.29c.95-1.56,1.68-2.76,2.16-3.6a10.06,10.06,0,0,1-1.08-.63A62.51,62.51,0,0,0,459,90.54Q459.86,91.26,460.76,91.89Zm3.51,1.8A39.07,39.07,0,0,0,467,85.5a5,5,0,0,1-1-.45c-.48.9-1.23,2.15-2.25,3.74s-1.74,2.74-2.16,3.46l-.09.09A17.05,17.05,0,0,0,464.27,93.69Zm2.07.81a42.36,42.36,0,0,1,2.79-8.28l-1.35-.36a33.11,33.11,0,0,1-2.7,8.19A10.57,10.57,0,0,1,466.34,94.5Zm8.91-60.21a.92.92,0,0,1-.09.27,21.91,21.91,0,0,0-2.57,2.88q-1.21,1.62-2.7,3.83c-1,1.47-1.72,2.53-2.2,3.19l-.72,1a5.88,5.88,0,0,1,.63-.36,18.19,18.19,0,0,1,4.14-1.71,81.22,81.22,0,0,0,6.39-8.91Zm-8.1,60.39.81.18c1.26-2,2.75-4.71,4.5-8a15.8,15.8,0,0,1-2.43-.36A44,44,0,0,0,467.15,94.68Zm3.6.72q.18-.36,3.6-8.37a4.5,4.5,0,0,1-.9-.09q-2.7,5-4.59,8.1Zm2.88.09q3.6-8,3.78-8.46h-2.07c-.13.3-.63,1.5-1.53,3.6l-2.07,4.77A18.72,18.72,0,0,0,473.63,95.49Zm5.49-60.93A68.11,68.11,0,0,1,473.18,43a13.55,13.55,0,0,1,2.25-.36q1-1.08,1.89-2.25c.59-.78,1.35-1.8,2.25-3.06l1.62-2.52Q480.2,34.74,479.12,34.56Zm-4.5,60.93a17.9,17.9,0,0,0,2.52-.18q3.24-5.85,5.22-8.91-2.07.36-4,.54C478.1,87.78,476.83,90.63,474.62,95.49Zm9.18-60.3L482.18,35q-.54.72-1.62,2.34l-2,2.88c-.6.84-1.21,1.62-1.8,2.34q1-.09,2.07-.09a25.16,25.16,0,0,1,2.43-3.69Q483.26,36.09,483.8,35.19Zm-3.6,59.58q.54-1.35,2.16-5.13,1-2.16,1.53-3.6l-.36.09q-2.07,3.24-5.22,9A11.58,11.58,0,0,0,480.2,94.77Zm6.84-59-2.25-.36q-.63,1.08-2.79,4a37.37,37.37,0,0,0-2.16,3.24,12.6,12.6,0,0,1,2.07.18,41.74,41.74,0,0,1,2.79-3.87ZM483.53,94a45.16,45.16,0,0,0,3.6-8.82,8.32,8.32,0,0,1-1,.27l-1.17.36q-.63,1.62-1.8,4.23-1.44,3.42-1.89,4.59Q482.36,94.32,483.53,94Zm4.5-58-2.61,3.6c-1.21,1.5-2,2.61-2.52,3.33l2,.36a59.21,59.21,0,0,1,5.49-6.75ZM484.79,93.6q1.35-.45,2.79-1.08A100.64,100.64,0,0,1,492,82.89a31.59,31.59,0,0,1-3.87,1.8A48.35,48.35,0,0,1,484.79,93.6ZM492.53,37l-1.08-.36v.09a54,54,0,0,0-5.58,6.66,7.11,7.11,0,0,1,1.08.27,25.73,25.73,0,0,1,3-3.78Zm2.79.72-1.8-.54c-.31.36-1.26,1.44-2.88,3.24a35.91,35.91,0,0,0-2.7,3.42q.72.18,1.53.45A79.16,79.16,0,0,1,495.32,37.71Zm-3.78,53.1a36.07,36.07,0,0,0,2.88-9.27l-.9.54a91.2,91.2,0,0,0-4.77,10l.63-.27Zm4.68-52.74c-2.47,2.52-4.41,4.68-5.85,6.48L492,45a64.16,64.16,0,0,1,5.76-6.39Zm-2.07,51.39q.81-2.25,1.71-5.67l.9-3.78-1.35.9a34.83,34.83,0,0,1-2.61,9.27Zm.36-43.56A48.87,48.87,0,0,0,498.2,42a23.63,23.63,0,0,0,.36-3,61.2,61.2,0,0,0-5.67,6.3Zm.9.27,1.89.72q.36-1.62.63-3.15Zm0,42.57.63-.36q2-5.22,4.86-11.16l-.09-.18-2.88,2.16-1.17,4.86Q496,86.85,495.41,88.74ZM500,85.5c.12-.36.3-.85.54-1.48s.39-1.07.45-1.31a17.7,17.7,0,0,0,.9-2.7l-.54-1.62q-2.34,4.86-4.05,9.18A33.7,33.7,0,0,0,500,85.5Zm1.44-1.44a8.86,8.86,0,0,0,1.26-1.35l-.36-1.08c-.13.42-.27.9-.45,1.44Z"/><path class="cls-3" d="M520.43,47.25a1.79,1.79,0,0,1,.45,1.17q0,24.48-.63,46.62a1.59,1.59,0,0,1-.54,1.22,1.92,1.92,0,0,1-1.35.49h-.27c-.6.06-1.19.14-1.76.23l-1.26.18-.67.09a4,4,0,0,1-.63,0h-3.15a1.71,1.71,0,0,1-.9-.27,1.53,1.53,0,0,1-1.35-1.53c-.36-3.78-.58-7.65-.63-11.61s0-8,.31-12.15.57-7.9.9-11.29.77-7.31,1.31-11.75a1.94,1.94,0,0,1,.45-1,1.5,1.5,0,0,1,1.62-1.35l6.39-.18A1.7,1.7,0,0,1,520.43,47.25ZM517.1,25.74a9.71,9.71,0,0,1,5.49,3.69A7.54,7.54,0,0,1,523.94,35a6.94,6.94,0,0,1-3.2,4.86,7.56,7.56,0,0,1-6.43.63,9,9,0,0,1-4.77-3.33A8,8,0,0,1,507.83,32a6.57,6.57,0,0,1,2.29-5,7.87,7.87,0,0,1,6-1.67A1.57,1.57,0,0,1,517.1,25.74ZM517,78l.09-2.25a44,44,0,0,0-5.76,4.5v3.6Q512.77,82.17,517,78Zm-4-48.6a2.82,2.82,0,0,0-1.53,2.34Q512.15,30.78,513,29.43Zm4.14,41.31c0-.78.09-1.56.09-2.34a11,11,0,0,0-1.53,1.17q-.81.72-1.35,1.26l-1.44,1.44a16.66,16.66,0,0,0-1.26,1.35l-.18,2.61A57.08,57.08,0,0,1,517.1,70.74Zm0,4V72a68.43,68.43,0,0,0-5.67,5.58V79A64.79,64.79,0,0,1,517.1,74.7Zm-.18,7.65c.05-1,.09-2,.09-3.06a71.66,71.66,0,0,0-5.31,5.58.31.31,0,0,1-.27.18V87.3A45,45,0,0,1,516.92,82.35ZM512,32.58l-.45.54.09.09A4.56,4.56,0,0,1,512,32.58Zm4.86,53.73.09-2.79a37,37,0,0,0-5.4,5l.18,3.69c.36-.42,1.22-1.38,2.61-2.88A34.19,34.19,0,0,0,516.83,86.31Zm.36-19V64.44a45.22,45.22,0,0,0-5.4,4.86l-.18,3A33.87,33.87,0,0,1,517.19,67.32Zm-.36,22.5v-2L514.94,90q-2.43,2.61-3.15,3.6v.09h1.89A39.5,39.5,0,0,1,516.83,89.82Zm.09-60.39-.81-.18c-.31.36-.9,1-1.8,1.89a12.3,12.3,0,0,0-2.25,3.15H512l.27.45A33.36,33.36,0,0,1,516.92,29.43Zm.27,33.93c0-.84,0-1.71.09-2.61l-5.22,5q-.09,1.08-.09,2.16A33.41,33.41,0,0,1,517.19,63.36Zm-5-31a15.64,15.64,0,0,1,1.53-1.71q1.16-1.26,1.53-1.62h-.09a3.23,3.23,0,0,0-.81.09Q513.14,31,512.15,32.31Zm5.13,27.18V57.06q-1.28,1.17-4.86,4.86l-.18,2.43Zm0-3.69V53.91q-.54.63-1.26,1.35c-.24.3-.61.69-1.08,1.17l-1.26,1.17a6.6,6.6,0,0,0-.9,1.08l-.18,1.8C514.63,58.38,516.2,56.82,517.28,55.8Zm1.53-25.2c-.31-.24-.63-.48-1-.72a29.9,29.9,0,0,0-5,5.58,3.93,3.93,0,0,0,1.08.9,27.89,27.89,0,0,1,2.52-3Zm-1.53,21.87V50q-1.54,1.44-4,4.32L513,57.15l2.43-2.52Q516.54,53.37,517.28,52.47Zm-1.17-2.61-2.34.09-.36,2.7C514.42,51.51,515.33,50.58,516.11,49.86Zm4.14-17.1a5.37,5.37,0,0,0-.81-1.53l-2.34,2.7-2.52,2.88a3,3,0,0,0,.81.27l1,.18L518,35.19l1.8-2.25A.6.6,0,0,1,520.25,32.76Zm-3.51,58.5-1.8,2.25,1.8-.18Zm3.6-57.6-1.62,2.07q-1.08,1.35-1.26,1.53a3,3,0,0,0,2.88-2.79A2.2,2.2,0,0,0,520.34,33.66Z"/><path class="cls-3" d="M556.87,80.28q1,.81,4.32,3.78a1.61,1.61,0,0,1,.54,1.89,1.56,1.56,0,0,1-.18,1.44q-3.78,5.85-8.37,7.29-5.22,1.62-12.06-.27T530.86,88.2q-4.05-5.22-6.3-16.56t-.36-17.73q2-6.84,7.56-9.45a15.76,15.76,0,0,1,11.07-.72,22.5,22.5,0,0,1,10.35,6,18.38,18.38,0,0,1,5.4,10.44,1.73,1.73,0,0,1-.18,1.08,1.56,1.56,0,0,1-1.08,1.53q-1.08.45-5.8,2.61t-7.88,3.33a48.63,48.63,0,0,1-6.39,1.89q0,.27.09,1.17t.09,1.26a9.55,9.55,0,0,0,.09,1.08q.09.72.18,1.17l.18.9a11.33,11.33,0,0,0,.36,1.08,6.3,6.3,0,0,0,.45.9,7.79,7.79,0,0,0,4.23,3.56,9.7,9.7,0,0,0,5.63.22,13.49,13.49,0,0,0,5.35-2.7,1.69,1.69,0,0,1,1.35-.45,1.75,1.75,0,0,1,1.17.63A1.57,1.57,0,0,1,556.87,80.28ZM531,59.31a8,8,0,0,1-1.71,0H527v1.17A41,41,0,0,0,531,59.31Zm1.62.27v-.09A25.22,25.22,0,0,1,527,61.38q0,.9.09,1.89Q530.95,60.75,532.57,59.58ZM532,58.14v-.09a14.4,14.4,0,0,0-4.77-1.53l-.18,1.89h2.16A7.4,7.4,0,0,0,532,58.14Zm.9,2.25q-1.53,1.17-5.76,4a3,3,0,0,0,.09.72,36,36,0,0,0,5.58-1.89h.27a21.83,21.83,0,0,1-.18-2.7Zm.36,4.86a8.31,8.31,0,0,1-.09-1.17A40.93,40.93,0,0,1,527.35,66l.18,1.26a14.64,14.64,0,0,0,2.43-.72l1.62-.63a8.08,8.08,0,0,1,1.62-.63Zm-1.89-8.46A33.92,33.92,0,0,1,528,53.91L527.62,55q-.09.27-.18.63A14.77,14.77,0,0,1,531.4,56.79Zm2.16,10-.09-.63h-.09l-1.53.54-1.53.63a14.25,14.25,0,0,1-2.7.81l.18,1.08A21.72,21.72,0,0,1,533.56,66.78Zm.18.9A23.47,23.47,0,0,0,528,70.11l.18.9v.27a51.91,51.91,0,0,0,5.67-3Zm-1.62-11.52a32,32,0,0,1-1.62-6.48A12.27,12.27,0,0,0,528.34,53l1.17,1.08c.54.54,1,1,1.4,1.31A4.78,4.78,0,0,0,532.12,56.16Zm1.44,13.41q-.54.36-5.22,2.61.18.81.45,1.71l.09-.09,1.44-1.17a6.35,6.35,0,0,1,3.33-1.35,10.7,10.7,0,0,0-.09-1.62Zm.09,2.61a5.43,5.43,0,0,0-2.79,1.17l-1.44,1.17-.45.27q.27.9.45,1.71,2.88-2.16,4.41-3.15a6.17,6.17,0,0,1-.09-1.17Zm.45,3.33-.18-1.08a48.58,48.58,0,0,0-4.14,3l.36,1.17a18.85,18.85,0,0,1,1.53-1.26A14.51,14.51,0,0,1,534.1,75.51Zm.36,1.8-.18-.9q-.81.54-2.07,1.53l-1.8,1.53.45,1.17,1.26-1.17Zm.72,1.8a2,2,0,0,1-.36-.81,16.2,16.2,0,0,0-2.07,1.8l-1.53,1.44.72,1.44A16.92,16.92,0,0,1,535.18,79.11ZM533.65,54c-.12-.24-.4-1-.85-2.34a16,16,0,0,0-1.22-2.88l-.18.18a29,29,0,0,0,1.44,6.48Q533.2,54.72,533.65,54Zm.63-.81a3,3,0,0,1,.72-.81.43.43,0,0,1-.63-.27,30.85,30.85,0,0,1-1.17-4.32,6.3,6.3,0,0,0-.9.45Q532.66,48.87,534.28,53.19Zm1.26,26.73a18.47,18.47,0,0,0-3.15,4,11.48,11.48,0,0,0,.9,1.53A25.22,25.22,0,0,1,536.17,81q-.27-.45-.54-1Zm-1-12.78.09.45a2.27,2.27,0,0,1,.54-.27h.18q-.18-1-.36-2.79-.18-2.52-.36-3.51a3.35,3.35,0,0,1-.81-.09,48.42,48.42,0,0,0,.72,6v.18Zm2.61,15a3,3,0,0,0-.36-.45,29.83,29.83,0,0,0-2.88,4.5,3,3,0,0,0,.36.45A25.93,25.93,0,0,1,537.16,82.17Zm-.72-30.87q-.18-.81-.54-2.7-.27-1.08-.36-1.62a11.39,11.39,0,0,0-1.53.45,21.11,21.11,0,0,0,1.26,4.32.6.6,0,0,1-.09.54A7.07,7.07,0,0,1,536.44,51.3Zm2.16,32.22a7.81,7.81,0,0,1-.81-.72A29.42,29.42,0,0,0,535,87.3l.63.63Zm-2.43-22.77a2.64,2.64,0,0,1-.63.09q.18,1.08.36,3.6.18,1.71.36,2.7l.9-.18A44.75,44.75,0,0,0,536.17,60.75Zm-.09-3.69a48.43,48.43,0,0,0,6.75-2.34,4.8,4.8,0,0,0-4.14-.54A5.41,5.41,0,0,0,536.08,57.06Zm4.32,27.63a5.56,5.56,0,0,1-1-.63l-3.06,4.32,1.8,1.08a25.94,25.94,0,0,0,1.35-2.74C540,85.49,540.34,84.81,540.4,84.69Zm-2.34-34.11a31.36,31.36,0,0,1-.18-3.87,11.6,11.6,0,0,0-1.44.09q.09.54.36,1.62.36,1.71.45,2.52l.09-.09A3.52,3.52,0,0,0,538.06,50.58Zm-.54,9.81-.54.18a36.77,36.77,0,0,1,1.08,6.12l.54-.09A31.44,31.44,0,0,1,537.52,60.39Zm1.8-.54-.9.27a35.87,35.87,0,0,0,1,6.21l1.17-.36a15.25,15.25,0,0,1-.36-2q-.18-1.35-.36-2.34A7.9,7.9,0,0,0,539.32,59.85Zm1.08-9.54q0-.45.09-1.35.09-1.35.09-2.07l-1.8-.18q0,2.43.09,3.69A12.35,12.35,0,0,1,540.4,50.31Zm1.08,34.83-.27-.09a11.77,11.77,0,0,1-.63,1.44l-.9,1.8L539,89.82l.63.27Q540,89,541.48,85.14Zm-.27-25.92-1.08.36a12.61,12.61,0,0,1,.59,1.89c.15.66.28,1.46.4,2.39s.21,1.54.27,1.84l1.08-.36q-.36-1.26-.81-3.78Q541.39,59.94,541.21,59.22Zm1.62,26.37a3.49,3.49,0,0,1-.45-.18q-1.62,4.05-1.89,5,.72.27,1.62.54l.27-2.52Q542.65,86.58,542.83,85.59Zm-.72-35q.18-.81.81-3.06a4.77,4.77,0,0,0-1-.27,1.48,1.48,0,0,0-.45-.09q-.09.63-.18,1.89V50.4Zm0,8.64q.18.72.45,2.16.54,2.88.72,3.6l.9-.36-.9-2.43Zm.72-.63c.24.72.65,1.8,1.22,3.24s.88,2.28.94,2.52l.27-.18A48.82,48.82,0,0,0,543,58.5Zm1.26,27.18h-.36q-.18,1-.45,2.79a24.79,24.79,0,0,1-.36,2.61,7.11,7.11,0,0,1,1.08.27Q544.18,86.76,544.09,85.77ZM543.46,51a13.07,13.07,0,0,1,1.71-2.61q-.72-.27-1.35-.54-.63,2.07-.81,3A3.49,3.49,0,0,0,543.46,51Zm1.35,6.75-.9.36q.54,1.08,2.16,5.76l1.35-.63L547,62.1q-.63-1.44-.9-2A10.24,10.24,0,0,0,544.81,57.78Zm.36-5.85q1.44-2.25,1.62-2.61a3.52,3.52,0,0,0-.81-.45,16.13,16.13,0,0,0-1.71,2.52ZM545,85.86q.09,1-.18,5.67a7.06,7.06,0,0,0,1.53.18q-.09-.81-.18-2.16-.09-2.7-.18-3.69Zm.63-28.44A18.87,18.87,0,0,1,547,59.76q.18.54.81,2a9.81,9.81,0,0,0,.45,1.17l2.61-1.17q-3.51-3.87-4.5-4.77a1.42,1.42,0,0,1-.54.36Zm.72-4.59q.63-.09,1.89-.18a16.24,16.24,0,0,1,2.43-.27l-.9-.9q-1.08.45-3.51,1.26Zm0-1.08q1.71-.54,2.61-.9a11.15,11.15,0,0,0-1.35-1Q547.24,50.49,546.34,51.75Zm.54,3.15-.27-.09.09.09Zm0,1a.37.37,0,0,1-.09.27q.9.9,5,5.22l1.53-.72a34.92,34.92,0,0,1-2.88-2.16A20.56,20.56,0,0,0,546.88,55.89Zm.09,30h-.09q.09.9.18,3.69.09,1.44.18,2.25h1Q547.6,89.19,547,85.86Zm.54-30.6A22.6,22.6,0,0,1,551,57.78a27.45,27.45,0,0,0,3.24,2.43l.63-.27-.18-.54L550.66,57A26,26,0,0,0,547.51,55.26Zm.27-1.71q2.61.9,5.13,1.62a14.66,14.66,0,0,0-1.53-2l-3,.27Zm.45,32.13a.8.8,0,0,0-.36.09q.63,3.42,1.26,6a6.06,6.06,0,0,1,1-.09l-1-3Q548.5,86.85,548.23,85.68ZM549,54.9q.81.54,2.16,1.26,2.52,1.62,3.24,2-.36-.9-.81-1.8Q551.29,55.71,549,54.9Zm1,30.42-.9.18.9,3q.9,2.52,1.08,3.06a7.11,7.11,0,0,0,1.08-.27.26.26,0,0,0,.18-.09A37,37,0,0,1,549.94,85.32Zm1.62-.54a6.38,6.38,0,0,0-.81.27,38.71,38.71,0,0,0,2.43,5.76,9.46,9.46,0,0,0,1.44-.9q-.27-.36-1.62-2.52A17.22,17.22,0,0,1,551.56,84.78Zm1-.45-.18.09a20.65,20.65,0,0,0,1.44,2.52q1.35,2.16,1.53,2.43a3.13,3.13,0,0,1,.63-.63A55.8,55.8,0,0,1,552.55,84.33Zm1.53-.81-.72.36q.81,1.17,3.24,4.14l.18-.18A41.62,41.62,0,0,0,554.08,83.52Zm1.17.09a30.29,30.29,0,0,1,2.07,3.51L558,86Q556.15,84.33,555.25,83.61Z"/><path class="cls-3" d="M565,40.32q6.12,0,7.83-.18a1.41,1.41,0,0,1,1,.18h.27a2,2,0,0,1,1.31.5A1.52,1.52,0,0,1,576,42l.09,1.08a19.81,19.81,0,0,1,9.9-2.25,15,15,0,0,1,7.65,1.94A15.5,15.5,0,0,1,599,48.15a31.84,31.84,0,0,1,3.33,7.34,52.72,52.72,0,0,1,1.84,8.59,106.77,106.77,0,0,1,.54,17.28,87.3,87.3,0,0,1-1.8,14,1.63,1.63,0,0,1,.27,1.17,1.85,1.85,0,0,1-.67,1.22,1.64,1.64,0,0,1-1.31.4q-4.86-.45-9.72-.45a1.85,1.85,0,0,1-1.8-1.8,1.58,1.58,0,0,1,.45-1.17q0-2,.18-8.1t.18-9.72q0-12.06-1.53-16.92a7.27,7.27,0,0,0-3.78-4.68q-2.61-1.08-5,1.35Q575,61.92,576,75.42q.18,2.52.81,7.11t.95,8.24a32.66,32.66,0,0,1,0,6.16,1,1,0,0,1-.09.45,2,2,0,0,1-.31,1.4,1.88,1.88,0,0,1-1.13.76,47.23,47.23,0,0,1-8.1.72,1.73,1.73,0,0,1-1.21-.45,1.77,1.77,0,0,1-.59-1.08l-.18-.54a75.58,75.58,0,0,1-2.56-13.81q-.76-7.69-.77-13.14t.27-14.45q.27-9,.27-13a1.7,1.7,0,0,1,.09-.54,1.68,1.68,0,0,1-.36-1.08,1.85,1.85,0,0,1,1.8-1.8Zm7.29,27.81q.09-.72.18-1.35-1.26.27-3.42.54l-2.52.36v1.44q1-.18,2.7-.45Zm0,1.89V69l-3,.54q-1.8.27-2.79.45V71.1q.9-.09,2.61-.45A20.35,20.35,0,0,1,572.26,70Zm0,2.34V70.92l-3,.54q-1.8.45-2.79.63a6.56,6.56,0,0,1,.09,1.08,17,17,0,0,0,2.7-.27Zm.54-9.9a15.27,15.27,0,0,0-3.15.18,9.88,9.88,0,0,0-1.48.18,10,10,0,0,1-1.58.18v1.17q4.41-.09,6.12,0l.18-.9A4.17,4.17,0,0,0,572.8,62.46Zm-.27,3.33a3,3,0,0,1,.09-.72q-1.71-.09-6,0v1.71l2.34-.36A23.84,23.84,0,0,0,572.53,65.79Zm-.09,9a13.89,13.89,0,0,1-.09-1.53,8.83,8.83,0,0,1-.94.14,8.09,8.09,0,0,0-1.08.18,4.4,4.4,0,0,1-1,.13,13.15,13.15,0,0,1-2.79.36V75c.66,0,1.64,0,2.93-.09S571.78,74.79,572.44,74.79Zm.09,1.89a6.06,6.06,0,0,0-.09-1c-.66,0-1.63,0-2.92.09s-2.27.09-2.93.09a6.56,6.56,0,0,1,.09,1.08c.72,0,1.73,0,3-.09S571.93,76.74,572.53,76.68Zm0-17.73q-2.79-.18-5.85-.09v.81c.72-.06,1.74-.1,3.06-.13s2.25-.08,2.79-.14Zm.18,2.52a7.13,7.13,0,0,1-.09-1.17h-.09c-.6.06-1.56.11-2.88.14s-2.31.07-3,.13V62.1a8.36,8.36,0,0,0,1.4-.18,8.41,8.41,0,0,1,1.48-.18A23,23,0,0,1,572.71,61.47Zm.18,18q-.18-1-.27-1.89-.9.09-2.88.18t-3.06.09l.18,1.8Q569.38,79.47,572.89,79.47Zm-.27-23a61.29,61.29,0,0,1,.63-6.57,19.86,19.86,0,0,1-6.3.54v1.08q1.62-.27,5.49-.54a.45.45,0,0,1,0,.9,39.75,39.75,0,0,0-5.49.63l-.09,1.35q.81.09,5.4.09a.45.45,0,0,1,0,.9q-4.59,0-5.4-.09l-.09,1.71Zm-.09,1.62v-.72h-5.76V58Q569.83,57.87,572.53,58.05Zm.63,24.12-.18-1.8q-3.51,0-6.12.18.09.81.18,1.71A58.47,58.47,0,0,1,573.16,82.17Zm.18-33.3.18-1.26a3.58,3.58,0,0,1-.54-.45,17.17,17.17,0,0,1-5.94.36q0,1-.09,2Q571.81,49.59,573.34,48.87Zm-.9-4.23v-.81q-1.89.09-5.4.09v1A22.31,22.31,0,0,0,572.44,44.64Zm0,.9a22.64,22.64,0,0,1-5.4.27v.81a15.83,15.83,0,0,0,5.49-.27,1,1,0,0,1-.09-.45v-.36Zm1.08,39.15-.18-1.53a50.91,50.91,0,0,0-6.21,0,8.9,8.9,0,0,0,.09,1.26A57.72,57.72,0,0,0,573.52,84.69Zm.27,2.61-.18-1.71a57.72,57.72,0,0,1-6.3-.27q.18,1,.27,2Q569.38,87.39,573.79,87.3Zm.27,2.43A13.89,13.89,0,0,0,574,88.2q-4.5.09-6.21,0a14.56,14.56,0,0,0,.27,1.71c.78,0,1.94,0,3.47-.09Zm.27,2.79-.18-1.89q-.45,0-2.61.09t-3.42.09q.18.81.36,1.71Q570.46,92.61,574.33,92.52Zm0,.9h-5.67l.36,1.26q4.5-.18,5.31-.27Zm0,1.89q-1,.09-5.13.27l.27,1.08a44.11,44.11,0,0,0,4.77-.45A4.58,4.58,0,0,0,574.33,95.31Zm-.9-38.07q0,2,.09,3.78a16.42,16.42,0,0,1,1.62-3.6h-.09a.4.4,0,0,1-.45-.45c0-.78.06-2.23.18-4.36a48.56,48.56,0,0,0,.09-4.91.26.26,0,0,1-.18-.09.69.69,0,0,1-.27.09,77.9,77.9,0,0,0-.9,8.82.36.36,0,0,1,.18.36A.35.35,0,0,1,573.43,57.24Zm2.34-9.72q.09,1.8-.09,5.13t-.18,4.14a12.66,12.66,0,0,1,.81-1.08V47.25l-.18.09A.52.52,0,0,1,575.77,47.52Zm3-1.71a7.62,7.62,0,0,0-1.53.81v8l.45-.45a11,11,0,0,1,.9-.81c0-.54.05-1.41.14-2.61s.13-2,.13-2.52S578.8,47,578.74,45.81Zm1.8-.72a5.13,5.13,0,0,0-.9.27,61.36,61.36,0,0,1-.09,7.29l.9-.54c0-.42,0-1,0-1.89s0-1.44,0-1.8Zm2.43-.45-1.53.18q.09,1.53,0,3.69c0,.36,0,.9,0,1.62s0,1.26,0,1.62a10.67,10.67,0,0,1,1.17-.27A47.28,47.28,0,0,1,583,44.64Zm2.79-.18a17.35,17.35,0,0,0-1.89.09,47.28,47.28,0,0,0-.45,6.84,3,3,0,0,1,.72.09q.18-1,.81-3.42A27.73,27.73,0,0,0,585.76,44.46Zm3.33.45a10.87,10.87,0,0,0-2.43-.45,28.15,28.15,0,0,1-.81,3.87q-.63,2.34-.81,3.24a16.31,16.31,0,0,1,1.62.45l.09.09A39.3,39.3,0,0,1,588,48.24Q588.82,45.9,589.09,44.91Zm3.69,1.71A13.69,13.69,0,0,0,590,45.18q-.27,1-1.17,3.33a31,31,0,0,0-1.17,4.05,4.4,4.4,0,0,1,.45.27Q589.18,51.66,592.78,46.62Zm2.16,2.07a16.29,16.29,0,0,0-1.44-1.44q-3.51,4.86-4.68,6.12l.18.18Q592.33,50.67,594.94,48.69Zm1.89,2.79a13.71,13.71,0,0,0-1.35-2.07q-2.61,2-5.85,4.77l.54.54A43,43,0,0,1,596.83,51.48Zm1.35,2.79a22,22,0,0,0-1-2.07,46.62,46.62,0,0,0-6.48,3.24,8.2,8.2,0,0,1,.81,1.44A48,48,0,0,0,598.18,54.27Zm1.08,3.42a24.89,24.89,0,0,0-.81-2.52A46.19,46.19,0,0,1,592,57.69a10.57,10.57,0,0,1,.45,1.26l.09.27A28.4,28.4,0,0,1,599.26,57.69Zm.72,2.79a17.42,17.42,0,0,0-.45-1.89,28.4,28.4,0,0,0-6.75,1.53,8.81,8.81,0,0,1,.27,1.44,16.68,16.68,0,0,1,3.33-.36,8.85,8.85,0,0,0,3.42-.63A.26.26,0,0,1,600,60.48Zm.54,2.79-.36-1.89a9.29,9.29,0,0,1-3.69.72,9.88,9.88,0,0,0-3.24.36A11.58,11.58,0,0,1,593.5,64q1.26-.09,4.59-.45Q599.53,63.36,600.52,63.27Zm.09.9-2.43.27q-3.33.36-4.59.45l.18,1.89q5.94,0,7.2-.09-.18-1.08-.27-2.16ZM600,92l-6.12-1a8.31,8.31,0,0,0-.09,1.17h3.06a12,12,0,0,1,3.06.18Zm-.27,1.17a22.7,22.7,0,0,0-2.88-.09h-3.06v1.08q2.88.09,5.67.27A6.6,6.6,0,0,0,599.71,93.15Zm1.44-24.48a6.56,6.56,0,0,1-.09-1.08q-1.44.09-7.2.09a6.06,6.06,0,0,0,.09,1l4.68-.09Q600.07,68.58,601.15,68.67Zm-.72,20.16q-.45-.09-3.42-.36a10,10,0,0,1-3.06-.54l-.09,2.16,6.21,1Zm.81-18.45a3.35,3.35,0,0,0-.09-.81q-1.08-.09-2.52-.09l-4.68.09a14.66,14.66,0,0,1,.09,1.62Q598.09,70.56,601.24,70.38Zm-.36,15q-3.06,0-6.93-.27V87a10.31,10.31,0,0,0,3.15.54q3,.27,3.51.36Q600.7,86.67,600.88,85.41Zm.45-11.79q0-1.17-.09-2.34-3.15.18-7.2.81v.72q1.17.18,3.78.36Q600.07,73.44,601.33,73.62Zm0,5.31h-7.2q0,1-.09,2.07l2.93.09c1.65.06,2.89.12,3.73.18a.4.4,0,0,1,.45.45Zm-.18,2.88a.43.43,0,0,1-.45.36q-1.35-.09-3.78-.18L594,81.9v2.34q3.87.27,6.93.27Zm.18-7.29q-1.26-.18-3.6-.45-2.52-.18-3.6-.36v1.53a66,66,0,0,0,7.2.27Zm0,3.51V76.41a66,66,0,0,1-7.2-.27V78Z"/><path class="cls-3" d="M636.88,67.77q-6.66-2-8.73-2.43-5.4-1-7.65.36a8.32,8.32,0,0,0-3.24,4,12.45,12.45,0,0,0-1,5.76,9.84,9.84,0,0,0,1.67,5.18A6,6,0,0,0,622,83.16q3.06.63,7.2-1.89a52.27,52.27,0,0,0,6.93-5.4l.09-.09a1.13,1.13,0,0,1,.45-.63,1.69,1.69,0,0,1,1.35-.45,1.75,1.75,0,0,1,1.17.63l4.86,6.12a2.29,2.29,0,0,1,.54.54,1.93,1.93,0,0,1,.23,1.35,1.82,1.82,0,0,1-.77,1.17q-1.35.9-5,3.78a55.62,55.62,0,0,1-5.31,4q-6.84,4.5-13.68,3.06a18.61,18.61,0,0,1-11.47-7.2,22.4,22.4,0,0,1-4.37-12.69,24.05,24.05,0,0,1,3.24-13.14,19.61,19.61,0,0,1,10.26-8.73q4.59-1.71,11.52-.9,1.08.09,5.58.81,3.24.45,5.13.54a1.55,1.55,0,0,1,1.22.59,2,2,0,0,1,.49,1.3v.27a2,2,0,0,1,.45,1.53,22.48,22.48,0,0,1-.54,2.61q-.36,1.35-1,3.15t-.81,2.25a1.9,1.9,0,0,1-.63.9,1.62,1.62,0,0,1-.85,1.08A1.64,1.64,0,0,1,636.88,67.77Zm-29.07,5a31.13,31.13,0,0,1,5.13-1.17,1.48,1.48,0,0,0,.09-.45l-1.26.18q-3.06.27-3.87.45A5.06,5.06,0,0,1,607.81,72.72Zm0,1.89a25.13,25.13,0,0,1,4.86-1.71h.09v-.45a39.47,39.47,0,0,0-5,1.26Zm.18,2.7a35.34,35.34,0,0,1,4.68-1.62V73.8a28.23,28.23,0,0,0-4.86,1.8A7.87,7.87,0,0,0,608,77.31Zm.36-7.83a9,9,0,0,0-.27,1.35,29.4,29.4,0,0,1,3.6-.45,9,9,0,0,0,1.62-.27l.36-1.08q-1.17.18-3,.27a3.6,3.6,0,0,1-1,.14C609.09,69.47,608.65,69.48,608.35,69.48Zm0,9.9q.81-.45,2.07-1.08,2-1,2.43-1.17a1.7,1.7,0,0,1-.09-.54,35.34,35.34,0,0,0-4.68,1.62A10.67,10.67,0,0,1,608.35,79.38Zm.27-10.8a4.58,4.58,0,0,1,1-.09,4.48,4.48,0,0,0,1-.09A20.83,20.83,0,0,0,614,68a5.88,5.88,0,0,0,.36-.63,16.11,16.11,0,0,0-5.67.9Zm.45,13a31.47,31.47,0,0,0,4.23-2.25A9.44,9.44,0,0,1,613,78l-2.25,1.08-2.16,1.17A10.57,10.57,0,0,0,609.07,81.54Zm0-14.31a18.73,18.73,0,0,1,5.76-.72,9.48,9.48,0,0,1,.54-.81,27.28,27.28,0,0,0-5.31-.81A21.1,21.1,0,0,0,609.07,67.23Zm1.17,16.83a17.23,17.23,0,0,1,2-1.44l1.89-1.44a5,5,0,0,1-.45-1,40.93,40.93,0,0,1-4.23,2.25Q609.79,83.25,610.24,84.06ZM610.6,64a36,36,0,0,1,5.4.9l.18-.18a48.56,48.56,0,0,0-4.86-1.89Q611,63.45,610.6,64Zm.72,21.78,3.51-3.33a1.13,1.13,0,0,1-.27-.45l-1.8,1.35a20.72,20.72,0,0,0-2.07,1.53A8.19,8.19,0,0,1,611.32,85.77Zm4.14-22.32-1.08-.9a17.24,17.24,0,0,0-1.71-1.26,9.82,9.82,0,0,0-.72.81Q613.84,62.73,615.46,63.45Zm-3.51,23L613,87.75q1.26-1.89,2.88-3.87l-.54-.72Zm1.35-25.83,1.62,1.17,2.34,1.8.18-.18A26.2,26.2,0,0,1,614,59.94,4.07,4.07,0,0,0,613.3,60.66Zm1,28.17a41.45,41.45,0,0,0,3.15-3.69l-.81-.63a35.19,35.19,0,0,0-2.88,3.78Zm.45-29.52a21.38,21.38,0,0,0,3.51,3.6,1.13,1.13,0,0,1,.45-.27,3.52,3.52,0,0,1,.81-.45l-.72-1q-1.62-2.25-2.16-3.15Zm1.8,31A17.34,17.34,0,0,0,618.88,86l-.72-.36A35,35,0,0,1,615,89.37Q615.73,89.82,616.54,90.27Zm.81-32.58,2.16,3,.81,1.26a.37.37,0,0,1,.27-.09,11.67,11.67,0,0,1-1.53-4.95L619,57A9.57,9.57,0,0,0,617.35,57.69ZM619,91.26q.27-.63,1.35-4.77l-.63-.18a17.34,17.34,0,0,1-2.34,4.32Q618.16,91,619,91.26Zm2.43.63.9-5a6.06,6.06,0,0,1-1-.09l-.09-.09q-1.08,4-1.35,4.86l.9.18ZM620,56.61v.09a10.08,10.08,0,0,0,1.53,4.86,3.35,3.35,0,0,1,.81-.09,23.36,23.36,0,0,1-.18-3.33,15.52,15.52,0,0,0-.09-2A21,21,0,0,0,620,56.61Zm3.24,35.46a17.58,17.58,0,0,0,.9-5.22,4.58,4.58,0,0,1-.9.09l-.9,5A4.58,4.58,0,0,0,623.2,92.07Zm-.27-36a15.52,15.52,0,0,1,.09,2,22.24,22.24,0,0,0,.18,3.33h1.26q0-3.69-.09-5.4A11.6,11.6,0,0,0,622.93,56.07ZM625.18,92q-.09-1.17-.09-3.33V86.76a22.77,22.77,0,0,1-.9,5.31A6.06,6.06,0,0,1,625.18,92Zm.09-36q.09,1.71.09,5.4a6.06,6.06,0,0,1,1,.09,17.56,17.56,0,0,1,.36-2.43q.36-1.89.45-3Q626.17,56,625.27,56ZM626,88.2v.45q0,2.07.09,3.15l.63-.18Q626.26,89.82,626,88.2Zm2.43,2.88q-.09-.9-.45-3.33-.09-1.08-.18-1.8a4,4,0,0,1-1,.36,26.81,26.81,0,0,0,.72,5A5.13,5.13,0,0,0,628.42,91.08Zm-.72-32.4.36-.81q.36-1.08.54-1.71h-.54Q628,57.15,627.7,58.68Zm1.8-2.43a17.16,17.16,0,0,1-.63,1.89,22.23,22.23,0,0,0-1.08,3.51l.81.18a17.46,17.46,0,0,1,.72-2.79l.81-2.7Zm.72,33.93q-1-3.51-1.17-4.68l-.36.09q.09.81.18,2,.36,2.25.45,3.15ZM631,56.52c-.12.36-.28.89-.49,1.58a11.74,11.74,0,0,1-.41,1.21,27.12,27.12,0,0,0-.63,2.7l.72.09q.63-1.71,2.25-5.4ZM630.49,88q-.09-1.62-.27-3.15l-.36.18Q630,86.22,630.49,88Zm2.34.54c-.12-.42-.34-1.12-.67-2.11s-.56-1.76-.68-2.3l-.36.18H631a47.93,47.93,0,0,1,.45,5.13l.27-.18Zm.63-31.68a49.23,49.23,0,0,0-2.34,5.49l.27.09q1.62-3,2.7-5.49Zm1.17,30.33-.18-.18c-.06-.18-.3-.73-.72-1.66s-.72-1.64-.9-2.12l-.63.36a20,20,0,0,0,.72,2.3c.36,1,.6,1.66.72,2ZM635,57.06a58.27,58.27,0,0,1-2.7,5.58l.72.18a49.28,49.28,0,0,0,3.24-5.58Zm1.53,28.62-2-3.69-1,.72q.27.72,1,2.25a10.27,10.27,0,0,1,.72,1.71Zm.72-28.26a57.75,57.75,0,0,1-3.33,5.67l.63.18q2.7-4.41,3.42-5.85Zm1.08,26.82q-1.08-1.8-2.34-3.51l-.72.63,2,3.78Zm-2.88-20.7,1.08.36q1.53-4.5,1.62-4.95Q637.6,60,635.44,63.54ZM639,83.61l1.35-1-2.61-3.33-1.08.9A34.35,34.35,0,0,1,639,83.61Z"/><path class="cls-3" d="M658.84,47.25a1.79,1.79,0,0,1,.45,1.17q0,24.48-.63,46.62a1.59,1.59,0,0,1-.54,1.22,1.92,1.92,0,0,1-1.35.49h-.27c-.6.06-1.18.14-1.75.23l-1.26.18-.68.09a3.92,3.92,0,0,1-.63,0H649a1.74,1.74,0,0,1-.9-.27,1.55,1.55,0,0,1-1.35-1.53q-.54-5.67-.63-11.61t.32-12.15q.4-6.21.9-11.29t1.3-11.75a2.12,2.12,0,0,1,.45-1,1.5,1.5,0,0,1,1.62-1.35l6.39-.18A1.69,1.69,0,0,1,658.84,47.25Zm-3.33-21.51A9.68,9.68,0,0,1,661,29.43,7.54,7.54,0,0,1,662.35,35a7,7,0,0,1-3.19,4.86,7.59,7.59,0,0,1-6.44.63A9,9,0,0,1,648,37.17,8,8,0,0,1,646.24,32a6.58,6.58,0,0,1,2.3-5,7.83,7.83,0,0,1,6-1.67A1.55,1.55,0,0,1,655.51,25.74ZM655.42,78l.09-2.25a44,44,0,0,0-5.76,4.5v3.6Q651.19,82.17,655.42,78Zm-4-48.6a2.84,2.84,0,0,0-1.53,2.34Q650.56,30.78,651.37,29.43Zm4.14,41.31q.09-1.17.09-2.34a11.58,11.58,0,0,0-1.53,1.17q-.81.72-1.35,1.26l-1.44,1.44q-.9.9-1.26,1.35l-.18,2.61A58.2,58.2,0,0,1,655.51,70.74Zm0,4V72a68.43,68.43,0,0,0-5.67,5.58V79A64.79,64.79,0,0,1,655.51,74.7Zm-.18,7.65q.09-1.53.09-3.06a73.68,73.68,0,0,0-5.31,5.58.29.29,0,0,1-.27.18V87.3A45.78,45.78,0,0,1,655.33,82.35Zm-5-49.77-.45.54.09.09A5.88,5.88,0,0,1,650.38,32.58Zm4.86,53.73.09-2.79a37,37,0,0,0-5.4,5l.18,3.69q.54-.63,2.61-2.88A32.51,32.51,0,0,0,655.24,86.31Zm.36-19V64.44a46.82,46.82,0,0,0-5.4,4.86l-.18,3A34.29,34.29,0,0,1,655.6,67.32Zm-.36,22.5v-2L653.35,90q-2.43,2.61-3.15,3.6v.09h1.89A41,41,0,0,1,655.24,89.82Zm.09-60.39-.81-.18q-.45.54-1.8,1.89a12.56,12.56,0,0,0-2.25,3.15h-.09a4.4,4.4,0,0,1,.27.45A33.36,33.36,0,0,1,655.33,29.43Zm.27,33.93q0-1.26.09-2.61l-5.22,5q-.09,1.08-.09,2.16A33.87,33.87,0,0,1,655.6,63.36Zm-5-31a16.77,16.77,0,0,1,1.53-1.71q1.17-1.26,1.53-1.62h-.09a3.35,3.35,0,0,0-.81.09Q651.55,31,650.56,32.31Zm5.13,27.18V57.06q-1.26,1.17-4.86,4.86l-.18,2.43Zm0-3.69V53.91q-.54.63-1.26,1.35a15.28,15.28,0,0,1-1.08,1.17l-1.26,1.17a7.15,7.15,0,0,0-.9,1.08l-.18,1.8Q654.07,57.33,655.69,55.8Zm1.53-25.2q-.45-.36-1-.72a30.25,30.25,0,0,0-5,5.58,3.93,3.93,0,0,0,1.08.9,29.13,29.13,0,0,1,2.52-3Zm-1.53,21.87V50q-1.53,1.44-4.05,4.32l-.27,2.88,2.43-2.52Q655,53.37,655.69,52.47Zm-1.17-2.61-2.34.09-.36,2.7Q653.35,50.94,654.52,49.86Zm4.14-17.1a5.37,5.37,0,0,0-.81-1.53l-2.34,2.7L653,36.81a3.21,3.21,0,0,0,.81.27l1,.18,1.62-2.07,1.8-2.25A.61.61,0,0,1,658.66,32.76Zm-3.51,58.5-1.8,2.25,1.8-.18Zm3.6-57.6-1.62,2.07q-1.08,1.35-1.26,1.53a3,3,0,0,0,2.88-2.79A1.84,1.84,0,0,0,658.75,33.66Z"/><path class="cls-3" d="M665.68,46.53q12.6-5,20.34-4.41,11.7.9,15,13.5a25.85,25.85,0,0,1,.81,5.67q0,3-.41,7c-.27,2.67-.43,4.39-.49,5.17a225,225,0,0,1-2.34,25.74,1.58,1.58,0,0,1-1.71,1.44,1.89,1.89,0,0,1-1,.27,85.24,85.24,0,0,1-8.55-.27,1.68,1.68,0,0,1-1.17-.67,1.59,1.59,0,0,1-.36-1.22q-.18-1.89-.18-2.16-13.41,1.62-19.17-4.41a12.26,12.26,0,0,1-3.24-7,16.2,16.2,0,0,1,.81-7.79,24,24,0,0,1,5.22-8.55,21.53,21.53,0,0,1,8.59-5.67,15,15,0,0,1,10.58.27q-.45-7.29-3.87-8.28Q681,54.09,672,58.86a2.41,2.41,0,0,1-.9.18,1.78,1.78,0,0,1-1.71-.81,79.65,79.65,0,0,1-4.68-8.55,1.73,1.73,0,0,1-.18-1.08A1.68,1.68,0,0,1,665.68,46.53Zm1.17,38.7A109.87,109.87,0,0,1,676.93,67.5q-.45.18-.81.36a82.68,82.68,0,0,1-4.86,7.74q-3.33,5-4.59,7.29A15.37,15.37,0,0,0,666.85,85.23Zm.18-4.77q.9-1.62,3.51-5.4,2.88-4.14,4.05-6.21a19.15,19.15,0,0,0-7.11,9.72Q667.21,79.56,667,80.46Zm1.17,8.1a73.49,73.49,0,0,1,5.22-11.2,117.27,117.27,0,0,1,6.75-11q-.81.18-1.71.45a113.62,113.62,0,0,0-11.25,19.8A7.65,7.65,0,0,0,668.2,88.56Zm4-40.59-3.6,1.35,1.35,2.79Q671.26,49.5,672.16,48Zm4.23,27.72a13.22,13.22,0,0,1,1.35-2.07l2-3a15.78,15.78,0,0,0,2.34-4.59,1.7,1.7,0,0,0-.54.09,86,86,0,0,0-7.25,11.48,74.83,74.83,0,0,0-5.44,11.74l.27.27.18.18,4.14-8.55a10.05,10.05,0,0,1,1.17-3.33A9.29,9.29,0,0,1,676.39,75.69Zm-3.06,7.65-3.42,7.11,1.08.72q.27-.54.81-1.71t.63-1.44a22.68,22.68,0,0,1,1.62-2.7,1.13,1.13,0,0,1-.27-.45A11.39,11.39,0,0,1,673.33,83.34Zm1.53-36.18-1.35.45a35.91,35.91,0,0,0-3.06,5.49l1.08,1.8Q671.89,53.82,674.86,47.16Zm1,40.32a8.86,8.86,0,0,1-1.35-1.26,21.74,21.74,0,0,0-1.26,2.25c-.06.12-.27.59-.63,1.4s-.63,1.39-.81,1.75q.81.36,1.71.72ZM676,46.89q-.27.45-1.53,3.24l-1.89,4.32q1.35-.63,2.52-1.08l.54-1.26,1.17-2.79a33.08,33.08,0,0,1,1.71-3.06Q677.29,46.53,676,46.89Zm1.44,41.4q-.45-.18-.81-.36-.18.45-2.25,4.68a8.32,8.32,0,0,1,1,.27A27,27,0,0,1,677.47,88.29Zm2.7-42.3-.36.09a18.53,18.53,0,0,0-2.07,3.6l-1.26,2.79-.18.36.72-.27a.08.08,0,0,1,.09-.09Q678.37,50,680.17,46Zm-1.8,42.57A24,24,0,0,0,676.3,93a2.64,2.64,0,0,0,.63.09,12.94,12.94,0,0,1,1.26-1.89,9.51,9.51,0,0,1,2.07-2.25A9.58,9.58,0,0,1,678.37,88.56ZM686.74,77a6.73,6.73,0,0,0-5.31-.45,7.16,7.16,0,0,0-3.69,3.24,4.31,4.31,0,0,0-.63,3.78q.63,1.62,3.6,1.8a7.33,7.33,0,0,0,3-.36,9.15,9.15,0,0,0,2.61-1.71A38.28,38.28,0,0,0,686.74,77ZM681.43,89.1a8.06,8.06,0,0,0-2.52,2.61,13.36,13.36,0,0,0-1,1.53q1.08.09,2.16.09a42.24,42.24,0,0,1,1.8-4.41h-.27A.16.16,0,0,1,681.43,89.1Zm1.44-43.38a14.66,14.66,0,0,0-1.62.09q-1.8,4-3.06,6.39a8.32,8.32,0,0,1,1-.27,23,23,0,0,1,2.16-3.78Q682.42,46.53,682.87,45.72Zm1-.09a16.8,16.8,0,0,1-1.8,3,19.18,19.18,0,0,0-1.8,3.06q.9-.18,1.8-.27.72-.9,3.6-5.67A16.4,16.4,0,0,0,683.86,45.63Zm-.81,26.91a46.22,46.22,0,0,1,3.69-5.85,5.13,5.13,0,0,0-.9-.27,17.64,17.64,0,0,0-3.6,3.87q-.54.72-1.89,2.7l-.09.09A7.45,7.45,0,0,1,683.05,72.54Zm-2.25-1.89.72-.9a17.72,17.72,0,0,1,3.15-3.6,15.5,15.5,0,0,0-1.71-.09A14.69,14.69,0,0,1,680.8,70.65Zm3.33,18-1.26.18a39.05,39.05,0,0,0-1.8,4.5,11.6,11.6,0,0,0,1.44-.09A25.12,25.12,0,0,0,684.13,88.65Zm3.42-42.75a4.58,4.58,0,0,0-.9-.09q-3.33,5.4-3.42,5.58h.45Q683.86,51.21,687.55,45.9Zm-2.43,42.39a20.85,20.85,0,0,1-1.62,4.86h.18q1.35-2.7,3.15-5.76A15.89,15.89,0,0,1,685.12,88.29Zm.9-15.48a26.72,26.72,0,0,0,2.88-5.22,12.33,12.33,0,0,0-1.26-.63,37.93,37.93,0,0,0-3.51,5.58A7.18,7.18,0,0,1,686,72.81Zm3.6-26.28a3.81,3.81,0,0,0-1.08-.36q-.36.54-1.8,2.43l-2.07,2.88.9.18a.37.37,0,0,0,.27.09Q687.55,49.23,689.62,46.53ZM687.91,87.3q-1.8,3.06-3.15,5.76l1.53-.18a42.37,42.37,0,0,1,3-5.58q1.8-2.88,4.36-6.3t3.65-5l.09-2.7V72.9L689.8,84.33l-.18,1.44A1.62,1.62,0,0,1,687.91,87.3Zm2.61-40.5q-2.16,2.79-3.78,5.31a9.46,9.46,0,0,1,1.44.9,53,53,0,0,1,3.51-5.49Q691.15,47.16,690.52,46.8Zm-3.6,26.28.18.09q.54-.63,2.25-2.52L692,68l2.11-2.56c.87-1,1.64-2,2.3-2.93s1.26-1.8,1.8-2.7a14.56,14.56,0,0,0-.27-1.71,42.39,42.39,0,0,1-3.06,3.15,18.29,18.29,0,0,0-2.7,2.88v2.07a1.47,1.47,0,0,1-.27,1.08,1.57,1.57,0,0,1-2.16.81A32.64,32.64,0,0,1,686.92,73.08ZM697,80.73q.09-1.44.18-3.06l-3.33,4.5q-2.52,3.51-4,5.9a43.11,43.11,0,0,0-2.56,4.72,3.49,3.49,0,0,1,.45.18,2,2,0,0,1,.81.36l4.14-5.76A68.63,68.63,0,0,0,697,80.73Zm-9-7.2a3.52,3.52,0,0,1,.81.45,1.41,1.41,0,0,1,.36.27,2.4,2.4,0,0,1,.63.45q.27-.27,3.6-4.32a46.32,46.32,0,0,0,4.23-5.85.44.44,0,0,1,.54-.27,24.47,24.47,0,0,0,0-3,24.38,24.38,0,0,1-1.67,2.52c-.63.84-1.36,1.74-2.2,2.7l-2,2.25L690,71.37Q688.45,73.08,688,73.53Zm5.4-24.75a6.48,6.48,0,0,0-1-.81,46.87,46.87,0,0,0-3.6,5.67l.54.54Q692.41,50.31,693.4,48.78Zm3.42,34q-1.26,2.16-3.42,5.31l-4.32,5.94a1.6,1.6,0,0,1,.18.72v.9a63.18,63.18,0,0,0,7.47-11.16A15.5,15.5,0,0,0,696.82,82.8Zm-.54,7q.18-1.53.27-3.15a58.6,58.6,0,0,1-7.29,10.26l.09.27q.9.09,2.07.09A56.33,56.33,0,0,1,696.28,89.82Zm-1.44-39.33a12.66,12.66,0,0,0-.81-1.08q-.9,1.44-4.14,5.58l.63,1.08A29.2,29.2,0,0,1,694.84,50.49Zm-4.5,28.62q-.09,1.44-.27,3.15l3.33-5L697.54,71a6.06,6.06,0,0,1,.09-1Q694.21,74.61,690.34,79.11Zm-.09-3.42q.09.9.09,2,4-4.77,7.38-9.36a24.06,24.06,0,0,0,.27-2.79A41.8,41.8,0,0,1,694.12,71Q690.61,75.15,690.25,75.69ZM696,52.29a10.06,10.06,0,0,0-.63-1.08,28.88,28.88,0,0,0-4.5,5.85,6.38,6.38,0,0,1,.27.81Q694,54.72,696,52.29Zm.45.9q-2,2.43-5,5.67a13.41,13.41,0,0,1,.27,1.35l2.25-2.79a23.55,23.55,0,0,0,2.7-3.69Zm.63,1.62A23.77,23.77,0,0,1,694.66,58a33.77,33.77,0,0,0-2.79,3.6q.09.63.18,1.17.72-.81,2.16-2.16a40.19,40.19,0,0,0,3.51-3.69.8.8,0,0,1-.09-.36Q697.36,55.62,697.09,54.81Zm-1,36.72a54,54,0,0,0-3.69,5.76h2.88Q695.74,94.59,696.1,91.53Z"/><path class="cls-3" d="M760.72,67.77q-6.66-2-8.73-2.43-5.4-1-7.65.36a8.32,8.32,0,0,0-3.24,4,12.45,12.45,0,0,0-1,5.76,9.83,9.83,0,0,0,1.66,5.18,6.07,6.07,0,0,0,4.1,2.56q3.06.63,7.2-1.89a52.27,52.27,0,0,0,6.93-5.4l.09-.09a1.13,1.13,0,0,1,.45-.63,1.69,1.69,0,0,1,1.35-.45,1.75,1.75,0,0,1,1.17.63l4.86,6.12a2.29,2.29,0,0,1,.54.54,1.92,1.92,0,0,1,.22,1.35,1.8,1.8,0,0,1-.76,1.17q-1.35.9-5,3.78a55.62,55.62,0,0,1-5.31,4q-6.84,4.5-13.68,3.06a18.63,18.63,0,0,1-11.48-7.2,22.39,22.39,0,0,1-4.36-12.69,24.05,24.05,0,0,1,3.24-13.14,19.61,19.61,0,0,1,10.26-8.73q4.59-1.71,11.52-.9,1.08.09,5.58.81,3.24.45,5.13.54a1.53,1.53,0,0,1,1.21.59,2,2,0,0,1,.5,1.3v.27a2,2,0,0,1,.45,1.53,22.48,22.48,0,0,1-.54,2.61q-.36,1.35-1,3.15t-.81,2.25a1.9,1.9,0,0,1-.63.9,1.63,1.63,0,0,1-.86,1.08A1.61,1.61,0,0,1,760.72,67.77Zm-29.07,5a31.13,31.13,0,0,1,5.13-1.17,1.48,1.48,0,0,0,.09-.45l-1.26.18q-3.06.27-3.87.45A5.06,5.06,0,0,1,731.65,72.72Zm0,1.89a25.13,25.13,0,0,1,4.86-1.71h.09v-.45a39.47,39.47,0,0,0-5,1.26Zm.18,2.7a35.34,35.34,0,0,1,4.68-1.62V73.8a28.23,28.23,0,0,0-4.86,1.8A7.87,7.87,0,0,0,731.83,77.31Zm.36-7.83a9,9,0,0,0-.27,1.35,29.4,29.4,0,0,1,3.6-.45,9,9,0,0,0,1.62-.27L737.5,69q-1.17.18-3,.27a3.7,3.7,0,0,1-1,.14C732.92,69.47,732.49,69.48,732.19,69.48Zm0,9.9q.81-.45,2.07-1.08,2-1,2.43-1.17a1.7,1.7,0,0,1-.09-.54,35.34,35.34,0,0,0-4.68,1.62A10.67,10.67,0,0,1,732.19,79.38Zm.27-10.8a4.48,4.48,0,0,1,1-.09,4.58,4.58,0,0,0,1-.09,20.83,20.83,0,0,0,3.33-.36,5.88,5.88,0,0,0,.36-.63,16.11,16.11,0,0,0-5.67.9Zm.45,13a31.47,31.47,0,0,0,4.23-2.25,9.44,9.44,0,0,1-.27-1.26l-2.25,1.08-2.16,1.17A10.57,10.57,0,0,0,732.91,81.54Zm0-14.31a18.73,18.73,0,0,1,5.76-.72,9.48,9.48,0,0,1,.54-.81,27.28,27.28,0,0,0-5.31-.81A21.1,21.1,0,0,0,732.91,67.23Zm1.17,16.83a17.23,17.23,0,0,1,2-1.44L738,81.18a5,5,0,0,1-.45-1,40.93,40.93,0,0,1-4.23,2.25Q733.63,83.25,734.08,84.06ZM734.44,64a36,36,0,0,1,5.4.9l.18-.18a48.56,48.56,0,0,0-4.86-1.89Q734.8,63.45,734.44,64Zm.72,21.78,3.51-3.33a1.13,1.13,0,0,1-.27-.45l-1.8,1.35a20.72,20.72,0,0,0-2.07,1.53A8.19,8.19,0,0,1,735.16,85.77Zm4.14-22.32-1.08-.9a17.24,17.24,0,0,0-1.71-1.26,9.82,9.82,0,0,0-.72.81Q737.68,62.73,739.3,63.45Zm-3.51,23,1.08,1.26q1.26-1.89,2.88-3.87l-.54-.72Zm1.35-25.83,1.62,1.17,2.34,1.8.18-.18a26.2,26.2,0,0,1-3.42-3.51A4.07,4.07,0,0,0,737.14,60.66Zm1,28.17a41.45,41.45,0,0,0,3.15-3.69l-.81-.63a35.19,35.19,0,0,0-2.88,3.78Zm.45-29.52a21.38,21.38,0,0,0,3.51,3.6,1.13,1.13,0,0,1,.45-.27,3.52,3.52,0,0,1,.81-.45l-.72-1Q741,59,740.47,58.05Zm1.8,31A17.34,17.34,0,0,0,742.72,86l-.72-.36a35,35,0,0,1-3.15,3.78Q739.57,89.82,740.38,90.27Zm.81-32.58,2.16,3,.81,1.26a.37.37,0,0,1,.27-.09,11.67,11.67,0,0,1-1.53-4.95l-.09.09A9.57,9.57,0,0,0,741.19,57.69Zm1.62,33.57q.27-.63,1.35-4.77l-.63-.18a17.34,17.34,0,0,1-2.34,4.32Q742,91,742.81,91.26Zm2.43.63.9-5a6.06,6.06,0,0,1-1-.09l-.09-.09q-1.08,4-1.35,4.86l.9.18ZM743.8,56.61v.09a10.08,10.08,0,0,0,1.53,4.86,3.35,3.35,0,0,1,.81-.09,23.36,23.36,0,0,1-.18-3.33,15.52,15.52,0,0,0-.09-2A21,21,0,0,0,743.8,56.61ZM747,92.07a17.58,17.58,0,0,0,.9-5.22,4.58,4.58,0,0,1-.9.09l-.9,5A4.58,4.58,0,0,0,747,92.07Zm-.27-36a15.52,15.52,0,0,1,.09,2,22.24,22.24,0,0,0,.18,3.33h1.26q0-3.69-.09-5.4A11.6,11.6,0,0,0,746.77,56.07ZM749,92q-.09-1.17-.09-3.33V86.76a22.77,22.77,0,0,1-.9,5.31A6.06,6.06,0,0,1,749,92Zm.09-36q.09,1.71.09,5.4a6.06,6.06,0,0,1,1,.09,17.56,17.56,0,0,1,.36-2.43q.36-1.89.45-3Q750,56,749.11,56Zm.72,32.22v.45q0,2.07.09,3.15l.63-.18Q750.1,89.82,749.83,88.2Zm2.43,2.88q-.09-.9-.45-3.33-.09-1.08-.18-1.8a4,4,0,0,1-1,.36,26.81,26.81,0,0,0,.72,5A5.13,5.13,0,0,0,752.26,91.08Zm-.72-32.4.36-.81q.36-1.08.54-1.71h-.54Q751.81,57.15,751.54,58.68Zm1.8-2.43a17.16,17.16,0,0,1-.63,1.89,22.23,22.23,0,0,0-1.08,3.51l.81.18a17.46,17.46,0,0,1,.72-2.79l.81-2.7Zm.72,33.93q-1-3.51-1.17-4.68l-.36.09q.09.81.18,2,.36,2.25.45,3.15Zm.81-33.66c-.12.36-.29.89-.5,1.58s-.34,1.09-.4,1.21a27.12,27.12,0,0,0-.63,2.7l.72.09q.63-1.71,2.25-5.4ZM754.33,88q-.09-1.62-.27-3.15l-.36.18Q753.88,86.22,754.33,88Zm2.34.54c-.12-.42-.35-1.12-.68-2.11s-.55-1.76-.67-2.3l-.36.18h-.09a47.93,47.93,0,0,1,.45,5.13l.27-.18Zm.63-31.68A49.23,49.23,0,0,0,755,62.37l.27.09q1.62-3,2.7-5.49Zm1.17,30.33-.18-.18c-.06-.18-.3-.73-.72-1.66s-.72-1.64-.9-2.12l-.63.36a20,20,0,0,0,.72,2.3c.36,1,.6,1.66.72,2Zm.36-30.15a58.27,58.27,0,0,1-2.7,5.58l.72.18a49.28,49.28,0,0,0,3.24-5.58Zm1.53,28.62-2-3.69-1,.72q.27.72,1,2.25a10.27,10.27,0,0,1,.72,1.71Zm.72-28.26a57.75,57.75,0,0,1-3.33,5.67l.63.18q2.7-4.41,3.42-5.85Zm1.08,26.82q-1.08-1.8-2.34-3.51l-.72.63,2,3.78Zm-2.88-20.7,1.08.36Q761.89,59.4,762,59,761.44,60,759.28,63.54Zm3.6,20.07,1.35-1-2.61-3.33-1.08.9A34.35,34.35,0,0,1,762.88,83.61Z"/><path class="cls-3" d="M793.57,41.22a1.57,1.57,0,0,1,1.17-.45q12.59,0,19.44,8.37,6,7.47,5.49,18.36a32.87,32.87,0,0,1-2.07,9.81,33.94,33.94,0,0,1-4.91,8.78,24.62,24.62,0,0,1-7.83,6.57,25.78,25.78,0,0,1-10.39,3,26.42,26.42,0,0,1-11.66-1.62,20.71,20.71,0,0,1-8.5-5.94,27.91,27.91,0,0,1-4.95-8.73,28.19,28.19,0,0,1-1.62-10.08,29.56,29.56,0,0,1,1.66-9.81,30.16,30.16,0,0,1,4.77-8.73,23.87,23.87,0,0,1,8.15-6.52A29.15,29.15,0,0,1,793.57,41.22ZM771.34,70.65a30.29,30.29,0,0,0,6.3-1q.08-.81.18-1.71a45.28,45.28,0,0,0-6.48.54v2.16Zm.09-3.06a45.63,45.63,0,0,1,6.57-.54,11.22,11.22,0,0,1,.54-2l-2.34.09a34.87,34.87,0,0,1-4.5-.09C771.58,65.91,771.48,66.75,771.43,67.59Zm.36,7.29,5.94-2.25a18.74,18.74,0,0,1-.09-2,35.5,35.5,0,0,1-6.21.9A27.58,27.58,0,0,0,771.79,74.88Zm.09-10.71a30.83,30.83,0,0,0,4.23.09c.36,0,.85,0,1.48,0l1.22,0,.27-.45a5.26,5.26,0,0,1,.54-1.26c-.79-.12-1.83-.24-3.15-.36-2-.24-3.31-.42-4-.54Q772.15,62.91,771.88,64.17Zm.63,13.5,2.61-1.53q1.8-1.08,2.88-1.8c-.06-.3-.13-.57-.18-.81L772,75.78Zm.27-16.92q.88.09,3.78.45a28.64,28.64,0,0,1,3.42.45l.72-1.08a37.26,37.26,0,0,0-7.65-.63A6.38,6.38,0,0,1,772.78,60.75Zm.9,19.89c2.75-2,4.5-3.18,5.22-3.6a10.57,10.57,0,0,1-.45-1.26l-.18-.54q-1.08.72-2.7,1.71l-2.79,1.62ZM773.41,59a34.38,34.38,0,0,1,7.83.72l.36-.54a27.17,27.17,0,0,1-7.29-2.07Zm1.89,24.39a13.3,13.3,0,0,1,2.43-2.52q.9-.81,2.34-1.89c-.24-.36-.49-.75-.72-1.17-.67.36-2.43,1.56-5.31,3.6A10.58,10.58,0,0,0,775.3,83.43Zm-.54-27a33.43,33.43,0,0,0,7.47,2,8.22,8.22,0,0,1,.81-.9c-.72-.3-1.75-.78-3.06-1.44a36.56,36.56,0,0,0-3.87-1.8A16.47,16.47,0,0,0,774.76,56.43ZM777.28,86a19.59,19.59,0,0,1,2.07-3c1.13-1.38,1.8-2.22,2-2.52a3.83,3.83,0,0,1-.63-.81q-1.55,1.08-2.43,1.8a13.64,13.64,0,0,0-2.43,2.7A21.4,21.4,0,0,0,777.28,86Zm-.63-32.49a33.06,33.06,0,0,1,3.69,1.71c1.49.72,2.64,1.23,3.42,1.53a6.76,6.76,0,0,1,.72-.63l-2.25-2.34A15.6,15.6,0,0,0,778.9,51,17.2,17.2,0,0,0,776.65,53.55Zm2.43,34.11a17.24,17.24,0,0,1,2.16-3.6l1.62-2.16a8.42,8.42,0,0,1-.81-.72l-2,2.43A11.88,11.88,0,0,0,778,86.76Zm.54-37.26a17.93,17.93,0,0,1,3.24,2.79l2.34,2.34.54-.27c-.36-.6-.94-1.41-1.71-2.43q-1.8-2.61-2.52-3.87A13.1,13.1,0,0,0,779.62,50.4Zm2,39.06a30.39,30.39,0,0,1,2.16-4.41c.48-.78.83-1.41,1.08-1.89-.43-.24-.81-.48-1.17-.72L782,84.6a14.73,14.73,0,0,0-2.16,3.69A12.69,12.69,0,0,0,781.6,89.46Zm13.95-32.85a9.6,9.6,0,0,0-7.79,1.58,15.07,15.07,0,0,0-5.35,6.88,13,13,0,0,0-.63,9.54c1.13,3.12,3.54,5.22,7.2,6.3a10.06,10.06,0,0,0,8.91-1.44,14.63,14.63,0,0,0,5.4-7.92,13.32,13.32,0,0,0-.18-9.18,8.15,8.15,0,0,0-6.39-4.95A1.94,1.94,0,0,1,795.55,56.61Zm-13.32-8.19q.71,1.26,2.52,3.87c.77,1,1.35,1.83,1.71,2.43l1.08-.54-1.71-3.24q-1.08-2.16-1.89-3.51Zm2.07,42.3a72,72,0,0,1,2.79-6.66l-1.44-.54c-.24.54-.61,1.23-1.08,2.07a23.91,23.91,0,0,0-2.16,4.23l-.09.09C783,90.21,783.63,90.48,784.3,90.72Zm.45-43.65a37.86,37.86,0,0,1,1.89,3.42l1.71,3.33.9-.36a.08.08,0,0,0-.09-.09A27.91,27.91,0,0,1,788,49.14l-.81-3.06Q785.91,46.53,784.75,47.07Zm2.61,44.55c.18-.78.5-1.89,1-3.33q.72-2.43,1-3.6l-1.26-.36H788a69.41,69.41,0,0,0-2.88,6.75A13.68,13.68,0,0,0,787.36,91.62ZM788,45.81c.23.72.51,1.77.81,3.15a30.85,30.85,0,0,0,1.26,4v.18L791,53q0-5.4-.27-7.83Q789.34,45.45,788,45.81Zm1.8,46.26q0-.27.36-3.42a15,15,0,0,1,.81-3.78,2.84,2.84,0,0,1-.72-.09l-1.08,3.78q-.74,2.52-.9,3.24A11.58,11.58,0,0,0,789.79,92.07Zm2.52.09q.08-1.26.81-7.29A7.22,7.22,0,0,1,792,85a10.81,10.81,0,0,0-.9,3.78q-.36,3.15-.36,3.33A14.66,14.66,0,0,0,792.31,92.16Zm-.72-47.07q.27,2.43.27,7.74a8.79,8.79,0,0,1,1.26-.09,22.9,22.9,0,0,0,.27-3.87v-4A18.17,18.17,0,0,0,791.59,45.09Zm4.32,46.8c-.12-.6-.4-1.71-.81-3.33s-.69-2.88-1-3.78H794V85c-.48,4.08-.76,6.48-.81,7.2a6.56,6.56,0,0,1,1.08-.09Zm.54-47.16h-.36a17.93,17.93,0,0,0-1.8.09v4a22.9,22.9,0,0,1-.27,3.87l1.44.18a29.24,29.24,0,0,0,.54-4Q796.35,45.09,796.45,44.73Zm2.79,46.44q-.81-2.07-2.43-7.11a10.8,10.8,0,0,1-1.8.54q.36,1.44,1,3.69.62,2.52.81,3.42A16.16,16.16,0,0,0,799.24,91.17Zm-.09-46.44a14.59,14.59,0,0,0-1.8-.27c-.06.42-.22,1.95-.45,4.59a29.24,29.24,0,0,1-.54,4,4.89,4.89,0,0,0,.9.27A72,72,0,0,1,799.15,44.73ZM802,90.09a23.45,23.45,0,0,1-3.24-6.93l-1.08.54q1.62,5.22,2.43,7.11A16.28,16.28,0,0,0,802,90.09Zm-.45-44.91-1.53-.36a62.42,62.42,0,0,0-1.89,8.73,4.4,4.4,0,0,0,.63.27L799.6,51c.3-1,.65-2,1.08-3.15S801.4,45.84,801.58,45.18Zm2.88,1-2-.72-1.26,3.6q-1.17,3.42-1.62,5.13l.27.09a1.88,1.88,0,0,1,.63.54L801,55c.23-.6.84-1.89,1.8-3.87A20.63,20.63,0,0,0,804.46,46.17Zm-.27,42.66c0-.12-.76-1.38-2.25-3.78A13,13,0,0,1,800.5,82a9.27,9.27,0,0,1-.9.63,24.12,24.12,0,0,0,3.24,7A10.05,10.05,0,0,0,804.19,88.83ZM807,86.76a77.58,77.58,0,0,0-4.86-6.12c-.25.24-.51.48-.81.72a8.59,8.59,0,0,0,1.44,3.24q2.16,3.6,2.25,3.69A15.32,15.32,0,0,0,807,86.76Zm-.36-39.42a5.84,5.84,0,0,0-1.35-.72,18.37,18.37,0,0,1-1.76,4.86,36.18,36.18,0,0,0-1.75,4,8.13,8.13,0,0,0,.81.54A43.17,43.17,0,0,0,806.62,47.34Zm2.79,37a22.62,22.62,0,0,1-5.76-5.58,10.19,10.19,0,0,1-1,1.17,73.07,73.07,0,0,1,5,6.21A17.3,17.3,0,0,0,809.41,84.33Zm-.81-35.64c-.36-.3-.76-.6-1.17-.9a49.73,49.73,0,0,1-4.14,8.82,3.58,3.58,0,0,0,.54.45Zm2,34.11c-.67-.48-2.76-2.16-6.3-5l-.09.27a.08.08,0,0,1,.09.09A23.7,23.7,0,0,0,810,83.7Zm.63-31.59a19.8,19.8,0,0,0-1.89-2l-4.86,8.55a5.87,5.87,0,0,1,.54.63A68.44,68.44,0,0,1,811.21,51.21Zm-.09,30.87a22.43,22.43,0,0,0,1.62-2.7,63.64,63.64,0,0,0-7.38-3.33q-.27.54-.54,1Q810.22,81.54,811.12,82.08Zm1.71-28.53a8.46,8.46,0,0,0-1.08-1.62,82.71,82.71,0,0,0-6.21,7.29q1.25-.81,3.33-2.43C811,55,812.29,53.91,812.83,53.55Zm.36,25,.9-2.16a22.94,22.94,0,0,0-4.23-.9,24.86,24.86,0,0,1-3.87-.9q-.11.27-.27.63A68.78,68.78,0,0,1,813.19,78.57Zm1.89-20.07c-.25-.78-.51-1.53-.81-2.25l-1.89,1c-1.32.84-2.11,1.32-2.34,1.44a14.63,14.63,0,0,1-4,1.62l.54,1.08A88.65,88.65,0,0,1,815.08,58.5Zm-.63,17.1.54-1.89c-4.63-1.26-7.29-1.95-8-2.07-.07.3-.15.63-.27,1l-.36,1.08a13.93,13.93,0,0,0,3.6.9A27.27,27.27,0,0,1,814.45,75.6Zm1.08-15.21a6.46,6.46,0,0,0-.27-1,66.52,66.52,0,0,0-8.37,2.88l.18.72c.72-.24,2.18-.63,4.41-1.17A23.54,23.54,0,0,0,815.53,60.39Zm-.27,12.42c.18-.72.32-1.44.45-2.16q-6.21-.45-8.46-.45a3.28,3.28,0,0,1-.09.63A72.06,72.06,0,0,1,815.26,72.81Zm.72-9.72c-.07-.6-.15-1.2-.27-1.8a23.23,23.23,0,0,1-4.05,1.35q-3.33.9-4.41,1.26c0,.3.12.57.18.81A44.11,44.11,0,0,0,816,63.09Zm-.18,6.66a13.8,13.8,0,0,0,.18-2.07,65.31,65.31,0,0,1-8.46.45,8.43,8.43,0,0,1-.09,1.17Q809.67,69.3,815.8,69.75ZM816,64a40,40,0,0,1-8.46,1.62,7.31,7.31,0,0,1,0,1.62,66.18,66.18,0,0,0,8.55-.45Q816.07,65.34,816,64Zm-8.28-5.13q.81-.36,1.89-.9.36-.27,2.34-1.44a16.69,16.69,0,0,1,2-1.08,8.13,8.13,0,0,0-.63-1.17q-.74.54-3.87,3.15C808.75,58,808.17,58.5,807.7,58.86Z"/><path class="cls-3" d="M822.82,40.32q6.1,0,7.83-.18a1.4,1.4,0,0,1,1,.18h.28a2,2,0,0,1,1.3.5,1.52,1.52,0,0,1,.58,1.21l.09,1.08a19.85,19.85,0,0,1,9.91-2.25,15,15,0,0,1,7.65,1.94,15.55,15.55,0,0,1,5.44,5.35,31.84,31.84,0,0,1,3.33,7.34,52.72,52.72,0,0,1,1.84,8.59,106.77,106.77,0,0,1,.54,17.28,86.19,86.19,0,0,1-1.8,14,1.69,1.69,0,0,1,.28,1.17,1.91,1.91,0,0,1-.68,1.22,1.64,1.64,0,0,1-1.31.4c-3.24-.3-6.47-.45-9.71-.45a1.69,1.69,0,0,1-1.26-.54,1.73,1.73,0,0,1-.54-1.26,1.58,1.58,0,0,1,.44-1.17q0-2,.19-8.1t.17-9.72q0-12.06-1.53-16.92a7.29,7.29,0,0,0-3.77-4.68c-1.75-.72-3.42-.27-5,1.35q-5.24,5.22-4.15,18.72.18,2.52.82,7.11c.41,3.12.73,5.87.94,8.24a32.74,32.74,0,0,1,.05,6.16,1,1,0,0,1-.1.45,2,2,0,0,1-.31,1.4,1.88,1.88,0,0,1-1.12.76,47.43,47.43,0,0,1-8.11.72,1.73,1.73,0,0,1-1.21-.45,1.77,1.77,0,0,1-.59-1.08l-.17-.54a74.71,74.71,0,0,1-2.57-13.81q-.76-7.69-.76-13.14T821,56.79q.29-9,.28-13a1.68,1.68,0,0,1,.08-.54,1.68,1.68,0,0,1-.36-1.08,1.77,1.77,0,0,1,.54-1.26A1.73,1.73,0,0,1,822.82,40.32Zm7.29,27.81q.07-.72.18-1.35-1.27.27-3.42.54l-2.53.36v1.44q1-.18,2.7-.45Zm0,1.89V69l-3,.54q-1.8.27-2.79.45V71.1q.9-.09,2.61-.45A20.2,20.2,0,0,1,830.11,70Zm0,2.34V70.92l-3,.54q-1.8.45-2.79.63a6.57,6.57,0,0,1,.1,1.08,16.86,16.86,0,0,0,2.69-.27Zm.54-9.9a15.2,15.2,0,0,0-3.15.18,9.83,9.83,0,0,0-1.49.18,10.07,10.07,0,0,1-1.57.18v1.17q4.39-.09,6.11,0l.19-.9A5.13,5.13,0,0,0,830.65,62.46Zm-.28,3.33a3,3,0,0,1,.09-.72c-1.14-.06-3.14-.06-6,0v1.71l2.34-.36A23.9,23.9,0,0,0,830.37,65.79Zm-.08,9a11.8,11.8,0,0,1-.09-1.53,9.43,9.43,0,0,1-1,.14,8.09,8.09,0,0,0-1.08.18,4.4,4.4,0,0,1-.94.13,13.23,13.23,0,0,1-2.79.36V75c.65,0,1.63,0,2.92-.09S829.62,74.79,830.29,74.79Zm.08,1.89a7.3,7.3,0,0,0-.08-1c-.67,0-1.64,0-2.93.09s-2.27.09-2.92.09a7.87,7.87,0,0,1,.09,1.08c.72,0,1.72,0,3-.09S829.77,76.74,830.37,76.68Zm0-17.73q-2.79-.18-5.84-.09v.81c.72-.06,1.73-.1,3.05-.13s2.25-.08,2.79-.14Zm.18,2.52a8.43,8.43,0,0,1-.09-1.17h-.09c-.6.06-1.56.11-2.87.14s-2.32.07-3,.13V62.1a8.4,8.4,0,0,0,1.39-.18,8.4,8.4,0,0,1,1.49-.18A22.75,22.75,0,0,1,830.55,61.47Zm.19,18c-.13-.66-.22-1.29-.28-1.89q-.9.09-2.88.18c-1.32.06-2.33.09-3.05.09l.17,1.8C826.38,79.53,828.4,79.47,830.74,79.47Zm-.28-23a64,64,0,0,1,.63-6.57,19.82,19.82,0,0,1-6.3.54v1.08q1.62-.27,5.5-.54a.45.45,0,0,1,0,.9,39.74,39.74,0,0,0-5.5.63l-.09,1.35c.55.06,2.34.09,5.41.09a.45.45,0,0,1,0,.9c-3.07,0-4.86,0-5.41-.09l-.08,1.71Zm-.09,1.62v-.72h-5.75V58C826.65,57.9,828.58,57.93,830.37,58.05ZM831,82.17l-.17-1.8c-2.34,0-4.39.06-6.13.18q.09.81.18,1.71A58.47,58.47,0,0,1,831,82.17Zm.19-33.3.18-1.26a3.14,3.14,0,0,1-.54-.45,17.24,17.24,0,0,1-6,.36q0,1-.09,2C828,49.56,830.16,49.35,831.19,48.87Zm-.9-4.23v-.81c-1.26.06-3.06.09-5.41.09v1A22.39,22.39,0,0,0,830.29,44.64Zm0,.9a22.76,22.76,0,0,1-5.41.27v.81a15.83,15.83,0,0,0,5.49-.27,1,1,0,0,1-.08-.45v-.36Zm1.08,39.15-.18-1.53a50.85,50.85,0,0,0-6.21,0,7.63,7.63,0,0,0,.09,1.26A57.47,57.47,0,0,0,831.37,84.69Zm.26,2.61-.18-1.71a57.39,57.39,0,0,1-6.29-.27c.11.66.2,1.32.26,2Q827.22,87.39,831.63,87.3Zm.28,2.43c0-.48,0-1-.09-1.53q-4.52.09-6.21,0a12.76,12.76,0,0,0,.26,1.71c.78,0,1.94,0,3.47-.09Zm.26,2.79L832,90.63c-.31,0-1.17,0-2.62.09s-2.58.09-3.42.09c.12.54.24,1.11.37,1.71Q828.3,92.61,832.17,92.52Zm0,.9H826.5l.37,1.26c3-.12,4.76-.21,5.3-.27Zm0,1.89q-1,.09-5.13.27l.28,1.08a44.17,44.17,0,0,0,4.76-.45A4.58,4.58,0,0,0,832.17,95.31Zm-.89-38.07c0,1.32,0,2.58.09,3.78a15.54,15.54,0,0,1,1.62-3.6h-.09a.39.39,0,0,1-.45-.45c0-.78,0-2.23.17-4.36a45.74,45.74,0,0,0,.09-4.91.22.22,0,0,1-.17-.09.78.78,0,0,1-.28.09,77.49,77.49,0,0,0-.89,8.82.37.37,0,0,1,.17.36A.35.35,0,0,1,831.28,57.24Zm2.34-9.72q.07,1.8-.09,5.13c-.13,2.22-.19,3.6-.19,4.14a11,11,0,0,1,.82-1.08V47.25l-.18.09A.56.56,0,0,1,833.62,47.52Zm3-1.71a7.62,7.62,0,0,0-1.53.81v8l.45-.45a9.62,9.62,0,0,1,.91-.81c0-.54,0-1.41.13-2.61s.13-2,.13-2.52S836.64,47,836.58,45.81Zm1.8-.72a4.79,4.79,0,0,0-.89.27,63.75,63.75,0,0,1-.09,7.29l.89-.54c0-.42,0-1,.05-1.89s0-1.44,0-1.8Zm2.44-.45-1.53.18q.08,1.53,0,3.69c0,.36,0,.9,0,1.62s0,1.26,0,1.62a9.71,9.71,0,0,1,1.17-.27A45.9,45.9,0,0,1,840.82,44.64Zm2.79-.18a17.42,17.42,0,0,0-1.9.09,47.28,47.28,0,0,0-.45,6.84,3,3,0,0,1,.73.09c.11-.66.38-1.8.8-3.42A29.89,29.89,0,0,0,843.61,44.46Zm3.33.45a11.06,11.06,0,0,0-2.44-.45,29.46,29.46,0,0,1-.8,3.87c-.43,1.56-.7,2.64-.82,3.24a16.31,16.31,0,0,1,1.62.45l.09.09a37.26,37.26,0,0,1,1.27-3.87C846.4,46.68,846.75,45.57,846.94,44.91Zm3.68,1.71a13.44,13.44,0,0,0-2.79-1.44c-.17.66-.57,1.77-1.17,3.33a29.12,29.12,0,0,0-1.16,4.05l.45.27Q847,51.66,850.62,46.62Zm2.17,2.07a17.82,17.82,0,0,0-1.45-1.44q-3.51,4.86-4.68,6.12l.18.18Q850.17,50.67,852.79,48.69Zm1.88,2.79a14.5,14.5,0,0,0-1.34-2.07q-2.62,2-5.85,4.77l.53.54A43.42,43.42,0,0,1,854.67,51.48ZM856,54.27c-.31-.72-.63-1.41-1-2.07a47.32,47.32,0,0,0-6.49,3.24,8.91,8.91,0,0,1,.82,1.44A49,49,0,0,0,856,54.27Zm1.08,3.42c-.25-.9-.52-1.74-.82-2.52a46.78,46.78,0,0,1-6.47,2.52,10.49,10.49,0,0,1,.44,1.26l.1.27A28.19,28.19,0,0,1,857.11,57.69Zm.72,2.79c-.13-.66-.28-1.29-.46-1.89a28.4,28.4,0,0,0-6.75,1.53,8.76,8.76,0,0,1,.28,1.44,16.48,16.48,0,0,1,3.33-.36,8.94,8.94,0,0,0,3.42-.63A.23.23,0,0,1,857.83,60.48Zm.54,2.79L858,61.38a9.23,9.23,0,0,1-3.68.72,9.8,9.8,0,0,0-3.24.36,13.53,13.53,0,0,1,.26,1.53c.84-.06,2.37-.21,4.6-.45Q857.37,63.36,858.37,63.27Zm.08.9-2.42.27q-3.35.36-4.59.45l.18,1.89c4,0,6.35,0,7.2-.09-.13-.72-.22-1.44-.28-2.16ZM857.83,92l-6.13-1a8.22,8.22,0,0,0-.08,1.17h3a12.17,12.17,0,0,1,3.07.18Zm-.28,1.17a22.7,22.7,0,0,0-2.88-.09h-3v1.08q2.86.09,5.67.27A6.64,6.64,0,0,0,857.55,93.15ZM859,68.67a5.63,5.63,0,0,1-.09-1.08q-1.45.09-7.21.09a6.06,6.06,0,0,0,.09,1l4.69-.09C857.43,68.58,858.28,68.61,859,68.67Zm-.72,20.16q-.46-.09-3.42-.36a10,10,0,0,1-3.07-.54l-.09,2.16,6.21,1Zm.8-18.45a4,4,0,0,0-.08-.81c-.72-.06-1.57-.09-2.52-.09l-4.69.09a14.66,14.66,0,0,1,.09,1.62Q855.93,70.56,859.08,70.38Zm-.35,15q-3.08,0-6.94-.27V87a10.33,10.33,0,0,0,3.16.54c2,.18,3.14.3,3.5.36C858.51,87.09,858.6,86.25,858.73,85.41Zm.44-11.79q0-1.17-.09-2.34-3.15.18-7.2.81v.72q1.17.18,3.78.36Q857.91,73.44,859.17,73.62Zm0,5.31H852c0,.66,0,1.35-.1,2.07l2.93.09c1.65.06,2.89.12,3.73.18a.4.4,0,0,1,.46.45ZM859,81.81a.44.44,0,0,1-.46.36c-.89-.06-2.16-.12-3.78-.18l-2.88-.09v2.34q3.87.27,6.94.27Zm.17-7.29c-.84-.12-2-.27-3.59-.45s-2.88-.24-3.6-.36v1.53a65.7,65.7,0,0,0,7.19.27Zm0,3.51V76.41a65.7,65.7,0,0,1-7.19-.27V78Z"/><ellipse class="cls-4" cx="998.07" cy="78.14" rx="30" ry="70.74"/><ellipse class="cls-4" cx="997.26" cy="78.37" rx="29.51" ry="71.89" transform="translate(373.27 860.23) rotate(-55.9)"/><ellipse class="cls-4" cx="997.36" cy="78.32" rx="71.89" ry="29.51" transform="translate(127.57 572.62) rotate(-34.1)"/><ellipse class="cls-5" cx="1058.71" cy="56.8" rx="12.88" ry="12.58"/><ellipse class="cls-6" cx="934.47" cy="49.57" rx="12.88" ry="12.58"/><ellipse class="cls-7" cx="1000.42" cy="149.83" rx="12.88" ry="12.58"/><ellipse class="cls-8" cx="996.2" cy="64.41" rx="13.89" ry="3.29"/><line class="cls-8" x1="1009.97" y1="63.56" x2="1009.97" y2="91.9"/><line class="cls-8" x1="982.31" y1="93.02" x2="982.31" y2="64.79"/><path class="cls-8" d="M1010,80.42c0,1.82-6.22,3.29-13.89,3.29s-13.89-1.47-13.89-3.29"/><path class="cls-8" d="M1009.91,71.62c0,1.81-6.22,3.28-13.88,3.28s-13.89-1.47-13.89-3.28"/><path class="cls-8" d="M1010,91.62c0,1.82-6.22,3.29-13.89,3.29s-13.89-1.47-13.89-3.29"/><path class="cls-9" d="M1085.36,177.33h0c-3.12,3.73-8,4.81-10.82,2.42l-65.07-62.33c-2.85-2.39.46,3,3.59-.76l1.08,3.7c-10-6-.56-5.14,2.29-2.75l69.43,48.64C1088.72,168.64,1088.49,173.6,1085.36,177.33Z"/><path class="cls-10" d="M755.6,162.85q-.08,7.53-4.85,11.56-3.82,3.21-10.44,4a43.52,43.52,0,0,1-10.43-.09,40.23,40.23,0,0,1-4.73-.8l.21-31.2a45.51,45.51,0,0,1,13.95-1.23q11,.53,14.73,9.2a18.38,18.38,0,0,1,1,3.17,20,20,0,0,1,.45,2.75A13.63,13.63,0,0,1,755.6,162.85Zm-10.9-.16a6.76,6.76,0,0,0-.16-3,4.63,4.63,0,0,0-1.27-2.18,5,5,0,0,0-3-1.22,11.56,11.56,0,0,0-4.11.26l-.68,10.88a9.83,9.83,0,0,0,4.16.29,5.87,5.87,0,0,0,3.09-1.29A6,6,0,0,0,744.7,162.69Z"/><path class="cls-10" d="M763.86,180.48l-11.52-3.82,16.93-33.27,19.26,31.76-8.69,5.63-2.78-5.32-11.23-.27ZM773.14,168l-2.72-5.17-1.83,5Z"/><path class="cls-10" d="M783.29,146.23l27.8-1.39.35,9.26-9.47.58.66,24.07-11.19.43-.12-23.85-7.66.47Z"/><path class="cls-10" d="M827.47,179.84a17.49,17.49,0,0,1-6.73-1.91,16,16,0,0,1-5.06-4.09,15.28,15.28,0,0,1-3-5.72,15.52,15.52,0,0,1-.33-6.72,16.91,16.91,0,0,1,2.5-6.5A19.68,19.68,0,0,1,833,145.82a17.37,17.37,0,0,1,6.74,1.91,15.84,15.84,0,0,1,5.08,4.08,15.53,15.53,0,0,1,3.28,12.44,17.41,17.41,0,0,1-2.48,6.51,19.62,19.62,0,0,1-4.73,5.11A19.11,19.11,0,0,1,827.47,179.84Zm-4.16-17.44a6,6,0,0,0,1.29,4.94,6.64,6.64,0,0,0,4.71,2.38,7.58,7.58,0,0,0,5.35-1.58,7,7,0,0,0,2.87-4.61,5.92,5.92,0,0,0-1.33-4.94,6.39,6.39,0,0,0-4.68-2.38,7.64,7.64,0,0,0-5.36,1.58A7.12,7.12,0,0,0,823.31,162.4Z"/><path class="cls-10" d="M868.61,145.87,866,153.35q-4-1.36-5.24.38c-1.06,1.49-.16,3.26,2.72,5.29a41.05,41.05,0,0,0,3.94,2.42l.49.27.43.24.84.45a11.29,11.29,0,0,1,1.23.76,8.74,8.74,0,0,1,3.58,5,9,9,0,0,1-.55,5.94,11.68,11.68,0,0,1-3.67,4.76,13.21,13.21,0,0,1-6.68,2.29,16.93,16.93,0,0,1-5.39-.53,40.09,40.09,0,0,1-5.49-1.7l4.2-7.42a6,6,0,0,0,3.79,1.23c1.12-.1,1.56-.76,1.33-2a4.15,4.15,0,0,0-1.25-2.13,13.45,13.45,0,0,0-2.88-1.88l-.89-.45-.9-.46c-.73-.37-1.34-.7-1.84-1q-4.6-2.7-5.62-6.8a9.52,9.52,0,0,1,.8-6.85,10.65,10.65,0,0,1,5-4.73,18.19,18.19,0,0,1,9.45-1.7A21.07,21.07,0,0,1,868.61,145.87Z"/></g></g></svg>