<svg xmlns="http://www.w3.org/2000/svg" viewBox="0 0 1185.02 203.56"><defs><style>.cls-1{fill:#48acd3;}.cls-2,.cls-5{fill:#e94d5c;}.cls-3{fill:#fff;}.cls-4,.cls-8{fill:none;}.cls-4{stroke:#3c3c3b;stroke-width:8px;}.cls-4,.cls-5,.cls-6,.cls-7,.cls-8{stroke-miterlimit:10;}.cls-5,.cls-6{stroke:#f6f6f6;}.cls-6{fill:#f9b807;}.cls-7{fill:#95c11f;}.cls-7,.cls-8{stroke:#fff;}.cls-8{stroke-width:5px;}.cls-9{fill:#3c3c3b;}.cls-10{fill:#f6f6f6;}</style></defs><title>CienciaConDatos</title><g id="Layer_2" data-name="Layer 2"><g id="Analizador_de_datos" data-name="Analizador de datos"><rect class="cls-1" width="1185.02" height="141.56"/><rect class="cls-2" x="494.54" y="119.62" width="231.8" height="83.95"/></g><g id="Analizador_texto" data-name="Analizador texto"><path class="cls-3" d="M320,83.42a27.94,27.94,0,0,1-6.52,6.26,53.68,53.68,0,0,1-8.87,4.72q-9.44,4.32-17.41,4.1a28,28,0,0,1-13.77-3.69,27.44,27.44,0,0,1-9.5-9.59A35.34,35.34,0,0,1,259.57,72a41.22,41.22,0,0,1,1-15.3,47.29,47.29,0,0,1,6.65-15,45.44,45.44,0,0,1,4.86-6,18.27,18.27,0,0,1,5.67-3.92q5.58-2.43,15-1.44A86.09,86.09,0,0,1,314,35l.36.18h.18a1.94,1.94,0,0,1,1.22.63,1.63,1.63,0,0,1,.4,1.35,87.22,87.22,0,0,1-2.06,12.15,1.39,1.39,0,0,1-.77,1.08,1.91,1.91,0,0,1-1.4.18A1.42,1.42,0,0,1,311,50q-4.41-1.62-7.2-2.47T297,45.89a23.82,23.82,0,0,0-7.47-.4,16.61,16.61,0,0,0-6.29,2q-4.43,2.52-7.66,11.88-2.25,7.47-1.43,12.2a12.47,12.47,0,0,0,4.13,7.6,14.93,14.93,0,0,0,8.51,3.47,32.5,32.5,0,0,0,12.11-1.31,25.19,25.19,0,0,0,5.26-2.25,53.24,53.24,0,0,0,4.54-2.79l4.77-3.51a1.85,1.85,0,0,1,2.48-1.48,1.85,1.85,0,0,1,.95.94l.09.27a1.44,1.44,0,0,1,.35.72q.81,2.16,2.7,7.92a.26.26,0,0,0,.09.18A1.59,1.59,0,0,1,320,83.42ZM263,66q13.94-17.37,17.81-22.68l2.16-3.06q1.35-2.07,2.57-3.69a35.82,35.82,0,0,1,2.38-2.88,16.91,16.91,0,0,0-3.05.09q-6.49,9.72-21.61,28.53A26,26,0,0,0,263,66ZM263,69q1.07-1.44,3.41-4.23a77.05,77.05,0,0,0,5.67-7.2.37.37,0,0,1,.37-.18,35.06,35.06,0,0,1,1.43-3.6L263,67.4Zm.08,1.44.37,2.34a87.63,87.63,0,0,0,7.73-11.16l.54-1.89q-1.26,1.62-4.68,5.67C265.2,67.58,263.87,69.26,263,70.46Zm.46-9.9q13.75-17.28,20.16-26.73a12.44,12.44,0,0,0-2.79.63q-3.35,4-9.91,13.5-4.41,6.57-7.29,11.34Zm.8,16.29q2.07-2.52,5.95-7.65a34.32,34.32,0,0,1,.35-4.86,114.69,114.69,0,0,1-6.93,9.54.08.08,0,0,1-.09.09A25.25,25.25,0,0,0,264.29,76.85ZM264.74,55q-.18.81-.36,1.53l5.86-9q5.47-8.1,9-12.51a10,10,0,0,0-2.08,1.17q-2.43,3.15-6.57,9.81C267.9,50.36,265.94,53.36,264.74,55Zm-.09,23q.36,1.08.81,2.16a40.61,40.61,0,0,0,2.88-3.69,38.84,38.84,0,0,1,2.44-3.06,13.55,13.55,0,0,1-.46-2.79Zm2.8,6a73.89,73.89,0,0,0,4.22-7.74q-.36-.9-.63-1.8l-2,2.52a34.24,34.24,0,0,1-3.25,4,14.51,14.51,0,0,0,1.26,2.34Zm-1.36-32.49,3.78-6q2.7-4.41,4.5-7a41,41,0,0,0-4.05,5.22A47.19,47.19,0,0,0,266.09,51.47Zm3.42,35.28c2.16-4,3.52-6.39,4.06-7.29a17.93,17.93,0,0,1-1.45-2.25A73.37,73.37,0,0,1,268,84.77,16.17,16.17,0,0,0,269.51,86.75Zm1.62,1.8c.54-1,1.36-2.25,2.44-3.87l2-3c-.48-.48-1-1-1.43-1.53l-4,7.29C270.5,87.89,270.83,88.25,271.13,88.55Zm.73.63.17.18a62.51,62.51,0,0,1,5.13-6.48,8.19,8.19,0,0,1-.9-.63c-.36.6-1,1.59-1.89,3C273.23,86.9,272.4,88.22,271.86,89.18Zm2.69,2.07a.24.24,0,0,1,.1-.18l2.15-3.42q1.44-2.34,2.16-3.6a11.14,11.14,0,0,1-1.08-.63,62.51,62.51,0,0,0-5.13,6.48Q273.65,90.62,274.55,91.25Zm3.52,1.8a39.56,39.56,0,0,0,2.69-8.19,4.64,4.64,0,0,1-1-.45c-.49.9-1.24,2.15-2.25,3.74s-1.75,2.74-2.17,3.46l-.08.09A16.3,16.3,0,0,0,278.07,93.05Zm2.06.81a43.75,43.75,0,0,1,2.79-8.28l-1.35-.36a32.69,32.69,0,0,1-2.7,8.19A10.57,10.57,0,0,1,280.13,93.86ZM289,33.65a.69.69,0,0,1-.09.27,21.86,21.86,0,0,0-2.56,2.88q-1.22,1.62-2.7,3.83c-1,1.47-1.73,2.53-2.2,3.19l-.73,1a6.1,6.1,0,0,1,.64-.36,17.93,17.93,0,0,1,4.13-1.71,81.22,81.22,0,0,0,6.39-8.91ZM281,94l.8.18q1.89-3.06,4.5-8a15.8,15.8,0,0,1-2.43-.36A43.07,43.07,0,0,0,281,94Zm3.59.72q.18-.36,3.61-8.37a4.6,4.6,0,0,1-.91-.09c-1.79,3.36-3.33,6.06-4.59,8.1Zm2.88.09q3.6-8,3.78-8.46h-2.07c-.12.3-.63,1.5-1.52,3.6l-2.08,4.77Q286.43,94.85,287.42,94.85Zm5.49-60.93A67,67,0,0,1,287,42.38a13.72,13.72,0,0,1,2.25-.36q1-1.08,1.89-2.25t2.25-3.06L295,34.19C294.32,34.13,293.63,34,292.91,33.92Zm-4.5,60.93a17.8,17.8,0,0,0,2.52-.18q3.24-5.85,5.22-8.91c-1.38.24-2.7.42-3.95.54Q291.74,87.56,288.41,94.85Zm9.18-60.3L296,34.37c-.36.48-.9,1.26-1.61,2.34l-2,2.88q-.9,1.26-1.8,2.34c.66-.06,1.35-.09,2.08-.09a24.15,24.15,0,0,1,2.42-3.69C296.39,36.35,297.24,35.15,297.59,34.55ZM294,94.13c.37-.9,1.08-2.61,2.16-5.13q1-2.16,1.53-3.6l-.36.09q-2.07,3.24-5.21,9A11.67,11.67,0,0,0,294,94.13Zm6.84-59-2.25-.36c-.42.72-1.34,2-2.79,4a37.37,37.37,0,0,0-2.16,3.24,12.51,12.51,0,0,1,2.07.18,41.74,41.74,0,0,1,2.79-3.87Zm-3.51,58.23a45.16,45.16,0,0,0,3.6-8.82,7.84,7.84,0,0,1-1,.27l-1.17.36q-.63,1.62-1.8,4.23-1.44,3.42-1.89,4.59Q296.15,93.68,297.32,93.32Zm4.5-58-2.61,3.6c-1.2,1.5-2,2.61-2.51,3.33l2,.36a59.21,59.21,0,0,1,5.49-6.75ZM298.58,93c.91-.3,1.83-.66,2.79-1.08a100.64,100.64,0,0,1,4.41-9.63,31.59,31.59,0,0,1-3.87,1.8A48.35,48.35,0,0,1,298.58,93Zm7.74-56.61L305.24,36v.09a54.87,54.87,0,0,0-5.58,6.66,6.82,6.82,0,0,1,1.08.27,25.73,25.73,0,0,1,3-3.78Zm2.79.72-1.79-.54q-.46.54-2.89,3.24a34,34,0,0,0-2.69,3.42c.47.12,1,.27,1.52.45A79.16,79.16,0,0,1,309.11,37.07Zm-3.78,53.1a36.07,36.07,0,0,0,2.88-9.27l-.89.54a91.1,91.1,0,0,0-4.78,10l.63-.27ZM310,37.43c-2.46,2.52-4.4,4.68-5.85,6.48l1.62.45A64.16,64.16,0,0,1,311.54,38ZM308,88.82c.54-1.5,1.1-3.39,1.7-5.67l.9-3.78-1.35.9a34.83,34.83,0,0,1-2.61,9.27Zm.35-43.56A48.87,48.87,0,0,0,312,41.39a25.63,25.63,0,0,0,.37-3,60.35,60.35,0,0,0-5.68,6.3Zm.9.27,1.89.72q.36-1.62.63-3.15Zm0,42.57.63-.36q2-5.22,4.87-11.16l-.09-.18-2.89,2.16-1.17,4.86Q309.83,86.21,309.2,88.1Zm4.59-3.24c.12-.36.3-.85.54-1.48s.39-1.07.45-1.31a17.7,17.7,0,0,0,.9-2.7l-.53-1.62q-2.36,4.86-4.06,9.18A32,32,0,0,0,313.79,84.86Zm1.45-1.44a9.31,9.31,0,0,0,1.25-1.35L316.13,81q-.18.63-.45,1.44Z"/><path class="cls-3" d="M334.22,46.61a1.79,1.79,0,0,1,.45,1.17q0,24.48-.63,46.62a1.59,1.59,0,0,1-.54,1.22,1.92,1.92,0,0,1-1.35.49h-.27c-.6.06-1.18.14-1.75.23l-1.26.18-.68.09a3.92,3.92,0,0,1-.63,0h-3.15a1.74,1.74,0,0,1-.9-.27,1.55,1.55,0,0,1-1.35-1.53q-.54-5.67-.63-11.61t.32-12.15q.4-6.21.9-11.29t1.3-11.75a2.12,2.12,0,0,1,.45-1,1.5,1.5,0,0,1,1.62-1.35l6.39-.18A1.69,1.69,0,0,1,334.22,46.61ZM330.89,25.1a9.68,9.68,0,0,1,5.49,3.69,7.54,7.54,0,0,1,1.35,5.58,6.92,6.92,0,0,1-3.19,4.86,7.59,7.59,0,0,1-6.44.63,9,9,0,0,1-4.77-3.33,8,8,0,0,1-1.71-5.13,6.61,6.61,0,0,1,2.3-5,7.85,7.85,0,0,1,6-1.67A1.55,1.55,0,0,1,330.89,25.1Zm-.09,52.29.09-2.25a44,44,0,0,0-5.76,4.5v3.6Q326.57,81.53,330.8,77.39Zm-4.05-48.6a2.84,2.84,0,0,0-1.53,2.34Q325.94,30.14,326.75,28.79Zm4.14,41.31q.09-1.17.09-2.34a11.58,11.58,0,0,0-1.53,1.17q-.81.72-1.35,1.26l-1.44,1.44q-.9.9-1.26,1.35l-.18,2.61A58.2,58.2,0,0,1,330.89,70.1Zm0,4v-2.7a68.43,68.43,0,0,0-5.67,5.58v1.44A64.79,64.79,0,0,1,330.89,74.06Zm-.18,7.65q.09-1.53.09-3.06a73.68,73.68,0,0,0-5.31,5.58.29.29,0,0,1-.27.18v2.25A45.78,45.78,0,0,1,330.71,81.71Zm-4.95-49.77-.45.54.09.09A5.88,5.88,0,0,1,325.76,31.94Zm4.86,53.73.09-2.79a37,37,0,0,0-5.4,5l.18,3.69q.54-.63,2.61-2.88A32.51,32.51,0,0,0,330.62,85.67Zm.36-19V63.8a46.82,46.82,0,0,0-5.4,4.86l-.18,3A34.29,34.29,0,0,1,331,66.68Zm-.36,22.5v-2l-1.89,2.16Q326.3,92,325.58,93v.09h1.89A41,41,0,0,1,330.62,89.18Zm.09-60.39-.81-.18q-.45.54-1.8,1.89a12.56,12.56,0,0,0-2.25,3.15h-.09a4.4,4.4,0,0,1,.27.45A33.36,33.36,0,0,1,330.71,28.79ZM331,62.72q0-1.26.09-2.61l-5.22,5q-.09,1.08-.09,2.16A33.87,33.87,0,0,1,331,62.72Zm-5-31A16.77,16.77,0,0,1,327.47,30q1.17-1.26,1.53-1.62h-.09a3.35,3.35,0,0,0-.81.09Q326.93,30.32,325.94,31.67Zm5.13,27.18V56.42q-1.26,1.17-4.86,4.86L326,63.71Zm0-3.69V53.27q-.54.63-1.26,1.35a15.28,15.28,0,0,1-1.08,1.17L327.47,57a7.15,7.15,0,0,0-.9,1.08l-.18,1.8Q329.45,56.69,331.07,55.16ZM332.6,30q-.45-.36-1-.72a30.25,30.25,0,0,0-5,5.58,3.93,3.93,0,0,0,1.08.9,29.13,29.13,0,0,1,2.52-3Zm-1.53,21.87V49.31q-1.53,1.44-4.05,4.32l-.27,2.88L329.18,54Q330.35,52.73,331.07,51.83Zm-1.17-2.61-2.34.09L327.2,52Q328.73,50.3,329.9,49.22ZM334,32.12a5.37,5.37,0,0,0-.81-1.53l-2.34,2.7-2.52,2.88a3.21,3.21,0,0,0,.81.27l1,.18,1.62-2.07,1.8-2.25A.61.61,0,0,1,334,32.12Zm-3.51,58.5-1.8,2.25,1.8-.18Zm3.6-57.6-1.62,2.07q-1.08,1.35-1.26,1.53a3,3,0,0,0,2.88-2.79A1.84,1.84,0,0,0,334.13,33Z"/><path class="cls-3" d="M370.67,79.64q1,.81,4.32,3.78a1.61,1.61,0,0,1,.54,1.89,1.56,1.56,0,0,1-.18,1.44Q371.57,92.6,367,94q-5.22,1.62-12.06-.27t-10.26-6.21q-4.05-5.22-6.3-16.56T338,53.27q2-6.84,7.56-9.45a15.76,15.76,0,0,1,11.07-.72,22.5,22.5,0,0,1,10.35,6,18.38,18.38,0,0,1,5.4,10.44,1.73,1.73,0,0,1-.18,1.08,1.56,1.56,0,0,1-1.08,1.53q-1.08.45-5.8,2.61t-7.88,3.33A48.63,48.63,0,0,1,351.05,70q0,.27.09,1.17t.09,1.26a9.55,9.55,0,0,0,.09,1.08q.09.72.18,1.17l.18.9a11.33,11.33,0,0,0,.36,1.08,6.3,6.3,0,0,0,.45.9,7.79,7.79,0,0,0,4.23,3.56,9.7,9.7,0,0,0,5.63.22,13.49,13.49,0,0,0,5.35-2.7,1.69,1.69,0,0,1,1.35-.45,1.75,1.75,0,0,1,1.17.63A1.57,1.57,0,0,1,370.67,79.64Zm-25.92-21a8,8,0,0,1-1.71,0h-2.25v1.17A41,41,0,0,0,344.75,58.67Zm1.62.27v-.09a25.22,25.22,0,0,1-5.58,1.89q0,.9.09,1.89Q344.75,60.11,346.37,58.94Zm-.54-1.44v-.09a14.4,14.4,0,0,0-4.77-1.53l-.18,1.89H343A7.4,7.4,0,0,0,345.83,57.5Zm.9,2.25q-1.53,1.17-5.76,4a3,3,0,0,0,.09.72,36,36,0,0,0,5.58-1.89h.27a21.83,21.83,0,0,1-.18-2.7Zm.36,4.86a8.31,8.31,0,0,1-.09-1.17,40.93,40.93,0,0,1-5.85,1.89l.18,1.26a14.64,14.64,0,0,0,2.43-.72l1.62-.63a8.08,8.08,0,0,1,1.62-.63Zm-1.89-8.46a33.92,33.92,0,0,1-3.42-2.88l-.36,1.08q-.09.27-.18.63A14.77,14.77,0,0,1,345.2,56.15Zm2.16,10-.09-.63h-.09l-1.53.54-1.53.63a14.25,14.25,0,0,1-2.7.81l.18,1.08A21.72,21.72,0,0,1,347.36,66.14Zm.18.9a23.47,23.47,0,0,0-5.76,2.43l.18.9v.27a51.91,51.91,0,0,0,5.67-3Zm-1.62-11.52A32,32,0,0,1,344.3,49a12.27,12.27,0,0,0-2.16,3.33l1.17,1.08c.54.54,1,1,1.4,1.31A4.78,4.78,0,0,0,345.92,55.52Zm1.44,13.41q-.54.36-5.22,2.61.18.81.45,1.71l.09-.09L344.12,72a6.35,6.35,0,0,1,3.33-1.35,10.7,10.7,0,0,0-.09-1.62Zm.09,2.61a5.43,5.43,0,0,0-2.79,1.17l-1.44,1.17-.45.27q.27.9.45,1.71,2.88-2.16,4.41-3.15a6.17,6.17,0,0,1-.09-1.17Zm.45,3.33-.18-1.08a48.58,48.58,0,0,0-4.14,3l.36,1.17a18.85,18.85,0,0,1,1.53-1.26A14.51,14.51,0,0,1,347.9,74.87Zm.36,1.8-.18-.9q-.81.54-2.07,1.53l-1.8,1.53.45,1.17,1.26-1.17Zm.72,1.8a2,2,0,0,1-.36-.81,16.2,16.2,0,0,0-2.07,1.8L345,80.9l.72,1.44A16.92,16.92,0,0,1,349,78.47Zm-1.53-25.11c-.12-.24-.4-1-.85-2.34a16,16,0,0,0-1.22-2.88l-.18.18a29,29,0,0,0,1.44,6.48Q347,54.08,347.45,53.36Zm.63-.81a3,3,0,0,1,.72-.81.43.43,0,0,1-.63-.27A30.85,30.85,0,0,1,347,47.15a6.3,6.3,0,0,0-.9.45Q346.46,48.23,348.08,52.55Zm1.26,26.73a18.47,18.47,0,0,0-3.15,4,11.48,11.48,0,0,0,.9,1.53A25.22,25.22,0,0,1,350,80.36q-.27-.45-.54-1Zm-1-12.78.09.45a2.27,2.27,0,0,1,.54-.27h.18q-.18-1-.36-2.79-.18-2.52-.36-3.51a3.35,3.35,0,0,1-.81-.09,48.42,48.42,0,0,0,.72,6v.18Zm2.61,15a3,3,0,0,0-.36-.45,29.83,29.83,0,0,0-2.88,4.5,3,3,0,0,0,.36.45A25.93,25.93,0,0,1,351,81.53Zm-.72-30.87q-.18-.81-.54-2.7-.27-1.08-.36-1.62a11.39,11.39,0,0,0-1.53.45,21.11,21.11,0,0,0,1.26,4.32.6.6,0,0,1-.09.54A7.07,7.07,0,0,1,350.24,50.66Zm2.16,32.22a7.81,7.81,0,0,1-.81-.72,29.42,29.42,0,0,0-2.79,4.5l.63.63ZM350,60.11a2.64,2.64,0,0,1-.63.09q.18,1.08.36,3.6.18,1.71.36,2.7l.9-.18A44.75,44.75,0,0,0,350,60.11Zm-.09-3.69a48.43,48.43,0,0,0,6.75-2.34,4.8,4.8,0,0,0-4.14-.54A5.41,5.41,0,0,0,349.88,56.42Zm4.32,27.63a5.56,5.56,0,0,1-1-.63l-3.06,4.32,1.8,1.08a25.94,25.94,0,0,0,1.35-2.74C353.84,84.85,354.14,84.17,354.2,84.05Zm-2.34-34.11a31.36,31.36,0,0,1-.18-3.87,11.6,11.6,0,0,0-1.44.09q.09.54.36,1.62.36,1.71.45,2.52l.09-.09A3.52,3.52,0,0,0,351.86,49.94Zm-.54,9.81-.54.18a36.77,36.77,0,0,1,1.08,6.12l.54-.09A31.44,31.44,0,0,1,351.32,59.75Zm1.8-.54-.9.27a35.87,35.87,0,0,0,1,6.21l1.17-.36a15.25,15.25,0,0,1-.36-2q-.18-1.35-.36-2.34A7.9,7.9,0,0,0,353.12,59.21Zm1.08-9.54q0-.45.09-1.35.09-1.35.09-2.07l-1.8-.18q0,2.43.09,3.69A12.35,12.35,0,0,1,354.2,49.67Zm1.08,34.83-.27-.09a11.77,11.77,0,0,1-.63,1.44l-.9,1.8-.72,1.53.63.27Q353.75,88.37,355.28,84.5ZM355,58.58l-1.08.36a12.61,12.61,0,0,1,.59,1.89c.15.66.28,1.46.4,2.39s.21,1.54.27,1.84l1.08-.36q-.36-1.26-.81-3.78Q355.19,59.3,355,58.58ZM356.63,85a3.49,3.49,0,0,1-.45-.18q-1.62,4-1.89,5,.72.27,1.62.54l.27-2.52Q356.45,85.94,356.63,85Zm-.72-35q.18-.81.81-3.06a4.77,4.77,0,0,0-1-.27,1.48,1.48,0,0,0-.45-.09q-.09.63-.18,1.89v1.35Zm0,8.64q.18.72.45,2.16.54,2.88.72,3.6L358,64l-.9-2.43Zm.72-.63c.24.72.65,1.8,1.22,3.24s.88,2.28.94,2.52l.27-.18a48.82,48.82,0,0,0-2.25-5.67Zm1.26,27.18h-.36q-.18,1-.45,2.79a24.79,24.79,0,0,1-.36,2.61,7.11,7.11,0,0,1,1.08.27Q358,86.12,357.89,85.13Zm-.63-34.74A13.07,13.07,0,0,1,359,47.78q-.72-.27-1.35-.54-.63,2.07-.81,3A3.49,3.49,0,0,0,357.26,50.39Zm1.35,6.75-.9.36q.54,1.08,2.16,5.76l1.35-.63-.45-1.17q-.63-1.44-.9-2A10.24,10.24,0,0,0,358.61,57.14Zm.36-5.85q1.44-2.25,1.62-2.61a3.52,3.52,0,0,0-.81-.45,16.13,16.13,0,0,0-1.71,2.52Zm-.18,33.93q.09,1-.18,5.67a7.06,7.06,0,0,0,1.53.18q-.09-.81-.18-2.16-.09-2.7-.18-3.69Zm.63-28.44a18.87,18.87,0,0,1,1.35,2.34q.18.54.81,2a9.81,9.81,0,0,0,.45,1.17l2.61-1.17q-3.51-3.87-4.5-4.77a1.42,1.42,0,0,1-.54.36Zm.72-4.59q.63-.09,1.89-.18a16.24,16.24,0,0,1,2.43-.27l-.9-.9q-1.08.45-3.51,1.26Zm0-1.08q1.71-.54,2.61-.9a11.15,11.15,0,0,0-1.35-1Q361,49.85,360.14,51.11Zm.54,3.15-.27-.09.09.09Zm0,1a.37.37,0,0,1-.09.27q.9.9,5,5.22l1.53-.72a34.92,34.92,0,0,1-2.88-2.16A20.56,20.56,0,0,0,360.68,55.25Zm.09,30h-.09q.09.9.18,3.69.09,1.44.18,2.25h1Q361.4,88.55,360.77,85.22Zm.54-30.6a22.6,22.6,0,0,1,3.51,2.52,27.45,27.45,0,0,0,3.24,2.43l.63-.27-.18-.54-4.05-2.43A26,26,0,0,0,361.31,54.62Zm.27-1.71q2.61.9,5.13,1.62a14.66,14.66,0,0,0-1.53-2l-3,.27ZM362,85a.8.8,0,0,0-.36.09q.63,3.42,1.26,6a6.06,6.06,0,0,1,1-.09l-1-3Q362.3,86.21,362,85Zm.72-30.78q.81.54,2.16,1.26,2.52,1.62,3.24,2-.36-.9-.81-1.8Q365.09,55.07,362.75,54.26Zm1,30.42-.9.18.9,3q.9,2.52,1.08,3.06a7.11,7.11,0,0,0,1.08-.27.26.26,0,0,0,.18-.09A37,37,0,0,1,363.74,84.68Zm1.62-.54a6.38,6.38,0,0,0-.81.27A38.71,38.71,0,0,0,367,90.17a9.46,9.46,0,0,0,1.44-.9q-.27-.36-1.62-2.52A17.22,17.22,0,0,1,365.36,84.14Zm1-.45-.18.09a20.65,20.65,0,0,0,1.44,2.52q1.35,2.16,1.53,2.43a3.13,3.13,0,0,1,.63-.63A55.8,55.8,0,0,1,366.35,83.69Zm1.53-.81-.72.36q.81,1.17,3.24,4.14l.18-.18A41.62,41.62,0,0,0,367.88,82.88Zm1.17.09a30.29,30.29,0,0,1,2.07,3.51l.72-1.08Q370,83.69,369.05,83Z"/><path class="cls-3" d="M378.77,39.68q6.12,0,7.83-.18a1.41,1.41,0,0,1,1,.18h.27a2,2,0,0,1,1.31.5,1.52,1.52,0,0,1,.58,1.21l.09,1.08a19.81,19.81,0,0,1,9.9-2.25,15,15,0,0,1,7.65,1.94,15.5,15.5,0,0,1,5.45,5.35,31.84,31.84,0,0,1,3.33,7.34A52.72,52.72,0,0,1,418,63.44a106.77,106.77,0,0,1,.54,17.28,87.3,87.3,0,0,1-1.8,14,1.63,1.63,0,0,1,.27,1.17,1.85,1.85,0,0,1-.67,1.22,1.64,1.64,0,0,1-1.31.4q-4.86-.45-9.72-.45a1.85,1.85,0,0,1-1.8-1.8,1.58,1.58,0,0,1,.45-1.17q0-2,.18-8.1t.18-9.72q0-12.06-1.53-16.92A7.27,7.27,0,0,0,399,54.71q-2.61-1.08-5,1.35-5.22,5.22-4.14,18.72.18,2.52.81,7.11t1,8.24a32.66,32.66,0,0,1,0,6.16,1,1,0,0,1-.09.45,2,2,0,0,1-.31,1.4,1.88,1.88,0,0,1-1.13.76,47.23,47.23,0,0,1-8.1.72,1.73,1.73,0,0,1-1.21-.45,1.77,1.77,0,0,1-.59-1.08l-.18-.54a75.58,75.58,0,0,1-2.56-13.81Q376.7,76,376.7,70.6T377,56.15q.27-9,.27-13a1.7,1.7,0,0,1,.09-.54,1.68,1.68,0,0,1-.36-1.08,1.85,1.85,0,0,1,1.8-1.8Zm7.29,27.81q.09-.72.18-1.35-1.26.27-3.42.54L380.3,67v1.44q1-.18,2.7-.45Zm0,1.89v-1l-3,.54q-1.8.27-2.79.45v1.08q.9-.09,2.61-.45A20.35,20.35,0,0,1,386.06,69.38Zm0,2.34V70.28l-3,.54q-1.8.45-2.79.63a6.56,6.56,0,0,1,.09,1.08,17,17,0,0,0,2.7-.27Zm.54-9.9a15.27,15.27,0,0,0-3.15.18,9.88,9.88,0,0,0-1.48.18,10,10,0,0,1-1.58.18v1.17q4.41-.09,6.12,0l.18-.9A4.17,4.17,0,0,0,386.6,61.82Zm-.27,3.33a3,3,0,0,1,.09-.72q-1.71-.09-6,0v1.71l2.34-.36A23.84,23.84,0,0,0,386.33,65.15Zm-.09,9a13.89,13.89,0,0,1-.09-1.53,8.83,8.83,0,0,1-.94.14,8.09,8.09,0,0,0-1.08.18,4.4,4.4,0,0,1-.95.13,13.15,13.15,0,0,1-2.79.36v.9c.66,0,1.64,0,2.93-.09S385.58,74.15,386.24,74.15Zm.09,1.89a6.06,6.06,0,0,0-.09-1c-.66,0-1.63,0-2.92.09s-2.27.09-2.93.09a6.56,6.56,0,0,1,.09,1.08c.72,0,1.73,0,3-.09S385.73,76.1,386.33,76Zm0-17.73q-2.79-.18-5.85-.09V59c.72-.06,1.74-.1,3.06-.13s2.25-.08,2.79-.14Zm.18,2.52a7.13,7.13,0,0,1-.09-1.17h-.09c-.6.06-1.56.11-2.88.14s-2.31.07-3,.13v1.53a8.36,8.36,0,0,0,1.4-.18,8.41,8.41,0,0,1,1.48-.18A23,23,0,0,1,386.51,60.83Zm.18,18q-.18-1-.27-1.89-.9.09-2.88.18t-3.06.09l.18,1.8Q383.18,78.83,386.69,78.83Zm-.27-23a61.29,61.29,0,0,1,.63-6.57,19.86,19.86,0,0,1-6.3.54v1.08q1.62-.27,5.49-.54a.45.45,0,1,1,0,.9,39.75,39.75,0,0,0-5.49.63l-.09,1.35q.81.09,5.4.09a.45.45,0,1,1,0,.9q-4.59,0-5.4-.09l-.09,1.71Zm-.09,1.62v-.72h-5.76v.63Q383.63,57.23,386.33,57.41ZM387,81.53l-.18-1.8q-3.51,0-6.12.18.09.81.18,1.71A58.47,58.47,0,0,1,387,81.53Zm.18-33.3.18-1.26a3.58,3.58,0,0,1-.54-.45,17.17,17.17,0,0,1-5.94.36q0,1-.09,2Q385.61,49,387.14,48.23Zm-.9-4.23v-.81q-1.89.09-5.4.09v1A22.31,22.31,0,0,0,386.24,44Zm0,.9a22.64,22.64,0,0,1-5.4.27V46a15.83,15.83,0,0,0,5.49-.27,1,1,0,0,1-.09-.45V44.9Zm1.08,39.15-.18-1.53a50.91,50.91,0,0,0-6.21,0,8.9,8.9,0,0,0,.09,1.26A57.72,57.72,0,0,0,387.32,84.05Zm.27,2.61L387.41,85a57.72,57.72,0,0,1-6.3-.27q.18,1,.27,2Q383.18,86.75,387.59,86.66Zm.27,2.43a13.89,13.89,0,0,0-.09-1.53q-4.5.09-6.21,0a14.56,14.56,0,0,0,.27,1.71c.78,0,1.94,0,3.47-.09Zm.27,2.79L388,90q-.45,0-2.61.09t-3.42.09q.18.81.36,1.71Q384.26,92,388.13,91.88Zm0,.9h-5.67l.36,1.26q4.5-.18,5.31-.27Zm0,1.89q-1,.09-5.13.27l.27,1.08a44.11,44.11,0,0,0,4.77-.45A4.58,4.58,0,0,0,388.13,94.67Zm-.9-38.07q0,2,.09,3.78a16.42,16.42,0,0,1,1.62-3.6h-.09a.4.4,0,0,1-.45-.45c0-.78.06-2.23.18-4.36a48.56,48.56,0,0,0,.09-4.91.26.26,0,0,1-.18-.09.69.69,0,0,1-.27.09,77.9,77.9,0,0,0-.9,8.82.36.36,0,0,1,.18.36A.35.35,0,0,1,387.23,56.6Zm2.34-9.72q.09,1.8-.09,5.13t-.18,4.14a12.66,12.66,0,0,1,.81-1.08V46.61l-.18.09A.52.52,0,0,1,389.57,46.88Zm3-1.71A7.62,7.62,0,0,0,391,46v8l.45-.45a11,11,0,0,1,.9-.81c0-.54.05-1.41.14-2.61s.13-2,.13-2.52S392.6,46.31,392.54,45.17Zm1.8-.72a5.13,5.13,0,0,0-.9.27,61.36,61.36,0,0,1-.09,7.29l.9-.54c0-.42,0-1,.05-1.89s0-1.44,0-1.8Zm2.43-.45-1.53.18q.09,1.53,0,3.69c0,.36,0,.9,0,1.62s-.05,1.26-.05,1.62a10.67,10.67,0,0,1,1.17-.27A47.28,47.28,0,0,1,396.77,44Zm2.79-.18a17.35,17.35,0,0,0-1.89.09,47.28,47.28,0,0,0-.45,6.84,3,3,0,0,1,.72.09q.18-1,.81-3.42A27.73,27.73,0,0,0,399.56,43.82Zm3.33.45a10.87,10.87,0,0,0-2.43-.45,28.15,28.15,0,0,1-.81,3.87q-.63,2.34-.81,3.24a16.31,16.31,0,0,1,1.62.45l.09.09a39.3,39.3,0,0,1,1.26-3.87Q402.62,45.26,402.89,44.27ZM406.58,46a13.69,13.69,0,0,0-2.79-1.44q-.27,1-1.17,3.33a31,31,0,0,0-1.17,4.05,4.4,4.4,0,0,1,.45.27Q403,51,406.58,46Zm2.16,2.07a16.29,16.29,0,0,0-1.44-1.44q-3.51,4.86-4.68,6.12l.18.18Q406.13,50,408.74,48.05Zm1.89,2.79a13.71,13.71,0,0,0-1.35-2.07q-2.61,2-5.85,4.77l.54.54A43,43,0,0,1,410.63,50.84ZM412,53.63a22,22,0,0,0-1-2.07,46.62,46.62,0,0,0-6.48,3.24,8.2,8.2,0,0,1,.81,1.44A48,48,0,0,0,412,53.63Zm1.08,3.42a24.89,24.89,0,0,0-.81-2.52,46.19,46.19,0,0,1-6.48,2.52,10.57,10.57,0,0,1,.45,1.26l.09.27A28.4,28.4,0,0,1,413.06,57.05Zm.72,2.79a17.42,17.42,0,0,0-.45-1.89,28.4,28.4,0,0,0-6.75,1.53,8.81,8.81,0,0,1,.27,1.44,16.68,16.68,0,0,1,3.33-.36,8.85,8.85,0,0,0,3.42-.63A.26.26,0,0,1,413.78,59.84Zm.54,2.79L414,60.74a9.29,9.29,0,0,1-3.69.72,9.88,9.88,0,0,0-3.24.36,11.58,11.58,0,0,1,.27,1.53q1.26-.09,4.59-.45Q413.33,62.72,414.32,62.63Zm.09.9L412,63.8q-3.33.36-4.59.45l.18,1.89q5.94,0,7.2-.09-.18-1.08-.27-2.16Zm-.63,27.81-6.12-1a8.31,8.31,0,0,0-.09,1.17h3.06a12,12,0,0,1,3.06.18Zm-.27,1.17a22.7,22.7,0,0,0-2.88-.09h-3.06V93.5q2.88.09,5.67.27A6.6,6.6,0,0,0,413.51,92.51ZM415,68a6.56,6.56,0,0,1-.09-1.08q-1.44.09-7.2.09a6.06,6.06,0,0,0,.09,1l4.68-.09Q413.87,67.94,415,68Zm-.72,20.16q-.45-.09-3.42-.36a10,10,0,0,1-3.06-.54l-.09,2.16,6.21,1ZM415,69.74a3.35,3.35,0,0,0-.09-.81q-1.08-.09-2.52-.09l-4.68.09a14.66,14.66,0,0,1,.09,1.62Q411.89,69.92,415,69.74Zm-.36,15q-3.06,0-6.93-.27v1.89a10.31,10.31,0,0,0,3.15.54q3,.27,3.51.36Q414.5,86,414.68,84.77ZM415.13,73q0-1.17-.09-2.34-3.15.18-7.2.81v.72q1.17.18,3.78.36Q413.87,72.8,415.13,73Zm0,5.31h-7.2q0,1-.09,2.07l2.93.09c1.65.06,2.89.12,3.73.18a.4.4,0,0,1,.45.45ZM415,81.17a.43.43,0,0,1-.45.36q-1.35-.09-3.78-.18l-2.88-.09V83.6q3.87.27,6.93.27Zm.18-7.29q-1.26-.18-3.6-.45-2.52-.18-3.6-.36V74.6a66,66,0,0,0,7.2.27Zm0,3.51V75.77a66,66,0,0,1-7.2-.27v1.89Z"/><path class="cls-3" d="M450.68,67.13q-6.66-2-8.73-2.43-5.4-1-7.65.36a8.32,8.32,0,0,0-3.24,4,12.45,12.45,0,0,0-1,5.76A9.75,9.75,0,0,0,431.74,80a6,6,0,0,0,4.09,2.56q3.06.63,7.2-1.89a52.27,52.27,0,0,0,6.93-5.4l.09-.09a1.13,1.13,0,0,1,.45-.63,1.69,1.69,0,0,1,1.35-.45,1.75,1.75,0,0,1,1.17.63l4.86,6.12a2.29,2.29,0,0,1,.54.54,1.93,1.93,0,0,1,.23,1.35,1.82,1.82,0,0,1-.77,1.17q-1.35.9-5,3.78a55.62,55.62,0,0,1-5.31,4q-6.84,4.5-13.68,3.06a18.61,18.61,0,0,1-11.47-7.2A22.33,22.33,0,0,1,418,74.78a24.05,24.05,0,0,1,3.24-13.14,19.61,19.61,0,0,1,10.26-8.73Q436.1,51.2,443,52q1.08.09,5.58.81,3.24.45,5.13.54A1.53,1.53,0,0,1,455,54a2,2,0,0,1,.5,1.3v.27a2,2,0,0,1,.45,1.53,22.48,22.48,0,0,1-.54,2.61q-.36,1.35-1,3.15t-.81,2.25a1.9,1.9,0,0,1-.63.9,1.71,1.71,0,0,1-2.25,1.17Zm-29.07,5a31.13,31.13,0,0,1,5.13-1.17,1.48,1.48,0,0,0,.09-.45l-1.26.18q-3.06.27-3.87.45A5.06,5.06,0,0,1,421.61,72.08Zm0,1.89a25.13,25.13,0,0,1,4.86-1.71h.09v-.45a39.47,39.47,0,0,0-4.95,1.26Zm.18,2.7a35.34,35.34,0,0,1,4.68-1.62V73.16a28.23,28.23,0,0,0-4.86,1.8A7.87,7.87,0,0,0,421.79,76.67Zm.36-7.83a9,9,0,0,0-.27,1.35,29.4,29.4,0,0,1,3.6-.45,9,9,0,0,0,1.62-.27l.36-1.08q-1.17.18-3,.27a3.63,3.63,0,0,1-1,.14C422.88,68.83,422.45,68.84,422.15,68.84Zm0,9.9q.81-.45,2.07-1.08,2-1,2.43-1.17a1.7,1.7,0,0,1-.09-.54,35.34,35.34,0,0,0-4.68,1.62A10.67,10.67,0,0,1,422.15,78.74Zm.27-10.8a4.54,4.54,0,0,1,1-.09,4.58,4.58,0,0,0,1-.09,20.83,20.83,0,0,0,3.33-.36,5.88,5.88,0,0,0,.36-.63,16.11,16.11,0,0,0-5.67.9Zm.45,13a31.47,31.47,0,0,0,4.23-2.25,9.44,9.44,0,0,1-.27-1.26l-2.25,1.08-2.16,1.17A10.57,10.57,0,0,0,422.87,80.9Zm0-14.31a18.73,18.73,0,0,1,5.76-.72,9.48,9.48,0,0,1,.54-.81,27.28,27.28,0,0,0-5.31-.81A21.1,21.1,0,0,0,422.87,66.59ZM424,83.42A17.23,17.23,0,0,1,426,82l1.89-1.44a5,5,0,0,1-.45-1,40.93,40.93,0,0,1-4.23,2.25Q423.59,82.61,424,83.42Zm.36-20.07a36,36,0,0,1,5.4.9l.18-.18a48.56,48.56,0,0,0-4.86-1.89Q424.76,62.81,424.4,63.35Zm.72,21.78,3.51-3.33a1.13,1.13,0,0,1-.27-.45l-1.8,1.35a20.72,20.72,0,0,0-2.07,1.53A8.19,8.19,0,0,1,425.12,85.13Zm4.14-22.32-1.08-.9a17.24,17.24,0,0,0-1.71-1.26,9.82,9.82,0,0,0-.72.81Q427.64,62.09,429.26,62.81Zm-3.51,23,1.08,1.26q1.26-1.89,2.88-3.87l-.54-.72ZM427.1,60l1.62,1.17,2.34,1.8.18-.18a26.2,26.2,0,0,1-3.42-3.51A4.07,4.07,0,0,0,427.1,60Zm1,28.17a41.45,41.45,0,0,0,3.15-3.69l-.81-.63a35.19,35.19,0,0,0-2.88,3.78Zm.45-29.52a21.38,21.38,0,0,0,3.51,3.6,1.13,1.13,0,0,1,.45-.27,3.52,3.52,0,0,1,.81-.45l-.72-1q-1.62-2.25-2.16-3.15Zm1.8,31a17.34,17.34,0,0,0,2.34-4.32L432,85a35,35,0,0,1-3.15,3.78Q429.53,89.18,430.34,89.63Zm.81-32.58,2.16,3,.81,1.26a.37.37,0,0,1,.27-.09,11.67,11.67,0,0,1-1.53-4.95l-.09.09A9.57,9.57,0,0,0,431.15,57.05Zm1.62,33.57q.27-.63,1.35-4.77l-.63-.18A17.34,17.34,0,0,1,431.15,90Q432,90.35,432.77,90.62Zm2.43.63.9-5a6.06,6.06,0,0,1-1-.09L435,86q-1.08,4.05-1.35,4.86l.9.18ZM433.76,56v.09a10.08,10.08,0,0,0,1.53,4.86,3.35,3.35,0,0,1,.81-.09,23.36,23.36,0,0,1-.18-3.33,15.52,15.52,0,0,0-.09-2A21,21,0,0,0,433.76,56ZM437,91.43a17.58,17.58,0,0,0,.9-5.22,4.58,4.58,0,0,1-.9.09l-.9,5A4.58,4.58,0,0,0,437,91.43Zm-.27-36a15.52,15.52,0,0,1,.09,2,22.24,22.24,0,0,0,.18,3.33h1.26q0-3.69-.09-5.4A11.6,11.6,0,0,0,436.73,55.43ZM439,91.34q-.09-1.17-.09-3.33V86.12a22.77,22.77,0,0,1-.9,5.31A6.06,6.06,0,0,1,439,91.34Zm.09-36q.09,1.71.09,5.4a6.06,6.06,0,0,1,1,.09,17.56,17.56,0,0,1,.36-2.43q.36-1.89.45-3Q440,55.34,439.07,55.34Zm.72,32.22V88q0,2.07.09,3.15l.63-.18Q440.06,89.18,439.79,87.56Zm2.43,2.88q-.09-.9-.45-3.33-.09-1.08-.18-1.8a4,4,0,0,1-1,.36,26.81,26.81,0,0,0,.72,5A5.13,5.13,0,0,0,442.22,90.44ZM441.5,58l.36-.81q.36-1.08.54-1.71h-.54Q441.77,56.51,441.5,58Zm1.8-2.43a17.16,17.16,0,0,1-.63,1.89A22.23,22.23,0,0,0,441.59,61l.81.18a17.46,17.46,0,0,1,.72-2.79l.81-2.7ZM444,89.54q-1-3.51-1.17-4.68l-.36.09q.09.81.18,2,.36,2.25.45,3.15Zm.81-33.66c-.12.36-.29.89-.49,1.58s-.35,1.09-.41,1.21a27.12,27.12,0,0,0-.63,2.7l.72.09q.63-1.71,2.25-5.4Zm-.54,31.5q-.09-1.62-.27-3.15l-.36.18Q443.84,85.58,444.29,87.38Zm2.34.54c-.12-.42-.35-1.12-.68-2.11s-.55-1.76-.67-2.3l-.36.18h-.09a47.93,47.93,0,0,1,.45,5.13l.27-.18Zm.63-31.68a49.23,49.23,0,0,0-2.34,5.49l.27.09q1.62-3,2.7-5.49Zm1.17,30.33-.18-.18c-.06-.18-.3-.73-.72-1.66s-.72-1.64-.9-2.12L446,83a20,20,0,0,0,.72,2.3c.36,1,.6,1.66.72,2Zm.36-30.15a58.27,58.27,0,0,1-2.7,5.58l.72.18a49.28,49.28,0,0,0,3.24-5.58ZM450.32,85l-2-3.69-1,.72q.27.72,1,2.25a10.27,10.27,0,0,1,.72,1.71ZM451,56.78a57.75,57.75,0,0,1-3.33,5.67l.63.18q2.7-4.41,3.42-5.85Zm1.08,26.82q-1.08-1.8-2.34-3.51l-.72.63,2,3.78Zm-2.88-20.7,1.08.36q1.53-4.5,1.62-4.95Q451.4,59.39,449.24,62.9ZM452.84,83l1.35-1-2.61-3.33-1.08.9A34.35,34.35,0,0,1,452.84,83Z"/><path class="cls-3" d="M472.64,46.61a1.79,1.79,0,0,1,.45,1.17q0,24.48-.63,46.62a1.59,1.59,0,0,1-.54,1.22,1.92,1.92,0,0,1-1.35.49h-.27c-.6.06-1.19.14-1.76.23l-1.26.18-.67.09a3.92,3.92,0,0,1-.63,0h-3.15a1.74,1.74,0,0,1-.9-.27,1.55,1.55,0,0,1-1.35-1.53Q460,89.18,460,83.24t.31-12.15q.4-6.21.9-11.29t1.31-11.75a2.12,2.12,0,0,1,.45-1,1.5,1.5,0,0,1,1.62-1.35l6.39-.18A1.69,1.69,0,0,1,472.64,46.61ZM469.31,25.1a9.68,9.68,0,0,1,5.49,3.69,7.54,7.54,0,0,1,1.35,5.58,6.94,6.94,0,0,1-3.2,4.86,7.56,7.56,0,0,1-6.43.63,9,9,0,0,1-4.77-3.33A8,8,0,0,1,460,31.4a6.6,6.6,0,0,1,2.29-5,7.87,7.87,0,0,1,6-1.67A1.55,1.55,0,0,1,469.31,25.1Zm-.09,52.29.09-2.25a44,44,0,0,0-5.76,4.5v3.6Q465,81.53,469.22,77.39Zm-4.05-48.6a2.84,2.84,0,0,0-1.53,2.34Q464.36,30.14,465.17,28.79Zm4.14,41.31q.09-1.17.09-2.34a11.58,11.58,0,0,0-1.53,1.17q-.81.72-1.35,1.26l-1.44,1.44q-.9.9-1.26,1.35l-.18,2.61A58.2,58.2,0,0,1,469.31,70.1Zm0,4v-2.7a68.43,68.43,0,0,0-5.67,5.58v1.44A64.79,64.79,0,0,1,469.31,74.06Zm-.18,7.65q.09-1.53.09-3.06a73.68,73.68,0,0,0-5.31,5.58.29.29,0,0,1-.27.18v2.25A45.78,45.78,0,0,1,469.13,81.71Zm-4.95-49.77-.45.54.09.09A5.88,5.88,0,0,1,464.18,31.94ZM469,85.67l.09-2.79a37,37,0,0,0-5.4,5l.18,3.69q.54-.63,2.61-2.88A32.51,32.51,0,0,0,469,85.67Zm.36-19V63.8a46.82,46.82,0,0,0-5.4,4.86l-.18,3A34.29,34.29,0,0,1,469.4,66.68ZM469,89.18v-2l-1.89,2.16Q464.72,92,464,93v.09h1.89A41,41,0,0,1,469,89.18Zm.09-60.39-.81-.18q-.45.54-1.8,1.89a12.56,12.56,0,0,0-2.25,3.15h-.09a4.4,4.4,0,0,1,.27.45A33.36,33.36,0,0,1,469.13,28.79Zm.27,33.93q0-1.26.09-2.61l-5.22,5q-.09,1.08-.09,2.16A33.87,33.87,0,0,1,469.4,62.72Zm-5-31A16.77,16.77,0,0,1,465.89,30q1.17-1.26,1.53-1.62h-.09a3.35,3.35,0,0,0-.81.09Q465.35,30.32,464.36,31.67Zm5.13,27.18V56.42q-1.26,1.17-4.86,4.86l-.18,2.43Zm0-3.69V53.27q-.54.63-1.26,1.35a15.28,15.28,0,0,1-1.08,1.17L465.89,57A7.15,7.15,0,0,0,465,58l-.18,1.8Q467.87,56.69,469.49,55.16ZM471,30q-.45-.36-1-.72a30.25,30.25,0,0,0-5,5.58,3.93,3.93,0,0,0,1.08.9,29.13,29.13,0,0,1,2.52-3Zm-1.53,21.87V49.31q-1.53,1.44-4.05,4.32l-.27,2.88L467.6,54Q468.77,52.73,469.49,51.83Zm-1.17-2.61-2.34.09-.36,2.7Q467.15,50.3,468.32,49.22Zm4.14-17.1a5.37,5.37,0,0,0-.81-1.53l-2.34,2.7-2.52,2.88a3.21,3.21,0,0,0,.81.27l1,.18,1.62-2.07L472,32.3A.61.61,0,0,1,472.46,32.12ZM469,90.62l-1.8,2.25,1.8-.18Zm3.6-57.6-1.62,2.07q-1.08,1.35-1.26,1.53a3,3,0,0,0,2.88-2.79A1.84,1.84,0,0,0,472.55,33Z"/><path class="cls-3" d="M479.48,45.89q12.6-5,20.34-4.41,11.7.9,15,13.5a25.85,25.85,0,0,1,.81,5.67q0,3-.41,7c-.27,2.67-.43,4.39-.49,5.17a225,225,0,0,1-2.34,25.74,1.58,1.58,0,0,1-1.71,1.44,1.89,1.89,0,0,1-1,.27,85.24,85.24,0,0,1-8.55-.27,1.68,1.68,0,0,1-1.17-.67,1.59,1.59,0,0,1-.36-1.22q-.18-1.89-.18-2.16-13.41,1.62-19.17-4.41a12.26,12.26,0,0,1-3.24-7,16.2,16.2,0,0,1,.81-7.79,24,24,0,0,1,5.22-8.55,21.53,21.53,0,0,1,8.59-5.67,15,15,0,0,1,10.58.27q-.45-7.29-3.87-8.28-3.6-1.08-12.6,3.69a2.41,2.41,0,0,1-.9.18,1.78,1.78,0,0,1-1.71-.81A79.65,79.65,0,0,1,478.49,49a1.73,1.73,0,0,1-.18-1.08A1.68,1.68,0,0,1,479.48,45.89Zm1.17,38.7a109.87,109.87,0,0,1,10.08-17.73q-.45.18-.81.36A82.68,82.68,0,0,1,485.06,75q-3.33,5-4.59,7.29A15.37,15.37,0,0,0,480.65,84.59Zm.18-4.77q.9-1.62,3.51-5.4,2.88-4.14,4.05-6.21a19.15,19.15,0,0,0-7.11,9.72Q481,78.92,480.83,79.82Zm1.17,8.1a73.49,73.49,0,0,1,5.22-11.2,117.27,117.27,0,0,1,6.75-11q-.81.18-1.71.45A113.62,113.62,0,0,0,481,85.94,7.65,7.65,0,0,0,482,87.92Zm4-40.59-3.6,1.35,1.35,2.79Q485.06,48.86,486,47.33Zm4.23,27.72A13.22,13.22,0,0,1,491.54,73l2-3a15.78,15.78,0,0,0,2.34-4.59,1.7,1.7,0,0,0-.54.09A86,86,0,0,0,488.07,77a74.83,74.83,0,0,0-5.44,11.74l.27.27.18.18,4.14-8.55a10.05,10.05,0,0,1,1.17-3.33A9.29,9.29,0,0,1,490.19,75.05Zm-3.06,7.65-3.42,7.11,1.08.72q.27-.54.81-1.71t.63-1.44a22.68,22.68,0,0,1,1.62-2.7,1.13,1.13,0,0,1-.27-.45A11.39,11.39,0,0,1,487.13,82.7Zm1.53-36.18-1.35.45a35.91,35.91,0,0,0-3.06,5.49l1.08,1.8Q485.69,53.18,488.66,46.52Zm1,40.32a8.86,8.86,0,0,1-1.35-1.26A21.74,21.74,0,0,0,487,87.83c-.06.12-.27.59-.63,1.4s-.63,1.39-.81,1.75q.81.36,1.71.72Zm.18-40.59q-.27.45-1.53,3.24l-1.89,4.32q1.35-.63,2.52-1.08l.54-1.26,1.17-2.79a33.08,33.08,0,0,1,1.71-3.06Q491.09,45.89,489.83,46.25Zm1.44,41.4q-.45-.18-.81-.36-.18.45-2.25,4.68a8.32,8.32,0,0,1,1,.27A27,27,0,0,1,491.27,87.65Zm2.7-42.3-.36.09a18.53,18.53,0,0,0-2.07,3.6l-1.26,2.79-.18.36.72-.27a.08.08,0,0,1,.09-.09Q492.17,49.4,494,45.35Zm-1.8,42.57a24,24,0,0,0-2.07,4.41,2.64,2.64,0,0,0,.63.09A12.94,12.94,0,0,1,492,90.53a9.51,9.51,0,0,1,2.07-2.25A9.58,9.58,0,0,1,492.17,87.92Zm8.37-11.61a6.73,6.73,0,0,0-5.31-.45,7.16,7.16,0,0,0-3.69,3.24,4.31,4.31,0,0,0-.63,3.78q.63,1.62,3.6,1.8a7.33,7.33,0,0,0,3-.36,9.15,9.15,0,0,0,2.61-1.71A38.28,38.28,0,0,0,500.54,76.31Zm-5.31,12.15a8.06,8.06,0,0,0-2.52,2.61,13.36,13.36,0,0,0-1,1.53q1.08.09,2.16.09a42.24,42.24,0,0,1,1.8-4.41h-.27A.16.16,0,0,1,495.23,88.46Zm1.44-43.38a14.66,14.66,0,0,0-1.62.09q-1.8,4-3.06,6.39a8.32,8.32,0,0,1,1-.27,23,23,0,0,1,2.16-3.78Q496.22,45.89,496.67,45.08Zm1-.09a16.8,16.8,0,0,1-1.8,3,19.18,19.18,0,0,0-1.8,3.06q.9-.18,1.8-.27.72-.9,3.6-5.67A16.4,16.4,0,0,0,497.66,45Zm-.81,26.91a46.22,46.22,0,0,1,3.69-5.85,5.13,5.13,0,0,0-.9-.27,17.64,17.64,0,0,0-3.6,3.87q-.54.72-1.89,2.7l-.09.09A7.45,7.45,0,0,1,496.85,71.9ZM494.6,70l.72-.9a17.72,17.72,0,0,1,3.15-3.6,15.5,15.5,0,0,0-1.71-.09A14.69,14.69,0,0,1,494.6,70Zm3.33,18-1.26.18a39.05,39.05,0,0,0-1.8,4.5,11.6,11.6,0,0,0,1.44-.09A25.12,25.12,0,0,0,497.93,88Zm3.42-42.75a4.58,4.58,0,0,0-.9-.09q-3.33,5.4-3.42,5.58h.45Q497.66,50.57,501.35,45.26Zm-2.43,42.39a20.85,20.85,0,0,1-1.62,4.86h.18q1.35-2.7,3.15-5.76A15.89,15.89,0,0,1,498.92,87.65Zm.9-15.48A26.72,26.72,0,0,0,502.7,67a12.33,12.33,0,0,0-1.26-.63,37.93,37.93,0,0,0-3.51,5.58A7.18,7.18,0,0,1,499.82,72.17Zm3.6-26.28a3.81,3.81,0,0,0-1.08-.36q-.36.54-1.8,2.43l-2.07,2.88.9.18a.37.37,0,0,0,.27.09Q501.35,48.59,503.42,45.89Zm-1.71,40.77q-1.8,3.06-3.15,5.76l1.53-.18a42.37,42.37,0,0,1,3-5.58q1.8-2.88,4.36-6.3t3.65-5l.09-2.7v-.36L503.6,83.69l-.18,1.44A1.62,1.62,0,0,1,501.71,86.66Zm2.61-40.5q-2.16,2.79-3.78,5.31a9.46,9.46,0,0,1,1.44.9,53,53,0,0,1,3.51-5.49Q505,46.52,504.32,46.16Zm-3.6,26.28.18.09q.54-.63,2.25-2.52l2.61-2.7,2.11-2.56c.87-1,1.64-2,2.3-2.93s1.26-1.8,1.8-2.7a14.56,14.56,0,0,0-.27-1.71,42.39,42.39,0,0,1-3.06,3.15,18.29,18.29,0,0,0-2.7,2.88v2.07a1.47,1.47,0,0,1-.27,1.08,1.57,1.57,0,0,1-2.16.81A32.64,32.64,0,0,1,500.72,72.44Zm10.08,7.65q.09-1.44.18-3.06l-3.33,4.5q-2.52,3.51-4,5.9a43.11,43.11,0,0,0-2.56,4.72,3.49,3.49,0,0,1,.45.18,2,2,0,0,1,.81.36l4.14-5.76A68.63,68.63,0,0,0,510.8,80.09Zm-9-7.2a3.52,3.52,0,0,1,.81.45,1.41,1.41,0,0,1,.36.27,2.4,2.4,0,0,1,.63.45q.27-.27,3.6-4.32a46.32,46.32,0,0,0,4.23-5.85.44.44,0,0,1,.54-.27,24.47,24.47,0,0,0,0-3,24.38,24.38,0,0,1-1.67,2.52c-.63.84-1.36,1.74-2.2,2.7l-2,2.25-2.34,2.61Q502.25,72.44,501.8,72.89Zm5.4-24.75a6.48,6.48,0,0,0-1-.81,46.87,46.87,0,0,0-3.6,5.67l.54.54Q506.21,49.67,507.2,48.14Zm3.42,34q-1.26,2.16-3.42,5.31l-4.32,5.94a1.6,1.6,0,0,1,.18.72V95a63.18,63.18,0,0,0,7.47-11.16A15.5,15.5,0,0,0,510.62,82.16Zm-.54,7q.18-1.53.27-3.15a58.6,58.6,0,0,1-7.29,10.26l.09.27q.9.09,2.07.09A56.33,56.33,0,0,1,510.08,89.18Zm-1.44-39.33a12.66,12.66,0,0,0-.81-1.08q-.9,1.44-4.14,5.58l.63,1.08A29.2,29.2,0,0,1,508.64,49.85Zm-4.5,28.62q-.09,1.44-.27,3.15l3.33-5,4.14-6.21a6.06,6.06,0,0,1,.09-1Q508,74,504.14,78.47Zm-.09-3.42q.09.9.09,2,4-4.77,7.38-9.36a24.06,24.06,0,0,0,.27-2.79,41.8,41.8,0,0,1-3.87,5.49Q504.41,74.51,504.05,75.05Zm5.76-23.4a10.06,10.06,0,0,0-.63-1.08,28.88,28.88,0,0,0-4.5,5.85,6.38,6.38,0,0,1,.27.81Q507.83,54.08,509.81,51.65Zm.45.9q-2,2.43-5,5.67a13.41,13.41,0,0,1,.27,1.35l2.25-2.79a23.55,23.55,0,0,0,2.7-3.69Zm.63,1.62a23.77,23.77,0,0,1-2.43,3.15,33.77,33.77,0,0,0-2.79,3.6q.09.63.18,1.17.72-.81,2.16-2.16a40.19,40.19,0,0,0,3.51-3.69.8.8,0,0,1-.09-.36Q511.16,55,510.89,54.17Zm-1,36.72a54,54,0,0,0-3.69,5.76h2.88Q509.54,93.95,509.9,90.89Z"/><path class="cls-3" d="M574.52,67.13c-4.45-1.32-7.35-2.13-8.73-2.43q-5.4-1-7.65.36a8.32,8.32,0,0,0-3.24,4,12.32,12.32,0,0,0-1,5.76A9.83,9.83,0,0,0,555.57,80a6.07,6.07,0,0,0,4.1,2.56c2,.42,4.44-.21,7.2-1.89a52.27,52.27,0,0,0,6.93-5.4l.09-.09a1.13,1.13,0,0,1,.45-.63,1.68,1.68,0,0,1,1.35-.45,1.75,1.75,0,0,1,1.17.63l4.86,6.12a2.29,2.29,0,0,1,.54.54,2,2,0,0,1,.22,1.35,1.8,1.8,0,0,1-.76,1.17q-1.35.9-5,3.78a55.62,55.62,0,0,1-5.31,4q-6.84,4.5-13.68,3.06a18.63,18.63,0,0,1-11.48-7.2,22.39,22.39,0,0,1-4.36-12.69,24.05,24.05,0,0,1,3.24-13.14,19.61,19.61,0,0,1,10.26-8.73c3.06-1.14,6.89-1.44,11.52-.9q1.08.09,5.58.81,3.24.45,5.13.54a1.53,1.53,0,0,1,1.21.59,2,2,0,0,1,.5,1.3v.27a2,2,0,0,1,.45,1.53,24.78,24.78,0,0,1-.54,2.61q-.36,1.35-1,3.15t-.81,2.25a1.9,1.9,0,0,1-.63.9,1.63,1.63,0,0,1-.86,1.08A1.61,1.61,0,0,1,574.52,67.13Zm-29.07,5a31.13,31.13,0,0,1,5.13-1.17,1.48,1.48,0,0,0,.09-.45l-1.26.18q-3.06.27-3.87.45A5.06,5.06,0,0,1,545.45,72.08Zm0,1.89a25.13,25.13,0,0,1,4.86-1.71h.09v-.45a39.47,39.47,0,0,0-4.95,1.26Zm.18,2.7a35.34,35.34,0,0,1,4.68-1.62V73.16a28.23,28.23,0,0,0-4.86,1.8A7.87,7.87,0,0,0,545.63,76.67Zm.36-7.83a7.87,7.87,0,0,0-.27,1.35,29.4,29.4,0,0,1,3.6-.45,9,9,0,0,0,1.62-.27l.36-1.08q-1.17.18-3,.27a3.78,3.78,0,0,1-1,.14C546.72,68.83,546.29,68.84,546,68.84Zm0,9.9q.81-.45,2.07-1.08,2-1,2.43-1.17a1.7,1.7,0,0,1-.09-.54,34.84,34.84,0,0,0-4.68,1.62A10.67,10.67,0,0,1,546,78.74Zm.27-10.8a4.42,4.42,0,0,1,1-.09,4.58,4.58,0,0,0,1-.09,20.83,20.83,0,0,0,3.33-.36,5.88,5.88,0,0,0,.36-.63,16.11,16.11,0,0,0-5.67.9Zm.45,13a32.09,32.09,0,0,0,4.23-2.25,9.44,9.44,0,0,1-.27-1.26l-2.25,1.08-2.16,1.17A10.57,10.57,0,0,0,546.71,80.9Zm0-14.31a18.73,18.73,0,0,1,5.76-.72,9.48,9.48,0,0,1,.54-.81,27.28,27.28,0,0,0-5.31-.81A21.1,21.1,0,0,0,546.71,66.59Zm1.17,16.83a17.23,17.23,0,0,1,2-1.44l1.89-1.44a5,5,0,0,1-.45-1,40.93,40.93,0,0,1-4.23,2.25A17.47,17.47,0,0,0,547.88,83.42Zm.36-20.07a36,36,0,0,1,5.4.9l.18-.18A48.56,48.56,0,0,0,549,62.18Q548.6,62.81,548.24,63.35ZM549,85.13l3.51-3.33a1.13,1.13,0,0,1-.27-.45l-1.8,1.35a20.72,20.72,0,0,0-2.07,1.53A8.19,8.19,0,0,1,549,85.13Zm4.14-22.32-1.08-.9a17.24,17.24,0,0,0-1.71-1.26,8.27,8.27,0,0,0-.72.81Q551.48,62.09,553.1,62.81Zm-3.51,23,1.08,1.26q1.26-1.89,2.88-3.87l-.54-.72ZM550.94,60l1.62,1.17L554.9,63l.18-.18a26.2,26.2,0,0,1-3.42-3.51A4.07,4.07,0,0,0,550.94,60Zm1,28.17a41.45,41.45,0,0,0,3.15-3.69l-.81-.63a35.19,35.19,0,0,0-2.88,3.78Zm.45-29.52a20.62,20.62,0,0,0,3.51,3.6,1.13,1.13,0,0,1,.45-.27,3.32,3.32,0,0,1,.81-.45l-.72-1q-1.62-2.25-2.16-3.15Zm1.8,31a17.34,17.34,0,0,0,2.34-4.32L555.8,85a35,35,0,0,1-3.15,3.78Q553.37,89.18,554.18,89.63ZM555,57.05l2.16,3,.81,1.26a.37.37,0,0,1,.27-.09,11.67,11.67,0,0,1-1.53-4.95l-.09.09A9.57,9.57,0,0,0,555,57.05Zm1.62,33.57q.27-.63,1.35-4.77l-.63-.18A17.34,17.34,0,0,1,555,90Q555.8,90.35,556.61,90.62Zm2.43.63.9-5a6.06,6.06,0,0,1-1-.09l-.09-.09q-1.08,4.05-1.35,4.86l.9.18ZM557.6,56v.09a10.08,10.08,0,0,0,1.53,4.86,3.29,3.29,0,0,1,.81-.09,23.36,23.36,0,0,1-.18-3.33,15.52,15.52,0,0,0-.09-2A21,21,0,0,0,557.6,56Zm3.24,35.46a17.58,17.58,0,0,0,.9-5.22,4.58,4.58,0,0,1-.9.09l-.9,5A4.5,4.5,0,0,0,560.84,91.43Zm-.27-36a15.52,15.52,0,0,1,.09,2,22.24,22.24,0,0,0,.18,3.33h1.26q0-3.69-.09-5.4A11.6,11.6,0,0,0,560.57,55.43Zm2.25,35.91q-.09-1.17-.09-3.33V86.12a22.77,22.77,0,0,1-.9,5.31A6.06,6.06,0,0,1,562.82,91.34Zm.09-36q.09,1.71.09,5.4a6.06,6.06,0,0,1,1,.09,17.56,17.56,0,0,1,.36-2.43q.36-1.89.45-3Q563.81,55.34,562.91,55.34Zm.72,32.22V88q0,2.07.09,3.15l.63-.18Q563.9,89.18,563.63,87.56Zm2.43,2.88q-.09-.9-.45-3.33-.09-1.08-.18-1.8a4,4,0,0,1-1,.36,26,26,0,0,0,.72,5A5.13,5.13,0,0,0,566.06,90.44ZM565.34,58l.36-.81c.24-.72.41-1.29.54-1.71h-.54Q565.61,56.51,565.34,58Zm1.8-2.43a17.16,17.16,0,0,1-.63,1.89A22.23,22.23,0,0,0,565.43,61l.81.18A17.46,17.46,0,0,1,567,58.4l.81-2.7Zm.72,33.93q-1-3.51-1.17-4.68l-.36.09q.09.81.18,2c.23,1.5.39,2.55.45,3.15Zm.81-33.66c-.12.36-.29.89-.5,1.58s-.35,1.09-.4,1.21a27.12,27.12,0,0,0-.63,2.7l.72.09q.63-1.71,2.25-5.4Zm-.54,31.5q-.09-1.62-.27-3.15l-.36.18C567.62,85.19,567.82,86.18,568.13,87.38Zm2.34.54c-.12-.42-.35-1.12-.68-2.11s-.55-1.76-.67-2.3l-.36.18h-.09a50.66,50.66,0,0,1,.45,5.13l.27-.18Zm.63-31.68a49.23,49.23,0,0,0-2.34,5.49l.27.09q1.62-3,2.7-5.49Zm1.17,30.33-.18-.18c-.06-.18-.31-.73-.72-1.66s-.72-1.64-.9-2.12l-.63.36a20,20,0,0,0,.72,2.3c.36,1,.59,1.66.72,2Zm.36-30.15a58.27,58.27,0,0,1-2.7,5.58l.72.18a49.28,49.28,0,0,0,3.24-5.58ZM574.16,85l-2-3.69-1,.72q.27.72,1,2.25A10.27,10.27,0,0,1,572.9,86Zm.72-28.26a57.75,57.75,0,0,1-3.33,5.67l.63.18c1.8-2.94,2.93-4.89,3.42-5.85ZM576,83.6q-1.08-1.8-2.34-3.51l-.72.63,2,3.78Zm-2.88-20.7,1.08.36q1.53-4.5,1.62-4.95Q575.24,59.39,573.08,62.9ZM576.68,83,578,82l-2.61-3.33-1.08.9A34.35,34.35,0,0,1,576.68,83Z"/><path class="cls-3" d="M607.36,40.58a1.58,1.58,0,0,1,1.17-.45q12.6,0,19.44,8.37,6,7.47,5.49,18.36a32.56,32.56,0,0,1-2.07,9.81,33.61,33.61,0,0,1-4.9,8.78A24.62,24.62,0,0,1,618.66,92a25.83,25.83,0,0,1-10.4,3,26.4,26.4,0,0,1-11.65-1.62,20.75,20.75,0,0,1-8.51-5.94,27.91,27.91,0,0,1-5-8.73,28.64,28.64,0,0,1-1.62-10.08,29.57,29.57,0,0,1,1.67-9.81A30.16,30.16,0,0,1,588,50.12a23.93,23.93,0,0,1,8.14-6.52A29.19,29.19,0,0,1,607.36,40.58ZM585.13,70a30.18,30.18,0,0,0,6.3-1q.09-.81.18-1.71a45.28,45.28,0,0,0-6.48.54V70Zm.09-3.06a45.89,45.89,0,0,1,6.57-.54,12.15,12.15,0,0,1,.54-2l-2.34.09a34.87,34.87,0,0,1-4.5-.09Q585.31,65.69,585.22,67Zm.36,7.29L591.52,72q-.09-1-.09-2a35.5,35.5,0,0,1-6.21.9A29.76,29.76,0,0,0,585.58,74.24Zm.09-10.71a30.92,30.92,0,0,0,4.23.09c.36,0,.86,0,1.49,0l1.21,0,.27-.45a5.7,5.7,0,0,1,.54-1.26q-1.17-.18-3.15-.36-3-.36-4-.54Q585.94,62.27,585.67,63.53ZM586.3,77l2.61-1.53q1.8-1.08,2.88-1.8-.09-.45-.18-.81l-5.85,2.25Zm.27-16.92q.9.09,3.78.45a28.35,28.35,0,0,1,3.42.45l.72-1.08a37.19,37.19,0,0,0-7.65-.63A6.38,6.38,0,0,1,586.57,60.11Zm.9,19.89q4.14-3,5.22-3.6a10.57,10.57,0,0,1-.45-1.26l-.18-.54q-1.08.72-2.7,1.71l-2.79,1.62Zm-.27-21.6a34.38,34.38,0,0,1,7.83.72l.36-.54a27.4,27.4,0,0,1-7.29-2.07Zm1.89,24.39a13.3,13.3,0,0,1,2.43-2.52q.9-.81,2.34-1.89-.36-.54-.72-1.17-1,.54-5.31,3.6A11.11,11.11,0,0,0,589.09,82.79Zm-.54-27a33.6,33.6,0,0,0,7.47,2,11,11,0,0,1,.81-.9q-1.08-.45-3.06-1.44a35.65,35.65,0,0,0-3.87-1.8A18.91,18.91,0,0,0,588.55,55.79Zm2.52,29.61a21.18,21.18,0,0,1,2.07-3q1.71-2.07,2-2.52a4.18,4.18,0,0,1-.63-.81q-1.53,1.08-2.43,1.8a13.64,13.64,0,0,0-2.43,2.7Q590.35,84.59,591.07,85.4Zm-.63-32.49a33.06,33.06,0,0,1,3.69,1.71q2.25,1.08,3.42,1.53a6.76,6.76,0,0,1,.72-.63L596,53.18a15.36,15.36,0,0,0-3.33-2.79A17.8,17.8,0,0,0,590.44,52.91ZM592.87,87a17.69,17.69,0,0,1,2.16-3.6l1.62-2.16a9.82,9.82,0,0,1-.81-.72l-2,2.43a12.14,12.14,0,0,0-2.07,3.15Zm.54-37.26a17.6,17.6,0,0,1,3.24,2.79L599,54.89l.54-.27a28.31,28.31,0,0,0-1.71-2.43q-1.8-2.61-2.52-3.87A14.3,14.3,0,0,0,593.41,49.76Zm2,39.06a30.39,30.39,0,0,1,2.16-4.41q.72-1.17,1.08-1.89-.63-.36-1.17-.72L595.75,84a14.73,14.73,0,0,0-2.16,3.69A13.29,13.29,0,0,0,595.39,88.82Zm14-32.85a9.59,9.59,0,0,0-7.78,1.58,15.09,15.09,0,0,0-5.36,6.88,13,13,0,0,0-.63,9.54q1.71,4.68,7.2,6.3a10.06,10.06,0,0,0,8.91-1.44,14.52,14.52,0,0,0,5.4-7.92,13.32,13.32,0,0,0-.18-9.18,8.12,8.12,0,0,0-6.39-4.95A2,2,0,0,1,609.34,56ZM596,47.78q.72,1.26,2.52,3.87a28.31,28.31,0,0,1,1.71,2.43l1.08-.54-1.71-3.24q-1.08-2.16-1.89-3.51Zm2.07,42.3q.54-1.71,2.79-6.66l-1.44-.54q-.36.81-1.08,2.07a25.41,25.41,0,0,0-2.16,4.23l-.09.09Q597.1,89.72,598.09,90.08Zm.45-43.65a37.86,37.86,0,0,1,1.89,3.42l1.71,3.33.9-.36a.08.08,0,0,0-.09-.09,29.16,29.16,0,0,1-1.17-4.23L601,45.44Q599.71,45.89,598.54,46.43ZM601.15,91q.27-1.17,1-3.33.72-2.43,1-3.6l-1.26-.36h-.09a72.17,72.17,0,0,0-2.88,6.75A13.68,13.68,0,0,0,601.15,91Zm.63-45.81a32.45,32.45,0,0,1,.81,3.15,30.85,30.85,0,0,0,1.26,4v.18l.9-.18q0-5.4-.27-7.83Q603.13,44.81,601.78,45.17Zm1.8,46.26q0-.27.36-3.42a15,15,0,0,1,.81-3.78,3,3,0,0,1-.72-.09L603,87.92q-.72,2.52-.9,3.24A11.58,11.58,0,0,0,603.58,91.43Zm2.52.09q.09-1.26.81-7.29a7.13,7.13,0,0,1-1.17.09,10.81,10.81,0,0,0-.9,3.78q-.36,3.15-.36,3.33A14.66,14.66,0,0,0,606.1,91.52Zm-.72-47.07q.27,2.43.27,7.74a8.9,8.9,0,0,1,1.26-.09,22.9,22.9,0,0,0,.27-3.87v-4Q606.28,44.27,605.38,44.45Zm4.32,46.8q-.18-.9-.81-3.33t-1-3.78h-.09v.18q-.72,6.12-.81,7.2a6.56,6.56,0,0,1,1.08-.09Zm.54-47.16h-.36q-.9,0-1.8.09v4a22.9,22.9,0,0,1-.27,3.87l1.44.18a26.35,26.35,0,0,0,.54-4Q610.15,44.45,610.24,44.09ZM613,90.53q-.81-2.07-2.43-7.11a10.26,10.26,0,0,1-1.8.54q.36,1.44,1,3.69.63,2.52.81,3.42A15.89,15.89,0,0,0,613,90.53Zm-.09-46.44a14.3,14.3,0,0,0-1.8-.27q-.09.63-.45,4.59a26.35,26.35,0,0,1-.54,4,5.13,5.13,0,0,0,.9.27A74.05,74.05,0,0,1,612.94,44.09Zm2.88,45.36a23.45,23.45,0,0,1-3.24-6.93l-1.08.54q1.62,5.22,2.43,7.11A15,15,0,0,0,615.82,89.45Zm-.45-44.91-1.53-.36A62.42,62.42,0,0,0,612,52.91a4.94,4.94,0,0,0,.63.27l.81-2.79q.45-1.44,1.08-3.15T615.37,44.54Zm2.88,1-2-.72L615,48.41q-1.17,3.42-1.62,5.13l.27.09a1.79,1.79,0,0,1,.63.54l.45.18q.36-.9,1.8-3.87A20.19,20.19,0,0,0,618.25,45.53ZM618,88.19a41.23,41.23,0,0,0-2.25-3.78,13.43,13.43,0,0,1-1.44-3.06,8.19,8.19,0,0,1-.9.63,24.65,24.65,0,0,0,3.24,7A10.05,10.05,0,0,0,618,88.19Zm2.79-2.07A77.58,77.58,0,0,0,615.91,80a9.82,9.82,0,0,1-.81.72A8.93,8.93,0,0,0,616.54,84q2.16,3.6,2.25,3.69A14.66,14.66,0,0,0,620.77,86.12Zm-.36-39.42a5.84,5.84,0,0,0-1.35-.72,18.27,18.27,0,0,1-1.75,4.86,37.06,37.06,0,0,0-1.76,4,9.48,9.48,0,0,0,.81.54A42.61,42.61,0,0,0,620.41,46.7Zm2.79,37a23,23,0,0,1-5.76-5.58,9.28,9.28,0,0,1-1,1.17,71.18,71.18,0,0,1,5,6.21A16.31,16.31,0,0,0,623.2,83.69Zm-.81-35.64q-.54-.45-1.17-.9A48.32,48.32,0,0,1,617.08,56a3.58,3.58,0,0,0,.54.45Zm2,34.11q-1-.72-6.3-5l-.09.27a.08.08,0,0,1,.09.09,23.7,23.7,0,0,0,5.67,5.58ZM625,50.57a19.8,19.8,0,0,0-1.89-2l-4.86,8.55a5.87,5.87,0,0,1,.54.63A70.87,70.87,0,0,1,625,50.57Zm-.09,30.87a20.1,20.1,0,0,0,1.62-2.7,62.14,62.14,0,0,0-7.38-3.33q-.27.54-.54,1Q624,80.9,624.91,81.44Zm1.71-28.53a7.62,7.62,0,0,0-1.08-1.62,82.71,82.71,0,0,0-6.21,7.29q1.26-.81,3.33-2.43Q625.81,53.45,626.62,52.91Zm.36,25,.9-2.16a22.74,22.74,0,0,0-4.23-.9,25.15,25.15,0,0,1-3.87-.9,4.94,4.94,0,0,1-.27.63A68.78,68.78,0,0,1,627,77.93Zm1.89-20.07q-.36-1.17-.81-2.25l-1.89,1q-2,1.26-2.34,1.44a14.5,14.5,0,0,1-4,1.62l.54,1.08A88.65,88.65,0,0,1,628.87,57.86ZM628.24,75l.54-1.89q-6.93-1.89-8-2.07a8.32,8.32,0,0,1-.27,1l-.36,1.08a14,14,0,0,0,3.6.9A26.76,26.76,0,0,1,628.24,75Zm1.08-15.21a4.77,4.77,0,0,0-.27-1,66.52,66.52,0,0,0-8.37,2.88l.18.72q1.08-.36,4.41-1.17A23.23,23.23,0,0,0,629.32,59.75Zm-.27,12.42q.27-1.08.45-2.16-6.21-.45-8.46-.45a2.64,2.64,0,0,1-.09.63A72.06,72.06,0,0,1,629.05,72.17Zm.72-9.72q-.09-.9-.27-1.8a22.66,22.66,0,0,1-4,1.35q-3.33.9-4.41,1.26.09.45.18.81A44.11,44.11,0,0,0,629.77,62.45Zm-.18,6.66a12.6,12.6,0,0,0,.18-2.07,65.2,65.2,0,0,1-8.46.45,7.13,7.13,0,0,1-.09,1.17Q623.47,68.66,629.59,69.11Zm.18-5.76A39.87,39.87,0,0,1,621.31,65a7.31,7.31,0,0,1,0,1.62,66.08,66.08,0,0,0,8.55-.45Q629.86,64.7,629.77,63.35Zm-8.28-5.13q.81-.36,1.89-.9.36-.27,2.34-1.44a17.52,17.52,0,0,1,2-1.08,7.26,7.26,0,0,0-.63-1.17q-.72.54-3.87,3.15Q622.21,57.68,621.49,58.22Z"/><path class="cls-3" d="M636.61,39.68q6.12,0,7.83-.18a1.41,1.41,0,0,1,1,.18h.27a2,2,0,0,1,1.31.5,1.52,1.52,0,0,1,.58,1.21l.09,1.08a19.81,19.81,0,0,1,9.9-2.25,15,15,0,0,1,7.65,1.94,15.5,15.5,0,0,1,5.45,5.35A31.84,31.84,0,0,1,674,54.85a52.72,52.72,0,0,1,1.84,8.59,106.77,106.77,0,0,1,.54,17.28,87.3,87.3,0,0,1-1.8,14,1.63,1.63,0,0,1,.27,1.17,1.85,1.85,0,0,1-.67,1.22,1.64,1.64,0,0,1-1.31.4q-4.86-.45-9.72-.45a1.85,1.85,0,0,1-1.8-1.8,1.58,1.58,0,0,1,.45-1.17q0-2,.18-8.1t.18-9.72q0-12.06-1.53-16.92a7.27,7.27,0,0,0-3.78-4.68q-2.61-1.08-5,1.35-5.22,5.22-4.14,18.72.18,2.52.81,7.11t1,8.24a32.66,32.66,0,0,1,0,6.16,1,1,0,0,1-.09.45,2,2,0,0,1-.31,1.4,1.88,1.88,0,0,1-1.13.76,47.23,47.23,0,0,1-8.1.72,1.73,1.73,0,0,1-1.21-.45,1.77,1.77,0,0,1-.59-1.08l-.18-.54a75.58,75.58,0,0,1-2.56-13.81q-.76-7.69-.77-13.14t.27-14.45q.27-9,.27-13a1.7,1.7,0,0,1,.09-.54,1.68,1.68,0,0,1-.36-1.08,1.85,1.85,0,0,1,1.8-1.8Zm7.29,27.81q.09-.72.18-1.35-1.26.27-3.42.54l-2.52.36v1.44q1-.18,2.7-.45Zm0,1.89v-1l-3,.54q-1.8.27-2.79.45v1.08q.9-.09,2.61-.45A20.35,20.35,0,0,1,643.9,69.38Zm0,2.34V70.28l-3,.54q-1.8.45-2.79.63a6.56,6.56,0,0,1,.09,1.08,17,17,0,0,0,2.7-.27Zm.54-9.9a15.27,15.27,0,0,0-3.15.18,9.88,9.88,0,0,0-1.48.18,10,10,0,0,1-1.58.18v1.17q4.41-.09,6.12,0l.18-.9A4.17,4.17,0,0,0,644.44,61.82Zm-.27,3.33a3,3,0,0,1,.09-.72q-1.71-.09-6,0v1.71l2.34-.36A23.84,23.84,0,0,0,644.17,65.15Zm-.09,9a13.89,13.89,0,0,1-.09-1.53,8.83,8.83,0,0,1-.94.14,8.09,8.09,0,0,0-1.08.18,4.4,4.4,0,0,1-1,.13,13.15,13.15,0,0,1-2.79.36v.9c.66,0,1.64,0,2.93-.09S643.42,74.15,644.08,74.15Zm.09,1.89a6.06,6.06,0,0,0-.09-1c-.66,0-1.63,0-2.92.09s-2.27.09-2.93.09a6.56,6.56,0,0,1,.09,1.08c.72,0,1.73,0,3-.09S643.57,76.1,644.17,76Zm0-17.73q-2.79-.18-5.85-.09V59c.72-.06,1.74-.1,3.06-.13s2.25-.08,2.79-.14Zm.18,2.52a7.13,7.13,0,0,1-.09-1.17h-.09c-.6.06-1.56.11-2.88.14s-2.31.07-3,.13v1.53a8.36,8.36,0,0,0,1.4-.18,8.41,8.41,0,0,1,1.48-.18A23,23,0,0,1,644.35,60.83Zm.18,18q-.18-1-.27-1.89-.9.09-2.88.18t-3.06.09l.18,1.8Q641,78.83,644.53,78.83Zm-.27-23a61.29,61.29,0,0,1,.63-6.57,19.86,19.86,0,0,1-6.3.54v1.08q1.62-.27,5.49-.54a.45.45,0,0,1,0,.9,39.75,39.75,0,0,0-5.49.63l-.09,1.35q.81.09,5.4.09a.45.45,0,0,1,0,.9q-4.59,0-5.4-.09l-.09,1.71Zm-.09,1.62v-.72h-5.76v.63Q641.47,57.23,644.17,57.41Zm.63,24.12-.18-1.8q-3.51,0-6.12.18.09.81.18,1.71A58.47,58.47,0,0,1,644.8,81.53Zm.18-33.3.18-1.26a3.58,3.58,0,0,1-.54-.45,17.17,17.17,0,0,1-5.94.36q0,1-.09,2Q643.45,49,645,48.23Zm-.9-4.23v-.81q-1.89.09-5.4.09v1A22.31,22.31,0,0,0,644.08,44Zm0,.9a22.64,22.64,0,0,1-5.4.27V46a15.83,15.83,0,0,0,5.49-.27,1,1,0,0,1-.09-.45V44.9Zm1.08,39.15L645,82.52a50.91,50.91,0,0,0-6.21,0,8.9,8.9,0,0,0,.09,1.26A57.72,57.72,0,0,0,645.16,84.05Zm.27,2.61L645.25,85a57.72,57.72,0,0,1-6.3-.27q.18,1,.27,2Q641,86.75,645.43,86.66Zm.27,2.43a13.89,13.89,0,0,0-.09-1.53q-4.5.09-6.21,0a14.56,14.56,0,0,0,.27,1.71c.78,0,1.94,0,3.47-.09Zm.27,2.79L645.79,90q-.45,0-2.61.09t-3.42.09q.18.81.36,1.71Q642.1,92,646,91.88Zm0,.9H640.3l.36,1.26q4.5-.18,5.31-.27Zm0,1.89q-1,.09-5.13.27l.27,1.08a44.11,44.11,0,0,0,4.77-.45A4.58,4.58,0,0,0,646,94.67Zm-.9-38.07q0,2,.09,3.78a16.42,16.42,0,0,1,1.62-3.6h-.09a.4.4,0,0,1-.45-.45c0-.78.06-2.23.18-4.36a48.56,48.56,0,0,0,.09-4.91.26.26,0,0,1-.18-.09.69.69,0,0,1-.27.09,77.9,77.9,0,0,0-.9,8.82.36.36,0,0,1,.18.36A.35.35,0,0,1,645.07,56.6Zm2.34-9.72q.09,1.8-.09,5.13t-.18,4.14a12.66,12.66,0,0,1,.81-1.08V46.61l-.18.09A.52.52,0,0,1,647.41,46.88Zm3-1.71a7.62,7.62,0,0,0-1.53.81v8l.45-.45a11,11,0,0,1,.9-.81c0-.54,0-1.41.14-2.61s.13-2,.13-2.52S650.44,46.31,650.38,45.17Zm1.8-.72a5.13,5.13,0,0,0-.9.27,61.36,61.36,0,0,1-.09,7.29l.9-.54c0-.42,0-1,0-1.89s0-1.44,0-1.8Zm2.43-.45-1.53.18q.09,1.53,0,3.69c0,.36,0,.9,0,1.62s0,1.26,0,1.62a10.67,10.67,0,0,1,1.17-.27A47.28,47.28,0,0,1,654.61,44Zm2.79-.18a17.35,17.35,0,0,0-1.89.09,47.28,47.28,0,0,0-.45,6.84,3,3,0,0,1,.72.09q.18-1,.81-3.42A27.73,27.73,0,0,0,657.4,43.82Zm3.33.45a10.87,10.87,0,0,0-2.43-.45,28.15,28.15,0,0,1-.81,3.87q-.63,2.34-.81,3.24a16.31,16.31,0,0,1,1.62.45l.09.09a39.3,39.3,0,0,1,1.26-3.87Q660.46,45.26,660.73,44.27ZM664.42,46a13.69,13.69,0,0,0-2.79-1.44q-.27,1-1.17,3.33a31,31,0,0,0-1.17,4.05,4.4,4.4,0,0,1,.45.27Q660.82,51,664.42,46Zm2.16,2.07a16.29,16.29,0,0,0-1.44-1.44q-3.51,4.86-4.68,6.12l.18.18Q664,50,666.58,48.05Zm1.89,2.79a13.71,13.71,0,0,0-1.35-2.07q-2.61,2-5.85,4.77l.54.54A43,43,0,0,1,668.47,50.84Zm1.35,2.79a22,22,0,0,0-1-2.07,46.62,46.62,0,0,0-6.48,3.24,8.2,8.2,0,0,1,.81,1.44A48,48,0,0,0,669.82,53.63Zm1.08,3.42a24.89,24.89,0,0,0-.81-2.52,46.19,46.19,0,0,1-6.48,2.52,10.57,10.57,0,0,1,.45,1.26l.09.27A28.4,28.4,0,0,1,670.9,57.05Zm.72,2.79a17.42,17.42,0,0,0-.45-1.89,28.4,28.4,0,0,0-6.75,1.53,8.81,8.81,0,0,1,.27,1.44,16.68,16.68,0,0,1,3.33-.36,8.85,8.85,0,0,0,3.42-.63A.26.26,0,0,1,671.62,59.84Zm.54,2.79-.36-1.89a9.29,9.29,0,0,1-3.69.72,9.88,9.88,0,0,0-3.24.36,11.58,11.58,0,0,1,.27,1.53q1.26-.09,4.59-.45Q671.17,62.72,672.16,62.63Zm.09.9-2.43.27q-3.33.36-4.59.45l.18,1.89q5.94,0,7.2-.09-.18-1.08-.27-2.16Zm-.63,27.81-6.12-1a8.31,8.31,0,0,0-.09,1.17h3.06a12,12,0,0,1,3.06.18Zm-.27,1.17a22.7,22.7,0,0,0-2.88-.09h-3.06V93.5q2.88.09,5.67.27A6.6,6.6,0,0,0,671.35,92.51ZM672.79,68A6.56,6.56,0,0,1,672.7,67q-1.44.09-7.2.09a6.06,6.06,0,0,0,.09,1l4.68-.09Q671.71,67.94,672.79,68Zm-.72,20.16q-.45-.09-3.42-.36a10,10,0,0,1-3.06-.54l-.09,2.16,6.21,1Zm.81-18.45a3.35,3.35,0,0,0-.09-.81q-1.08-.09-2.52-.09l-4.68.09a14.66,14.66,0,0,1,.09,1.62Q669.73,69.92,672.88,69.74Zm-.36,15q-3.06,0-6.93-.27v1.89a10.31,10.31,0,0,0,3.15.54q3,.27,3.51.36Q672.34,86,672.52,84.77ZM673,73q0-1.17-.09-2.34-3.15.18-7.2.81v.72q1.17.18,3.78.36Q671.71,72.8,673,73Zm0,5.31h-7.2q0,1-.09,2.07l2.93.09c1.65.06,2.89.12,3.73.18a.4.4,0,0,1,.45.45Zm-.18,2.88a.43.43,0,0,1-.45.36q-1.35-.09-3.78-.18l-2.88-.09V83.6q3.87.27,6.93.27Zm.18-7.29q-1.26-.18-3.6-.45-2.52-.18-3.6-.36V74.6a66,66,0,0,0,7.2.27Zm0,3.51V75.77a66,66,0,0,1-7.2-.27v1.89Z"/><ellipse class="cls-4" cx="811.87" cy="77.5" rx="30" ry="70.74"/><ellipse class="cls-4" cx="811.06" cy="77.73" rx="29.51" ry="71.89" transform="translate(291.99 705.76) rotate(-55.9)"/><ellipse class="cls-4" cx="811.16" cy="77.68" rx="71.89" ry="29.51" transform="translate(95.92 468.12) rotate(-34.1)"/><ellipse class="cls-5" cx="872.51" cy="56.16" rx="12.88" ry="12.58"/><ellipse class="cls-6" cx="748.27" cy="48.93" rx="12.88" ry="12.58"/><ellipse class="cls-7" cx="814.22" cy="149.19" rx="12.88" ry="12.58"/><ellipse class="cls-8" cx="810" cy="63.77" rx="13.89" ry="3.29"/><line class="cls-8" x1="823.77" y1="62.92" x2="823.77" y2="91.26"/><line class="cls-8" x1="796.11" y1="92.38" x2="796.11" y2="64.15"/><path class="cls-8" d="M823.8,79.78c0,1.82-6.22,3.29-13.89,3.29S796,81.6,796,79.78"/><path class="cls-8" d="M823.71,71c0,1.81-6.22,3.29-13.89,3.29S795.94,72.79,795.94,71"/><path class="cls-8" d="M823.8,91c0,1.82-6.22,3.29-13.89,3.29S796,92.8,796,91"/><path class="cls-9" d="M899.16,176.69h0c-3.12,3.73-8,4.81-10.82,2.42l-65.07-62.33c-2.85-2.39.46,3,3.59-.76l1.08,3.71c-10-6-.57-5.15,2.29-2.75l69.43,48.63C902.51,168,902.29,173,899.16,176.69Z"/><path class="cls-10" d="M569.4,162.21q-.07,7.54-4.85,11.56-3.82,3.21-10.45,4a43.55,43.55,0,0,1-10.43-.1,38.37,38.37,0,0,1-4.72-.8l.21-31.19a44.9,44.9,0,0,1,14-1.23q11,.53,14.72,9.19a18.4,18.4,0,0,1,1,3.17,20,20,0,0,1,.45,2.75A13.64,13.64,0,0,1,569.4,162.21Zm-10.9-.16a6.77,6.77,0,0,0-.16-3,4.63,4.63,0,0,0-1.27-2.18,5,5,0,0,0-3-1.21,11.53,11.53,0,0,0-4.1.25l-.68,10.88a9.82,9.82,0,0,0,4.16.29,5.87,5.87,0,0,0,3.09-1.29A6,6,0,0,0,558.5,162.05Z"/><path class="cls-10" d="M577.66,179.85,566.14,176l16.93-33.26,19.26,31.75-8.69,5.63-2.78-5.31-11.23-.28Zm9.28-12.46-2.72-5.18-1.83,5Z"/><path class="cls-10" d="M597.09,145.59l27.8-1.39.35,9.26-9.48.59.67,24.06-11.19.43-.12-23.85-7.66.47Z"/><path class="cls-10" d="M641.27,179.2a17.37,17.37,0,0,1-6.74-1.91,16.06,16.06,0,0,1-5-4.08,15.39,15.39,0,0,1-3-5.73,15.66,15.66,0,0,1-.34-6.72,17.3,17.3,0,0,1,2.5-6.5,19.41,19.41,0,0,1,4.71-5.12,19.15,19.15,0,0,1,13.44-4,17.37,17.37,0,0,1,6.74,1.91,15.84,15.84,0,0,1,5.08,4.08,15.33,15.33,0,0,1,2.94,5.73,15.65,15.65,0,0,1,.34,6.72,17.43,17.43,0,0,1-2.48,6.5,19.66,19.66,0,0,1-4.73,5.12A19.15,19.15,0,0,1,641.27,179.2Zm-4.16-17.44a6,6,0,0,0,1.29,4.94,6.58,6.58,0,0,0,4.71,2.38,7.59,7.59,0,0,0,5.35-1.58,7,7,0,0,0,2.87-4.61A5.92,5.92,0,0,0,650,158a6.43,6.43,0,0,0-4.68-2.38,7.64,7.64,0,0,0-5.36,1.58A7.06,7.06,0,0,0,637.11,161.76Z"/><path class="cls-10" d="M682.4,145.24l-2.57,7.48c-2.69-.91-4.43-.79-5.24.37-1.06,1.5-.16,3.26,2.72,5.29a38,38,0,0,0,3.94,2.42l.49.28.43.23.84.45c.57.33,1,.58,1.23.76a8.74,8.74,0,0,1,3.58,5,9,9,0,0,1-.55,5.94,11.78,11.78,0,0,1-3.67,4.77,13.33,13.33,0,0,1-6.68,2.28,16.93,16.93,0,0,1-5.39-.53,40.09,40.09,0,0,1-5.49-1.7l4.2-7.42a6,6,0,0,0,3.79,1.23c1.12-.1,1.56-.76,1.32-2A4,4,0,0,0,674.1,168a13,13,0,0,0-2.87-1.87l-.9-.45-.89-.47c-.73-.37-1.34-.7-1.84-1q-4.61-2.7-5.62-6.8a9.52,9.52,0,0,1,.8-6.85,10.65,10.65,0,0,1,5-4.73,18.17,18.17,0,0,1,9.45-1.7A20.51,20.51,0,0,1,682.4,145.24Z"/></g></g></svg>