<svg xmlns="http://www.w3.org/2000/svg" viewBox="0 0 983.5 334.68"><defs><style>.cls-1{fill:#48acd3;stroke:#3c3c3b;stroke-miterlimit:10;stroke-width:3px;}.cls-2{fill:#1d1d1b;}</style></defs><title>Computadora</title><g id="Layer_2" data-name="Layer 2"><g id="Bloques_simples" data-name="Bloques simples"><path class="cls-1" d="M970,1.5H412.42L373.35,69.18h-250L84.27,1.5H13.5a12,12,0,0,0-12,12V254a12,12,0,0,0,12,12H84.56l38.79,67.18h250L412.13,266H970a12,12,0,0,0,12-12V13.5A12,12,0,0,0,970,1.5Z"/><path class="cls-2" d="M102.33,188.71a4,4,0,0,1-1.21,2.16q-12.37,14.34-30.66,14.35-19,0-30.46-13.91-10.66-12.94-10.67-32.37t10.86-32.5q11.55-14.09,30.53-14.09,19.23,0,29.77,13a4.06,4.06,0,0,1,1,2.22q0,1.08-3.36,6.38c-2.24,3.54-3.6,5.3-4.06,5.3s-1.84-1-3.87-3.11a34.28,34.28,0,0,0-7-5.71,24,24,0,0,0-12.06-3.11q-12.57,0-19.55,9.58-6.22,8.58-6.22,21.59t6.15,21.77q7,9.84,19.49,9.84A25,25,0,0,0,83,187a36,36,0,0,0,7.74-5.78q3.3-3.1,3.62-3.11c.26,0,1.65,1.68,4.19,5S102.33,188.37,102.33,188.71Z"/><path class="cls-2" d="M166.76,172.46a32.15,32.15,0,0,1-8.7,22.66,30,30,0,0,1-44.11.07,33.7,33.7,0,0,1,0-45.2A30.24,30.24,0,0,1,158,150,31.52,31.52,0,0,1,166.76,172.46Zm-13.4.13a19.37,19.37,0,0,0-4.76-13.2A15.83,15.83,0,0,0,136,153.61a16.11,16.11,0,0,0-12.64,5.71,20.66,20.66,0,0,0,.07,26.47,16.33,16.33,0,0,0,25.13,0A19.65,19.65,0,0,0,153.36,172.59Z"/><path class="cls-2" d="M272.19,201c0,1.65-.48,2.47-1.46,2.47-.63,0-1.59-.06-2.89-.19s-2.27-.19-2.95-.19-1.8,0-3.23.13-2.52.12-3.24.12c-.89,0-1.33-1-1.33-3s.07-4.86.22-8.73.22-6.78.22-8.72q0-16.06-.13-17.91c-.34-4.35-1.23-7.36-2.66-9-1.65-1.78-4.6-2.66-8.83-2.66q-4,0-9,3.8-5.21,4-5.4,7.87-.25,5-.25,18.1,0,3.1.25,9.33t.26,9.33q0,1.71-1.14,1.71c-.77,0-1.88-.06-3.34-.19s-2.57-.19-3.33-.19-1.67,0-3,.13-2.31.12-3,.12c-.84,0-1.27-.61-1.27-1.84,0-2,.07-5.08.19-9.17s.2-7.14.2-9.17v-15.3c0-4.78-.58-8.19-1.72-10.22q-2.41-4.32-9.2-4.31-4,0-9.52,3.36-6.1,3.67-6.1,7.43v18.53q0,3.18.07,9.46t.06,9.39c0,1.23-.49,1.84-1.46,1.84H177.42c-.85,0-1.27-.57-1.27-1.71q0-5.15.07-15.46t.06-15.45a110.27,110.27,0,0,0-2.48-23.17,6.66,6.66,0,0,1-.19-1.33q0-.83.57-1c1.57-.16,3.85-.48,6.86-.95a62.69,62.69,0,0,1,6.28-1.4l.51-.06c.51,0,1,1.49,1.43,4.48s.84,4.47,1.17,4.47l3.18-2.79a37.56,37.56,0,0,1,7.49-5.14,23.32,23.32,0,0,1,10.79-2.8q14.6,0,18.6,11.94a32.24,32.24,0,0,1,9.77-8.38,24.72,24.72,0,0,1,12.32-3.56q11.75,0,16.25,6.86,3.24,5.08,3.24,16.06c0,1.4-.05,3.55-.13,6.47s-.13,5.08-.13,6.48q0,4,.19,12T272.19,201Z"/><path class="cls-2" d="M348.24,172.84a33.08,33.08,0,0,1-8.13,22.28q-8.5,10-21.14,10a21,21,0,0,1-13.77-4.89c-1.78-1.65-3.55-3.32-5.33-5-.26.12-.42.46-.51,1q-.06.39-.06,7.11l-.07,17.9c0,1.35-.48,2-1.46,2q-9.76,0-11.55-.25a1.5,1.5,0,0,1-1.46-1.65q0-8.13.13-24.38t.12-24.37a194.35,194.35,0,0,0-1.9-28,9.08,9.08,0,0,1-.13-1,.84.84,0,0,1,.64-.89c1.61-.08,3.95-.32,7-.7q6.22-1.14,7-1.14c.72,0,1.18,1.27,1.39,3.81.13,1.69.24,3.36.32,5a1.72,1.72,0,0,0,.38,1,4.46,4.46,0,0,0,1-.89q8.88-9.08,18-9.08,12.57,0,21.2,9.84A32.63,32.63,0,0,1,348.24,172.84Zm-14.86-.25a20.43,20.43,0,0,0-4.76-13.4,15.5,15.5,0,0,0-12.5-6.15q-7.37,0-12.06,6.35a22.66,22.66,0,0,0,.12,26.78,15.22,15.22,0,0,0,12.45,6.16q7.23,0,12.18-6.41A21.37,21.37,0,0,0,333.38,172.59Z"/><path class="cls-2" d="M416.86,145.8q0,4.63-.39,14t-.38,14.06q0,4.63.29,13.87t.29,13.87a1.6,1.6,0,0,1-1.21,1.65q-.51.12-12.89.12c-.5,0-.81-1.58-.92-4.76s-.35-4.76-.73-4.76a1.8,1.8,0,0,0-.95.57q-10.61,9.21-21,9.21-14,0-18.53-10.16-2.79-6.28-2.79-22.6A113.6,113.6,0,0,1,360,145.93c.39-1.65,1.08-2.48,2.1-2.48,1.23,0,3.07,0,5.52.07s4.3.06,5.52.06c.85,0,1.27.47,1.27,1.4a66.7,66.7,0,0,1-.82,8.25,82.64,82.64,0,0,0-.95,8.69c-.13,2.54-.19,5.34-.19,8.38q0,11.12,1.58,14.92,2.73,6.85,12.13,6.86,4,0,9.45-3.94c3.86-2.75,5.84-5.4,6-7.93q.31-4.77.32-33.52c0-2.07.87-3.11,2.6-3.11H415C416.24,143.58,416.86,144.32,416.86,145.8Z"/><path class="cls-2" d="M465.16,191.69a37.8,37.8,0,0,1-.25,3.81c-.21,2-.34,3.28-.38,3.88a5.43,5.43,0,0,1-.19,1.39,2.72,2.72,0,0,1-1.21.89q-5.2,2.47-16.38,2.48-14.85,0-14.85-13.46,0-5.4.25-16.22t.26-16.22a2.5,2.5,0,0,0-2.61-2.79c-1.56,0-3.11,0-4.63-.06q-1.34-.31-1.33-5.21a31,31,0,0,1,.25-3.87,2.12,2.12,0,0,1,2-1.84c1.06,0,2.1,0,3.11-.07,1.95-.08,2.92-1,2.92-2.6s0-4.27-.16-7.74-.15-6.07-.15-7.81q0-4.64,1.77-4.63.57,0,11.94,2c1,.13,1.46.6,1.46,1.4,0,1.86-.14,4.66-.42,8.38s-.41,6.52-.41,8.38c0,1.23.57,1.84,1.72,1.84h15.23c.72,0,1.08.25,1.08.76a20.69,20.69,0,0,1-.22,2.45,21,21,0,0,0-.23,2.5c0,.64,0,1.61.07,2.92s.06,2.29.06,2.92c0,.81-.59,1.21-1.78,1.21q-2.53,0-7.68-.35t-7.68-.35c-.34,0-.59,1.21-.76,3.62q-.32,4.5-.32,12.63v9.46q0,5.46,1,7.62,1.53,3.3,6.28,3.3a28.89,28.89,0,0,0,5.78-.86,28.81,28.81,0,0,1,5.65-.86C464.91,190.55,465.16,190.93,465.16,191.69Z"/><path class="cls-2" d="M535.94,145.93a8.32,8.32,0,0,1-.19,1.14,152.58,152.58,0,0,0-2.48,25.07q0,.65,1.59,28.51l.06.88c0,1.23-.52,1.84-1.68,1.84a49,49,0,0,0-5.27.42,51,51,0,0,1-5.23.41c-.81,0-1.42-1.48-1.85-4.44s-.82-4.45-1.2-4.45-1.4.83-3.43,2.48a37.61,37.61,0,0,1-7,4.63,22.1,22.1,0,0,1-10,2.54q-12.31,0-20.76-9.84a32.75,32.75,0,0,1-8-21.9q0-14.08,8.06-23.29,8.44-9.59,22.22-9.59a24.11,24.11,0,0,1,17,6.73q1.08,1.27,3.36,3.68a.55.55,0,0,0,.39.19c.25,0,.61-1.33,1.07-4s1.06-4,1.78-4a39.12,39.12,0,0,1,6.41,1Q535.94,145,535.94,145.93Zm-16.19,26.53a20.29,20.29,0,0,0-4.63-13.39,15.4,15.4,0,0,0-12.51-6,16,16,0,0,0-12.69,6A20.05,20.05,0,0,0,485,172.46a19.7,19.7,0,0,0,4.89,13.33,16,16,0,0,0,12.69,5.9,15.52,15.52,0,0,0,12.44-6A20,20,0,0,0,519.75,172.46Z"/><path class="cls-2" d="M607.29,114.82q0,8.19-.73,24.54t-.73,24.47q0,25.06,1.08,38l.06.82c0,.43-.53.7-1.72.83a23.86,23.86,0,0,1-3.42,0l-2.48-.19c-.63,0-1.57.06-2.79.19s-2.16.19-2.79.19-.95-1.47-1-4.41-.27-4.44-.48-4.48a3.69,3.69,0,0,0-1,.83q-8.7,9.39-20,9.39a26.37,26.37,0,0,1-21.07-9.77A33.23,33.23,0,0,1,542.41,173q0-13.51,7.87-22.73,8.25-9.65,21.52-9.64a21.94,21.94,0,0,1,14,4.69q2.73,2.36,5.39,4.76a.82.82,0,0,0,.51-.88V128.6c0-1.4-.06-3.51-.19-6.35s-.19-5-.19-6.41c0-1,.34-1.52,1-1.52q2.34,0,7-.42c3.09-.27,5.39-.41,6.92-.41C606.93,113.49,607.29,113.94,607.29,114.82Zm-15.87,57.77a20.65,20.65,0,0,0-4.7-13.4A15.44,15.44,0,0,0,574.28,153a16.06,16.06,0,0,0-12.89,6.09,20.58,20.58,0,0,0-4.82,13.71,19.37,19.37,0,0,0,5,13.27,16.11,16.11,0,0,0,12.7,6,15.57,15.57,0,0,0,12.57-6A20.79,20.79,0,0,0,591.42,172.59Z"/><path class="cls-2" d="M676.09,172.46a32.14,32.14,0,0,1-8.69,22.66,30,30,0,0,1-44.12.07,33.73,33.73,0,0,1,0-45.2,29.11,29.11,0,0,1,22.09-9.52,28.82,28.82,0,0,1,22,9.52A31.52,31.52,0,0,1,676.09,172.46Zm-13.39.13a19.41,19.41,0,0,0-4.76-13.2,15.84,15.84,0,0,0-12.57-5.78,16.07,16.07,0,0,0-12.63,5.71,20.68,20.68,0,0,0,.06,26.47,16.34,16.34,0,0,0,25.14,0A19.7,19.7,0,0,0,662.7,172.59Z"/><path class="cls-2" d="M721.35,143.77a77,77,0,0,1-1,12.7c-.13,1-.55,1.46-1.27,1.46-.89,0-2.23-.1-4-.29s-3.16-.29-4.09-.29q-8,0-10.22,4.51-1.34,2.73-1.34,11.36v7c0,2.37.1,6,.29,10.79s.29,8.42.29,10.79c0,1.14-.49,1.71-1.46,1.71q-2,0-6-.06c-2.67,0-4.66-.07-6-.07-1,0-1.46-.52-1.46-1.58q0-5.14.16-15.49t.16-15.55q0-15.67-2.92-25.2a3.21,3.21,0,0,1-.13-.76,1.11,1.11,0,0,1,.83-1.08q2.34-.26,6.6-.77c4.57-.84,6.68-1.26,6.35-1.26.67,0,1.12,1.24,1.33,3.74s.59,3.75,1.14,3.75A.67.67,0,0,0,699,149l5.2-3.3a23.86,23.86,0,0,1,5.84-2.54,22,22,0,0,1,6.35-.76Q721.35,142.44,721.35,143.77Z"/><path class="cls-2" d="M790,145.93a6.93,6.93,0,0,1-.19,1.14,152.44,152.44,0,0,0-2.47,25.07q0,.65,1.59,28.51l.06.88c0,1.23-.52,1.84-1.68,1.84a48.84,48.84,0,0,0-5.27.42,51.1,51.1,0,0,1-5.24.41c-.8,0-1.42-1.48-1.84-4.44s-.82-4.45-1.21-4.45a16.79,16.79,0,0,0-3.42,2.48,37.65,37.65,0,0,1-7,4.63,22,22,0,0,1-10,2.54q-12.32,0-20.76-9.84a32.75,32.75,0,0,1-8-21.9q0-14.08,8.06-23.29,8.45-9.59,22.22-9.59a24.14,24.14,0,0,1,17,6.73q1.08,1.27,3.36,3.68a.55.55,0,0,0,.38.19c.26,0,.62-1.33,1.08-4s1.06-4,1.78-4a39.12,39.12,0,0,1,6.41,1Q790,145,790,145.93Zm-16.18,26.53a20.29,20.29,0,0,0-4.64-13.39,15.37,15.37,0,0,0-12.5-6,16,16,0,0,0-12.7,6,20.09,20.09,0,0,0-4.88,13.46A19.74,19.74,0,0,0,744,185.79a16.06,16.06,0,0,0,12.7,5.9,15.52,15.52,0,0,0,12.44-6A20,20,0,0,0,773.85,172.46Z"/></g></g></svg>