<svg xmlns="http://www.w3.org/2000/svg" viewBox="0 0 983.5 804"><defs><style>.cls-1{fill:#e8b950;stroke:#1d1d1b;stroke-miterlimit:10;stroke-width:3px;}.cls-2{font-size:130px;fill:#1d1d1b;font-family:BerlinSansFB-Reg, Berlin Sans FB;}</style></defs><title>Sensoresx1</title><g id="Layer_2" data-name="Layer 2"><g id="Sensores1"><path class="cls-1" d="M970,556.78H145.23V266H970a12,12,0,0,0,12-12V13.5a12,12,0,0,0-12-12H412.42L373.35,69.18h-250L84.27,1.5H13.5a12,12,0,0,0-12,12V254h0v330.9h0V723.65a12,12,0,0,0,12,12H84.75l38.6,66.85h250l38.59-66.85H970a12,12,0,0,0,12-12V568.78A12,12,0,0,0,970,556.78Z"/><text class="cls-2" transform="translate(53.99 203.52)">Sensores</text></g></g></svg>