<svg xmlns="http://www.w3.org/2000/svg" viewBox="0 0 983.5 1069.31"><defs><style>.cls-1{fill:#f9b807;stroke:#3c3c3b;stroke-miterlimit:10;stroke-width:3px;}.cls-2{font-size:130px;fill:#fff;font-family:BerlinSansFB-Reg, Berlin Sans FB;}</style></defs><title>Sensoresx2-light</title><g id="Layer_2" data-name="Layer 2"><g id="Sensores2"><path class="cls-1" d="M970,822.1H145.23V266H970a12,12,0,0,0,12-12V13.5a12,12,0,0,0-12-12H412.42L373.35,69.18h-250L84.27,1.5H13.5a12,12,0,0,0-12,12V254h0V989a12,12,0,0,0,12,12H84.75l38.6,66.85h250L411.94,1001H970a12,12,0,0,0,12-12V834.1A12,12,0,0,0,970,822.1Z"/><text class="cls-2" transform="translate(53.55 204.51)">Sensores</text></g></g></svg>