<svg xmlns="http://www.w3.org/2000/svg" viewBox="0 0 983.5 1341.53"><defs><style>.cls-1{fill:#e8b950;stroke:#3c3c3b;stroke-miterlimit:10;stroke-width:3px;}.cls-2{font-size:130px;fill:#1d1d1b;font-family:BerlinSansFB-Reg, Berlin Sans FB;}</style></defs><title>Sensoresx3</title><g id="Layer_2" data-name="Layer 2"><g id="Sensores3"><path class="cls-1" d="M970,1094.31H145.23V266H970a12,12,0,0,0,12-12V13.5a12,12,0,0,0-12-12H412.42L373.35,69.18h-250L84.27,1.5H13.5a12,12,0,0,0-12,12V254h0V1261.18a12,12,0,0,0,12,12H84.75l38.6,66.85h250l38.59-66.85H970a12,12,0,0,0,12-12V1106.31A12,12,0,0,0,970,1094.31Z"/><text class="cls-2" transform="translate(53.55 204.51)">Sensores</text></g></g></svg>