<svg xmlns="http://www.w3.org/2000/svg" viewBox="0 0 983.5 797"><defs><style>.cls-1{fill:#f9b807;stroke:#3c3c3b;stroke-miterlimit:10;stroke-width:3px;}.cls-2{fill:#3c3c3b;}</style></defs><title>Sensoresx1</title><g id="Layer_2" data-name="Layer 2"><g id="Sensores1"><path class="cls-1" d="M970,549.78H148.69V266H970a12,12,0,0,0,12-12V13.5a12,12,0,0,0-12-12H412.42L373.35,69.18h-250L84.27,1.5H13.5a12,12,0,0,0-12,12V254a9.82,9.82,0,0,0,.06,1.09H1.5V561.78h0V716.65a12,12,0,0,0,12,12H84.75l38.6,66.85h250l38.59-66.85H970a12,12,0,0,0,12-12V561.78A12,12,0,0,0,970,549.78Z"/><path class="cls-2" d="M110.08,127.07c-.84,1.4-2,3.51-3.49,6.35a56.8,56.8,0,0,1-2.47,5.58,1.19,1.19,0,0,1-1,.57s-2-.75-6.13-2.25a31.24,31.24,0,0,0-10.18-2.25q-11.69,0-11.68,10.28,0,5.72,8.19,10,13.77,7.17,15.23,8.25,8.19,6.54,8.19,17.64,0,14.22-11.24,22.41Q85.4,211,70.66,211c-4.57,0-7-.5-7.36-1.52-.17-1.61-.55-4-1.14-7q-.51-1.9-1.59-5.72a3.33,3.33,0,0,1-.19-1.08c0-.59.32-.89.95-.89,1,0,2.57.11,4.67.32s3.67.32,4.73.32q19.68,0,19.68-12.7,0-6.21-7.94-10.79Q68,163.63,67.68,163.31q-8-6.47-8-17.39,0-11.8,7.75-18.91Q75,120.14,87,120.15a48.91,48.91,0,0,1,11.68,1.65q7.17,1.85,10.79,4.44A2.83,2.83,0,0,1,110.08,127.07Z"/><path class="cls-2" d="M173.56,175.63q0,4.69-4.06,6.28-2.73,1-39.29,3.75c.54,3.72,2.6,6.9,6.15,9.52a18,18,0,0,0,10.92,3.74,29.41,29.41,0,0,0,18.41-6.47l2-1.65a1.14,1.14,0,0,1,.67.13c.1.08.9,1.55,2.38,4.41a37.72,37.72,0,0,1,2.22,4.6c0,.25-.34.74-1,1.46q-9.33,9.9-23.93,9.9t-23.48-8.79q-8.76-8.79-8.76-23.45a33.76,33.76,0,0,1,8.38-22.79q8.82-10.1,21.64-10.1a25.87,25.87,0,0,1,19.93,8.76A29.5,29.5,0,0,1,173.56,175.63Zm-15.11-3.87a12.7,12.7,0,0,0-4.15-9.34,13.14,13.14,0,0,0-9.37-4.06,14.09,14.09,0,0,0-10.38,4.7A14.83,14.83,0,0,0,130,173.6c0,.89.77,1.33,2.29,1.33a159.22,159.22,0,0,0,22.47-1.9C157.22,172.69,158.45,172.26,158.45,171.76Z"/><path class="cls-2" d="M238.37,208.45c0,.93-.42,1.39-1.27,1.39q-2.1,0-6.25-.06t-6.26-.06c-.76,0-1.14-.62-1.14-1.85,0-2.07.07-5.22.19-9.45s.19-7.41.19-9.53q0-2.53-.06-7.58t-.06-7.59q0-7.23-2.1-10.22-2.54-3.56-9.39-3.55-3.18,0-8.83,3.55-6,3.75-6,6.67v38.09c0,1.05-.41,1.58-1.21,1.58-1.35,0-3.39,0-6.09-.06s-4.74-.06-6.1-.06c-.89,0-1.33-.49-1.33-1.46q0-5,.16-15T183,178.1a102.38,102.38,0,0,0-2.86-24.94,2.91,2.91,0,0,1-.19-.83c0-.42.28-.72.83-.89l7.26-1.17q6.83-1.11,7.15-1.11c.25,0,.42.34.5,1a40.8,40.8,0,0,0,1.46,7.94c2.2-1.74,5.1-3.89,8.7-6.48a24.85,24.85,0,0,1,12.89-4.06q11.93,0,16.31,6.92,3.24,5.08,3.24,16.44c0,1.31,0,3.32-.1,6s-.09,4.74-.09,6.09q0,4.26.12,12.7T238.37,208.45Z"/><path class="cls-2" d="M280.14,190.16a18.09,18.09,0,0,1-7.56,15.18q-6.85,5.21-16.69,5.2a23.59,23.59,0,0,1-4.32-.19c-.72-.34-1.08-1.38-1.08-3.11a35.42,35.42,0,0,0-.35-4.19,37.07,37.07,0,0,1-.34-4.13q0-.82,1.14-1.08a7.54,7.54,0,0,1,2.35,0l1.9.2q12,0,12-7.37c0-2.33-1.76-4.46-5.27-6.41a99,99,0,0,1-9.84-5.78,14.77,14.77,0,0,1-5.27-11.8q0-9.52,7.17-14.86,6.48-4.75,16.38-4.76a1.37,1.37,0,0,1,1.3.83,40.79,40.79,0,0,1,1.59,5.14,32.3,32.3,0,0,1,1.17,5.21c0,.46-.4.76-1.2.88-2.71.39-5.44.74-8.19,1.08q-4.89,1.34-4.89,5.34c0,1.9,1.72,3.83,5.14,5.77q7.62,4.26,9.65,6.16A16.74,16.74,0,0,1,280.14,190.16Z"/><path class="cls-2" d="M346.79,178.8a32.15,32.15,0,0,1-8.7,22.66,30,30,0,0,1-44.12.07,33.73,33.73,0,0,1,0-45.2,30.25,30.25,0,0,1,44.06,0A31.52,31.52,0,0,1,346.79,178.8Zm-13.4.13a19.37,19.37,0,0,0-4.76-13.2A15.84,15.84,0,0,0,316.06,160a16.1,16.1,0,0,0-12.63,5.71,20.66,20.66,0,0,0,.07,26.47,16.31,16.31,0,0,0,25.13,0A19.65,19.65,0,0,0,333.39,178.93Z"/><path class="cls-2" d="M392.05,150.11a77,77,0,0,1-1,12.7c-.12,1-.55,1.46-1.27,1.46-.88,0-2.23-.1-4-.29s-3.16-.29-4.09-.29q-8,0-10.22,4.51-1.34,2.73-1.33,11.36v7c0,2.37.09,6,.28,10.79s.29,8.42.29,10.79c0,1.14-.49,1.71-1.46,1.71q-2,0-6-.06t-6-.06c-1,0-1.46-.53-1.46-1.59q0-5.15.16-15.49t.16-15.55q0-15.68-2.92-25.2a3.65,3.65,0,0,1-.12-.76,1.1,1.1,0,0,1,.82-1.08c1.57-.17,3.77-.43,6.6-.76q6.85-1.28,6.35-1.27c.68,0,1.12,1.24,1.33,3.74s.59,3.75,1.15,3.75a.64.64,0,0,0,.31-.13l5.21-3.3a23.53,23.53,0,0,1,5.84-2.54,21.92,21.92,0,0,1,6.34-.76Q392.05,148.78,392.05,150.11Z"/><path class="cls-2" d="M452.79,175.63q0,4.69-4.06,6.28-2.73,1-39.29,3.75.82,5.58,6.16,9.52a18,18,0,0,0,10.91,3.74,29.39,29.39,0,0,0,18.41-6.47l2-1.65a1.14,1.14,0,0,1,.67.13c.1.08.9,1.55,2.38,4.41a37.72,37.72,0,0,1,2.22,4.6c0,.25-.34.74-1,1.46q-9.33,9.9-23.93,9.9t-23.49-8.79Q395,193.72,395,179.06a33.76,33.76,0,0,1,8.38-22.79q8.82-10.1,21.64-10.1A25.9,25.9,0,0,1,445,154.93,29.53,29.53,0,0,1,452.79,175.63Zm-15.1-3.87a12.71,12.71,0,0,0-4.16-9.34,13.1,13.1,0,0,0-9.36-4.06,14.05,14.05,0,0,0-10.38,4.7,14.78,14.78,0,0,0-4.54,10.54c0,.89.76,1.33,2.28,1.33A159,159,0,0,0,434,173C436.46,172.69,437.69,172.26,437.69,171.76Z"/><path class="cls-2" d="M491.39,190.16a18.09,18.09,0,0,1-7.56,15.18q-6.85,5.21-16.69,5.2a23.59,23.59,0,0,1-4.32-.19c-.72-.34-1.08-1.38-1.08-3.11a35.42,35.42,0,0,0-.35-4.19,37.07,37.07,0,0,1-.34-4.13q0-.82,1.14-1.08a7.54,7.54,0,0,1,2.35,0l1.9.2q12,0,12-7.37c0-2.33-1.76-4.46-5.27-6.41a99,99,0,0,1-9.84-5.78,14.77,14.77,0,0,1-5.27-11.8q0-9.52,7.17-14.86,6.48-4.75,16.38-4.76a1.37,1.37,0,0,1,1.3.83A40.79,40.79,0,0,1,484.5,153a32.3,32.3,0,0,1,1.17,5.21c0,.46-.4.76-1.2.88-2.71.39-5.44.74-8.19,1.08q-4.89,1.34-4.89,5.34c0,1.9,1.72,3.83,5.14,5.77q7.62,4.26,9.65,6.16A16.74,16.74,0,0,1,491.39,190.16Z"/></g></g></svg>