<svg xmlns="http://www.w3.org/2000/svg" viewBox="0 0 983.5 797"><defs><style>.cls-1{fill:#f9b807;stroke:#3c3c3b;stroke-miterlimit:10;stroke-width:3px;}.cls-2{font-size:130px;fill:#fff;font-family:BerlinSansFB-Reg, Berlin Sans FB;}</style></defs><title>Sensoresx1-light</title><g id="Layer_2" data-name="Layer 2"><g id="Sensores1"><path class="cls-1" d="M970,549.78H148.69V266H970a12,12,0,0,0,12-12V13.5a12,12,0,0,0-12-12H412.42L373.35,69.18h-250L84.27,1.5H13.5a12,12,0,0,0-12,12V254a9.82,9.82,0,0,0,.06,1.09H1.5V561.78h0V716.65a12,12,0,0,0,12,12H84.75l38.6,66.85h250l38.59-66.85H970a12,12,0,0,0,12-12V561.78A12,12,0,0,0,970,549.78Z"/><text class="cls-2" transform="translate(52.64 209.72)">Sensores</text></g></g></svg>