<svg xmlns="http://www.w3.org/2000/svg" viewBox="0 0 980.95 888.19">
    <defs>
        <style>
            .cls-1{fill:#e8b950;}.cls-2{font-size:130px;fill:#1d1d1b;font-family:BerlinSansFB-Reg, Berlin Sans FB;}
        </style>
    </defs>
    <title>
        Asset 1
    </title>
    <g id="Layer_2" data-name="Layer 2">
        <g id="Sensores">
            <path d="M969,0H401.69L371,54,99.8,55.65,67.22,0H12.45a12,12,0,0,0-12,12V252.5a12,12,0,0,0,12,12H254.1l38.75,66.19L564,329.05l36.75-64.55H969a12,12,0,0,0,12-12V12A12,12,0,0,0,969,0Z" class="cls-1"/>
            <rect width="505.95" height="181.51" x="-162.22" y="404.8" class="cls-1" rx="12" ry="12" transform="translate(-404.8 586.31) rotate(-90)"/>
            <path d="M969,622.06H601.13L565,685.53l-271.15,1.65-38.13-65.12H12.45a12,12,0,0,0-12,12V811a12,12,0,0,0,12,12H61.19l38.17,65.2,271.15-1.65L406.69,823H969a12,12,0,0,0,12-12V634.06A12,12,0,0,0,969,622.06Z" class="cls-1"/>
            <text class="cls-2" transform="translate(33.95 201.5)">
                Sensores
            </text>
        </g>
    </g>
</svg>
