<svg xmlns="http://www.w3.org/2000/svg" viewBox="0 0 260 260"><defs><style>.cls-1{fill:#ededed;stroke:#1d1d1b;stroke-miterlimit:10;stroke-width:10px;}</style></defs><title>temperatura-sensor</title><g id="Layer_2" data-name="Layer 2"><g id="Cuadritos"><rect class="cls-1" x="5" y="5" width="250" height="250" rx="12" ry="12"/><path d="M154.7,102.81q0,25.26,0,50.53a3.64,3.64,0,0,0,1.49,3.18c13.58,11.15,18.94,25.57,14.85,42.56-4.14,17.19-15.67,27.74-33,31.32-22.13,4.58-44.75-11.16-48.46-33.47-2.72-16.39,2.55-29.88,15.37-40.39a3.65,3.65,0,0,0,1.37-3.26q0-49.29,0-98.58c0-11.33,6.07-20.36,16.16-23.64,14.88-4.83,29.56,3.74,32.08,19a27.81,27.81,0,0,1,.16,4.48Q154.7,78.68,154.7,102.81Zm-6.92,2.51c0-17,.05-34,0-51-.05-12.3-10.48-20.18-22.27-16.92a16.66,16.66,0,0,0-12.14,16.43q0,51.54,0,103.09a3.65,3.65,0,0,1-1.8,3.44C99.9,168.54,94.53,179.71,96.23,194c2.26,18.86,20,32.39,38.9,29.87a34.92,34.92,0,0,0,29.23-26.49,34.28,34.28,0,0,0-14-36.4,5.27,5.27,0,0,1-2.6-5.08C147.83,139,147.78,122.17,147.78,105.32Z"/><path d="M82.73,115.63c3,0,6,0,9,0,1.65,0,2.88.54,2.91,2.33s-1.23,2.45-2.83,2.46c-6.12,0-12.24,0-18.37,0-1.59,0-2.84-.65-2.78-2.48s1.31-2.31,2.93-2.3C76.61,115.65,79.67,115.63,82.73,115.63Z"/><path d="M82.45,58.11c-3.06,0-6.12,0-9.18,0-1.59,0-2.64-.63-2.66-2.3s1.11-2.36,2.64-2.36q9.39,0,18.8,0c1.55,0,2.63.76,2.55,2.44s-1.18,2.25-2.75,2.23C88.71,58.08,85.58,58.11,82.45,58.11Z"/><path d="M82.35,89.2c-3,0-6,0-8.95,0-1.64,0-2.83-.56-2.79-2.4s1.17-2.23,2.73-2.23q9.28,0,18.58,0c1.58,0,2.66.6,2.68,2.28s-1,2.35-2.62,2.35Q87.17,89.19,82.35,89.2Z"/><path d="M85.78,73.76c-2,0-4,0-6.06,0-1.63,0-2.82-.69-2.75-2.51S78.18,69,79.71,69c4,0,8.08,0,12.12,0,1.54,0,2.71.61,2.77,2.27s-1.11,2.51-2.76,2.54C89.82,73.79,87.8,73.76,85.78,73.76Z"/><path d="M85.7,104.81H79.64c-1.56,0-2.64-.65-2.68-2.33s1.1-2.41,2.61-2.43c4.11-.06,8.23,0,12.34,0,1.53,0,2.7.7,2.7,2.36s-1.18,2.43-2.85,2.41C89.74,104.79,87.72,104.81,85.7,104.81Z"/><path d="M138.06,131.59c0,12.72,0,25.44,0,38.16a2.74,2.74,0,0,0,1.74,2.9,20.11,20.11,0,0,1,10.31,23.29,20.25,20.25,0,0,1-39.27-.81,20.06,20.06,0,0,1,10.07-22.23,3.46,3.46,0,0,0,2.14-3.61q-.08-37.38,0-74.75c0-4.66,2-7.68,5.69-8.56a7.46,7.46,0,0,1,9.37,7.45C138.08,106.15,138.06,118.87,138.06,131.59Z"/></g></g></svg>