<svg xmlns="http://www.w3.org/2000/svg" viewBox="0 0 164.94 225.06"><title>TrashClose</title><g id="Layer_2" data-name="Layer 2"><g id="Cuadritos"><path d="M110,0c8.22,3.18,9.84,5.56,10,14.92.07,4.8,0,9.6,0,15.08,10.27,0,20.19-.06,30.11,0a24.71,24.71,0,0,1,6.87.86,11,11,0,0,1,7.95,11.32,11.17,11.17,0,0,1-9.72,9.88,45.17,45.17,0,0,1-6.48.35q-66.18,0-132.37,0c-1.66,0-3.33,0-5-.16C4.64,51.69,0,47.16,0,41.29s5.08-11,11.79-11.21c9.49-.25,19-.08,28.47-.08,1.32,0,2.64,0,4.71,0,0-4.67,0-9.09,0-13.51C45,6.43,46.92,3.64,56,0ZM60.23,15.2V29.69h44.39V15.2Z"/><path d="M7.77,60.24H157.28c-.88,9.18-1.69,18.07-2.6,26.95q-3.31,32.5-6.71,65c-2,19-3.82,38.07-6,57.06-1,8.51-9.66,15.55-19.38,15.63q-40,.33-79.95,0c-11-.09-18.68-7.2-19.82-17.91-3.06-28.78-5.94-57.57-8.93-86.36C12,102.93,10.09,85.25,8.24,67.55,8,65.25,7.94,62.94,7.77,60.24ZM38,90.05H38q2.63,40.85,5.27,81.69c.5,7.64,1.12,15.28,1.73,22.91.39,5,3.51,8,7.86,7.83s7.1-3.46,7.09-8.55c0-2-.14-4-.27-6q-2.34-34.86-4.71-69.73c-.76-11.46-1.38-22.92-2.24-34.37-.45-6.06-3.85-9.34-8.59-8.79-4.59.52-6.92,4.11-6.5,10C37.73,86.73,37.89,88.39,38,90.05Zm89.07-.13H127a67,67,0,0,0,.47-7.47c-.19-4.2-2.51-6.94-6.73-7.33s-7.06,1.72-7.94,5.93A51.49,51.49,0,0,0,112,88q-1.91,27.39-3.76,54.78c-1.12,16.77-2.25,33.54-3.22,50.32-.33,5.81,2.54,9.3,7.19,9.45,4.44.14,7.38-3.05,7.76-8.51.44-6.31.82-12.62,1.25-18.93Q124.17,132.5,127.09,89.92ZM75,138.45q0,27.47,0,54.93c0,5.71,3,9.22,7.57,9.16S90,199,90,193.22q0-54.42,0-108.85c0-5.87-2.7-9.24-7.33-9.34-4.87-.11-7.66,3.3-7.67,9.49Q74.94,111.49,75,138.45Z"/></g></g></svg>