<svg xmlns="http://www.w3.org/2000/svg" viewBox="0 0 150.05 243.21"><title>TrashOpen</title><g id="Layer_2" data-name="Layer 2"><g id="Cuadritos"><path d="M31.78,243.21c-11.64-3.43-16.06-11.64-17.09-23.34C12.17,191.22,8.87,162.64,6,134,4.08,115.67,2.32,97.31.48,78.56H150.05c-.84,9-1.62,17.82-2.52,26.68q-3.33,32.74-6.76,65.5c-2,18.85-3.66,37.74-6.07,56.54-1.14,8.89-7.94,13.28-15.92,15.93Zm21-31.59c-1.91-28.47-3.74-55.87-5.58-83.27q-.7-10.69-1.42-21.41c-.15-2.16-.11-4.34-.46-6.47-.83-5-4.17-7.76-8.47-7.21-4.12.53-6.75,3.83-6.47,8.62.76,13,1.64,25.91,2.51,38.85q2.45,36.38,5,72.72a7.38,7.38,0,0,0,7.92,7.23c4.06-.26,6.8-3.25,7-7.64A14.1,14.1,0,0,0,52.75,211.62ZM119.9,108.08h-.11a57.64,57.64,0,0,0,.38-8c-.32-4-2.74-6.46-6.72-6.8s-6.8,1.57-7.77,5.5a41,41,0,0,0-.81,6.92q-1.94,27.64-3.78,55.28c-1.12,16.78-2.25,33.55-3.21,50.33-.34,5.78,2.58,9.28,7.23,9.4,4.43.11,7.34-3.09,7.72-8.57.44-6.31.82-12.62,1.25-18.93Zm-37.11,49q0-27.21,0-54.43c0-5.9-2.66-9.25-7.28-9.38-4.88-.14-7.71,3.29-7.72,9.45q0,54.44,0,108.86A12.11,12.11,0,0,0,68,215c1.19,3.76,3.83,5.8,7.82,5.63,4.18-.19,6.94-3.39,7-8.17C82.82,194,82.78,175.53,82.79,157.05Z"/><path d="M36.5,40.69C35.24,36,34,31.72,33,27.42c-2-8.48.77-13.55,9.15-15.9Q62.1,5.94,82.19.78C90.91-1.46,94.91,1,97.45,9.72c1.28,4.38,2.38,8.82,3.68,13.65,9-2.42,17.61-4.78,26.21-7a21.3,21.3,0,0,1,6.57-.77,9.76,9.76,0,0,1,8.83,8.13,10,10,0,0,1-6,10.45,42.23,42.23,0,0,1-5.92,1.94Q74,51.41,17.11,66.63c-1.29.35-2.58.72-3.89,1-6.41,1.23-11.75-1.69-13-7.08S2.44,50,8.62,48.19c7.44-2.12,14.93-4,22.4-6ZM87.84,26.75,84.48,14.19,46.27,24.43,49.63,37Z"/></g></g></svg>