<svg xmlns="http://www.w3.org/2000/svg" viewBox="0 0 260 260"><defs><style>.cls-1{fill:#ededed;stroke:#1d1d1b;stroke-miterlimit:10;stroke-width:10px;}</style></defs><title>ubicacion-sensor</title><g id="Layer_2" data-name="Layer 2"><g id="Cuadritos"><rect class="cls-1" x="5" y="5" width="250" height="250" rx="12" ry="12"/><path d="M133.09,203.45C127.46,197,122.09,191.1,117,185c-10-12-19.5-24.42-27-38.19-3.49-6.36-6.67-12.9-7.88-20.12a44.7,44.7,0,0,1,5.3-29.44c10.12-18.39,26-27.82,46.87-27.62,25.79.24,47.29,20.22,50.17,45.55,1.17,10.22-1.92,19.33-6.41,28.17-7.06,13.87-16.25,26.31-26.1,38.28C145.88,188.86,139.6,195.89,133.09,203.45Zm0-107.19a23.89,23.89,0,1,0,23.93,24A24.07,24.07,0,0,0,133.07,96.26Z"/></g></g></svg>