<svg xmlns="http://www.w3.org/2000/svg" viewBox="0 0 183.91 184.06"><defs><style>.cls-1{fill:#fff;}</style></defs><title>RayosUV</title><g id="Layer_2" data-name="Layer 2"><g id="Cuadritos"><path class="cls-1" d="M153.57,109.07c8.61-6.37,18.07-11.29,27.67-16,.83-.41,1.63-.87,2.67-1.42l-1.78-.94c-5.44-2.92-10.95-5.72-16.3-8.79A65.18,65.18,0,0,1,151.5,71.28c-2.71-2.77-4.38-6.06-3.76-9.93a65.23,65.23,0,0,1,3.08-13.19c3.36-8.68,7.31-17.13,11-25.67.18-.42.34-.86.63-1.57l-1.56.79C155,24.8,149.13,28,143.14,31a80.5,80.5,0,0,1-17.91,6.52c-5.35,1.2-10,.24-13.5-4.15-2.21-2.73-4.45-5.46-6.4-8.39A172.75,172.75,0,0,1,92.09,0c-.48,1-.82,1.71-1.17,2.42C88.05,8.18,85.31,14,82.27,19.66A60.93,60.93,0,0,1,72.14,33.82c-3,3-6.49,4.83-10.83,4.07a63.61,63.61,0,0,1-9.79-2.3A160.78,160.78,0,0,1,23.8,22.46c-.57-.33-1.19-.59-2.11-1,2.17,3.67,4.16,6.93,6,10.26,4.39,7.8,8.18,15.85,10.18,24.63,1.48,6.45.27,12.19-4.64,16.85a58.26,58.26,0,0,1-5.94,5c-7.59,5.46-16,9.41-24.59,13-.82.34-1.63.71-2.73,1.19l1,.46c6.59,3.24,13.26,6.33,19.76,9.75a51.56,51.56,0,0,1,13.56,9.87,11.69,11.69,0,0,1,3.56,9.26c-.33,4.85-1.89,9.36-3.57,13.85a191.78,191.78,0,0,1-12.19,25.66c-.24.43-.41.91-.62,1.36a9.06,9.06,0,0,0,2.43-1c4.77-2.54,9.48-5.19,14.32-7.58a88.88,88.88,0,0,1,19.86-7.39c4.75-1,9.15-.75,12.72,3.05,1.09,1.16,2.24,2.26,3.23,3.49,6,7.45,10.37,15.87,14.39,24.49l3,6.4c.36-.69.56-1,.73-1.4,1.93-4.11,3.76-8.27,5.82-12.32a90.73,90.73,0,0,1,11.88-18.51c3.47-4,7.55-6.59,13.1-5.66a56.16,56.16,0,0,1,7.58,1.72c9.44,3,18.09,7.65,26.73,12.35l5.23,2.86c-.36-.78-.5-1.1-.66-1.41-3.19-6.44-6.47-12.83-9.54-19.32a71.07,71.07,0,0,1-6.4-19.38c-.6-3.83.14-7.22,3.11-9.9C150.46,111.72,151.94,110.28,153.57,109.07ZM88.78,148.25A55.94,55.94,0,0,1,35.5,90.65c.9-31.27,26.35-54.81,57-54.63,31.8.89,55.81,26.59,55.21,57.23A56,56,0,0,1,88.78,148.25Z"/><path class="cls-1" d="M92.83,38.59c-29.91-.44-54.23,24.5-54.45,53.07-.23,30.89,26,54.64,53.55,54.06,27.18.48,53.22-22,53.57-53.07C145.83,63.46,121.71,39,92.83,38.59Zm-4.35,64.18q0,8.08-4.92,12.4t-14.5,4.3q-9.59,0-14.49-4.3T49.66,102.8V74.94H61v27.22c0,3,.64,5.28,1.91,6.77s3.33,2.22,6.18,2.22,4.87-.71,6.17-2.14,1.94-3.71,1.94-6.85V74.94H88.48Zm34.16,15.79H110L94.14,74.94H106l10.54,30.62L127,74.94h11.51Z"/></g></g></svg>