<svg xmlns="http://www.w3.org/2000/svg" viewBox="0 0 167.24 180.04"><defs><style>.cls-1{fill:#fff;}</style></defs><title>Tiempo</title><g id="Layer_2" data-name="Layer 2"><g id="Cuadritos"><path class="cls-1" d="M43.93,0c.59.22,1.18.46,1.77.67a11.33,11.33,0,0,1,7.72,10.81c0,4,0,8.08,0,12.11A11.48,11.48,0,0,1,41.68,34.81,11.52,11.52,0,0,1,29.9,23.62c-.06-3.91,0-7.83,0-11.75A11.5,11.5,0,0,1,38.59.35,4.81,4.81,0,0,0,39.36,0Z"/><path class="cls-1" d="M115.65,0A34.82,34.82,0,0,1,121,2.81a10.6,10.6,0,0,1,4.11,8.73q0,5.88,0,11.75a11.77,11.77,0,0,1-23.53.11c0-3.86,0-7.73,0-11.59A11.41,11.41,0,0,1,110.3.35a6,6,0,0,0,.78-.35Z"/><path class="cls-1" d="M24.1,17.48c0,2.33-.14,4.44,0,6.53A17.4,17.4,0,0,0,39.28,40.37a17.72,17.72,0,0,0,19.9-13.13c.61-2.57.42-5.33.58-8,0-.52,0-1.05,0-1.7H95.48c.14,2.78.12,5.54.46,8.24,1,7.92,8.24,14.26,16.21,14.72,9.87.58,17.18-6.09,18.76-13.4a29.8,29.8,0,0,0,.52-4.52c.08-1.63,0-3.27,0-5.17,1.72,0,3.33,0,5,0,2.87,0,5.75,0,8.6.2a11.51,11.51,0,0,1,10.34,11.22q.06,31.64,0,63.27c0,.23,0,.47-.06.89L154,92.37c-3.08-1.55-6.11-3.19-9.25-4.6a2.13,2.13,0,0,1-1.52-2.32c0-8.38,0-16.75,0-25.13V58.09H12.17v98.33h2.07q29.44,0,58.89,0a2.31,2.31,0,0,1,2.54,1.68c1.43,3.31,3.13,6.51,4.78,9.86a13.35,13.35,0,0,1-1.37.11q-33.48,0-67,0A11.79,11.79,0,0,1,0,156V29.59C0,22.89,4.43,18,11.15,17.53,15.34,17.27,19.56,17.48,24.1,17.48Z"/><path class="cls-1" d="M125.52,96a42,42,0,1,1-.74,84.09c-22.8-.37-41.48-19.47-41.17-42.79A42,42,0,0,1,125.52,96Zm-.13,12.24a29.92,29.92,0,1,0,29.87,29.91A29.83,29.83,0,0,0,125.39,108.19Z"/><path class="cls-1" d="M71.6,86.88H53.87V69.53H71.6Z"/><path class="cls-1" d="M83.72,86.82V69.55h17.75V86.82Z"/><path class="cls-1" d="M41.81,98.46V115.8H24V98.46Z"/><path class="cls-1" d="M53.89,98.43h17.7v17.34H53.89Z"/><path class="cls-1" d="M41.79,144.76H24V127.47H41.79Z"/><path class="cls-1" d="M53.85,144.7V127.46H71.56V144.7Z"/><path class="cls-1" d="M41.8,69.57v17.3H24.06V69.57Z"/><path class="cls-1" d="M113.61,84.83V69.52h17.77V83.86Z"/><path class="cls-1" d="M88.82,98.45l-5.06,5.39V98.45Z"/><path class="cls-1" d="M119.48,133.34c0-3.33,0-6.67,0-10a3.21,3.21,0,0,1,3.51-3.45,3.25,3.25,0,0,1,3.54,3.45c0,6,0,12,0,18.08a2,2,0,0,0,1.3,2.13c4.53,2.17,9,4.42,13.5,6.68,1.26.64,2.25,1.61,2.06,3.16a2.86,2.86,0,0,1-2.57,2.51,4.06,4.06,0,0,1-2.35-.38c-5.75-3-11.46-6.06-17.19-9.08a3.19,3.19,0,0,1-1.82-3.27C119.55,139.9,119.47,136.62,119.48,133.34Z"/></g></g></svg>