<svg xmlns="http://www.w3.org/2000/svg" viewBox="0 0 103.2 133.86"><defs><style>.cls-1{fill:#fff;}</style></defs><title>Ubicacion</title><g id="Layer_2" data-name="Layer 2"><g id="Cuadritos"><path class="cls-1" d="M51.67,133.86c-5.63-6.43-11-12.35-16.13-18.48-10-12-19.5-24.42-27-38.19C5,70.82,1.82,64.29.61,57.06a44.71,44.71,0,0,1,5.3-29.44C16,9.24,31.87-.19,52.78,0,78.57.25,100.07,20.23,103,45.56c1.17,10.21-1.92,19.33-6.41,28.16C89.48,87.59,80.29,100,70.44,112,64.46,119.27,58.18,126.29,51.67,133.86Zm0-107.2a23.89,23.89,0,1,0,23.93,24A24.07,24.07,0,0,0,51.65,26.66Z"/></g></g></svg>