<svg xmlns="http://www.w3.org/2000/svg" viewBox="0 0 260 260"><defs><style>.cls-1{fill:#ededed;stroke:#1d1d1b;stroke-miterlimit:10;stroke-width:10px;}</style></defs><title>camara-sensor</title><g id="Layer_2" data-name="Layer 2"><g id="Cuadritos"><rect class="cls-1" x="5" y="5" width="250" height="250" rx="12" ry="12"/><path d="M130.87,194.13c-22.08,0-44.17-.13-66.25.09a13.63,13.63,0,0,1-13.68-13.74c.07-14.53,0-29.06,0-43.59q0-17.73,0-35.45a13.29,13.29,0,0,1,11.3-13.57,11.51,11.51,0,0,1,2.12-.13q21.66,0,43.33,0a3.45,3.45,0,0,0,3-1.46c4.3-5.25,8.62-10.49,13-15.64A12,12,0,0,1,133,66.44q17.73-.1,35.46,0a12.07,12.07,0,0,1,9.28,4.27c4.36,5,8.61,10.16,12.82,15.32a4,4,0,0,0,3.66,1.75c2.82-.16,5.7-.27,8.37,1,5.18,2.47,8,6.57,8,12.3q.1,39.86,0,79.72A13.13,13.13,0,0,1,200,194a10,10,0,0,1-2.12.16Zm-1.63-10.63a39.87,39.87,0,1,0-39.89-39.89A39.83,39.83,0,0,0,129.24,183.5Zm22.11-95.2a56.77,56.77,0,0,0,6.26-.06,8.48,8.48,0,0,0,3.89-1.39c3.12-2.3,4.29-7.21,3-11.39-1.19-3.77-3.71-5.94-7.09-6-4-.06-8.08,0-12.13,0a6.5,6.5,0,0,0-5.18,2.58,11.38,11.38,0,0,0-.5,13.07,6.68,6.68,0,0,0,6.05,3.2C147.53,88.24,149.44,88.3,151.35,88.3Z"/><path d="M129.11,169.64a25.62,25.62,0,1,1,25.71-25.5A25.44,25.44,0,0,1,129.11,169.64Z"/></g></g></svg>