<svg xmlns="http://www.w3.org/2000/svg" viewBox="0 0 260 260"><defs><style>.cls-1{fill:#ededed;stroke:#1d1d1b;stroke-miterlimit:10;stroke-width:10px;}</style></defs><title>co2-sensor</title><g id="Layer_2" data-name="Layer 2"><g id="Cuadritos"><rect class="cls-1" x="5" y="5" width="250" height="250" rx="12" ry="12"/><path d="M230.44,164.42c-.6,2.37-1,4.8-1.84,7.1-5.25,15-18.28,24.38-34.51,24.41q-63.68.1-127.33,0c-17.81,0-31.95-11.55-35.62-28.56-3.89-18.11,7.75-36.93,25.71-41.55l1.82-.5c-6.19-34.8,32.62-59.92,61.4-39.63a46.76,46.76,0,0,1,83.64,39.41c4,2.07,8.12,3.72,11.7,6.19,8.4,5.77,13.24,13.93,14.68,24.06a3.77,3.77,0,0,0,.35.87ZM112.13,144.58l.34,0c0,1.69-.06,3.38,0,5.07.45,11.56,8.38,19.35,19.79,19.48,10,.12,17.53-5.22,19.56-14.93,1.06-5.05.71-10.45.63-15.69a17.64,17.64,0,0,0-1.54-6.77c-3.45-7.69-9.6-11.39-18-11.67-9.49-.31-17.38,5.26-19.6,14.45C112.52,137.81,112.5,141.24,112.13,144.58Zm-16.69-6c3.19,0,6.24,0,9.29,0,1.1,0,1.53-.44,1.52-1.5,0-5.35-1.72-9.94-6.12-13.28-3.63-2.75-7.84-3.52-12.26-3.7a18.45,18.45,0,0,0-19.53,18c-.13,4.42-.2,8.85,0,13.26a17.86,17.86,0,0,0,7,13.8c6.16,4.76,13.13,5,20.18,2.78a15.17,15.17,0,0,0,10.6-15.38c0-.56-.6-1.55-1-1.56-3.28-.12-6.57-.08-9.83-.08-.2,1.55-.28,2.86-.56,4.12a5.72,5.72,0,0,1-4.37,4.7c-5.41,1.4-10.14-1.58-10.69-7.46a100.91,100.91,0,0,1,0-15.55,10.53,10.53,0,0,1,2.41-5.19c2-2.67,5-2.67,8-2,2.82.66,4.24,2.58,4.7,5.33C95.11,136.06,95.24,137.21,95.44,138.59Zm97.5,20.75H175.11c1.1-1.22,1.93-2.11,2.72-3,3.71-4.35,7.64-8.54,11.07-13.09a14.32,14.32,0,0,0-3.46-20.58c-3.65-2.38-7.76-2.64-12-2.41-8,.42-14.62,7.31-14.38,15.25,0,.55.73,1.52,1.14,1.54,3.23.13,6.46.07,9.75.07.14-1.25.2-2.29.37-3.31a5,5,0,0,1,4.42-4.5c4.13-.37,6.77,2.92,5.4,7.17a17.35,17.35,0,0,1-3.29,5.89c-5.21,6-10.65,11.75-16,17.63-.45.5-1.05,1.13-1.08,1.72-.13,2.25,0,4.51,0,6.82h33.2Z"/><path d="M123.45,144.65a74,74,0,0,1,.79-8.31c.9-4.48,4-7,8.1-7.05s8,2.52,8.43,6.91a80.31,80.31,0,0,1,0,17.05c-.54,4.72-4.66,7.24-9.22,6.81-4.18-.39-7.37-4-7.69-8.95-.14-2.14,0-4.29,0-6.44Z"/></g></g></svg>