<svg xmlns="http://www.w3.org/2000/svg" viewBox="0 0 260 260"><defs><style>.cls-1{fill:#ededed;stroke:#1d1d1b;stroke-miterlimit:10;stroke-width:10px;}</style></defs><title>presion-sensor</title><g id="Layer_2" data-name="Layer 2"><g id="Cuadritos"><rect class="cls-1" x="5" y="5" width="250" height="250" rx="12" ry="12"/><path d="M133.75,220.2h-7.53c-.36,0-.72-.14-1.08-.16a82.2,82.2,0,0,1-20.7-3.64C84.9,210.23,68.89,199.08,57,182.28a89.56,89.56,0,0,1-16.15-41.86,88.52,88.52,0,0,1,.3-22.88A86.89,86.89,0,0,1,48,93.88a90.21,90.21,0,0,1,77-53.53,84.1,84.1,0,0,1,27.64,2.72c25.56,7.07,44.9,22.15,57.41,45.66a86.56,86.56,0,0,1,9.85,33.89c.1,1.18.22,2.36.33,3.54v7.9a6.89,6.89,0,0,0-.15.89,87.18,87.18,0,0,1-4.36,23.25,90.12,90.12,0,0,1-78.26,61.66Zm69.79-90c0-40.29-32.87-73.18-73.3-73.26-40.17-.08-73.38,33-73.21,73.23a73.11,73.11,0,0,0,72.77,73.29C170.55,203.81,203.56,170.42,203.54,130.19Z"/><path d="M157.77,145.67h32.84c-5.64,24-30,47.65-60.56,46.59-30.05.65-53.84-21.77-60.19-46.49h33c-.27,9.54,4,16.85,11.5,22.57a25.87,25.87,0,0,0,16.82,5.19c7.55-.14,13.69-3.26,18.92-8.58A25.91,25.91,0,0,0,157.77,145.67Z"/><path d="M106.55,98.81c1.49,1.78,3,3.54,4.47,5.34q9.74,12,19.45,23.93a2.32,2.32,0,0,0,1.58.9c7.69,1.29,13.65,6.38,15.06,14.34,1.55,8.77-5,18-13.79,19.39a17.07,17.07,0,0,1-19.86-14.14,14.57,14.57,0,0,1,.91-8.55,7.88,7.88,0,0,0,.39-5.31c-2.81-11.57-5.53-23.16-8.28-34.74-.08-.35-.13-.7-.19-1Z"/><path d="M103.27,89.55c-2.12-3.75-4.17-7.39-6.23-11a.75.75,0,0,1,.32-1.14l4.14-2.6a10.29,10.29,0,0,1,.63.82c1.87,3.19,3.71,6.39,5.6,9.56a1.08,1.08,0,0,1-.37,1.69Z"/><path d="M89.58,103.28c-1,1.45-1.85,2.8-2.77,4.13-.25.35-.56.77-1.13.45l-11-6.24,2.9-4.52c.34-.52.76-.25,1.13,0,2.47,1.39,4.94,2.78,7.41,4.19C87.26,101.88,88.34,102.55,89.58,103.28Z"/><path d="M156.9,89.28c-1.06-.65-2-1.17-2.86-1.77-1.77-1.21-1.8-1.25-.76-3.08,1.69-3,3.45-5.89,5.15-8.85.38-.66.78-.75,1.39-.35,1.12.73,2.25,1.45,3.38,2.17a.73.73,0,0,1,.29,1.14c-1.89,3.27-3.74,6.57-5.64,9.84A5.17,5.17,0,0,1,156.9,89.28Z"/><path d="M174.39,108.21a3,3,0,0,1-.46-.4c-.8-1.22-1.58-2.46-2.38-3.69-.39-.6,0-.91.44-1.18,2.3-1.44,4.6-2.88,6.92-4.29.94-.57,2-1,2.89-1.59a.82.82,0,0,1,1.29.28c.72,1.1,1.43,2.2,2.16,3.29.45.65.3,1.06-.38,1.45q-4.76,2.76-9.47,5.56Z"/><path d="M179.2,127.28h13.23v5.86H179.2Z"/><path d="M127.37,68.1h5.84V81.3h-5.84Z"/><path d="M81.35,133.17H68.18v-5.86H81.35Z"/></g></g></svg>