<svg xmlns="http://www.w3.org/2000/svg" viewBox="0 0 260 260"><defs><style>.cls-1{fill:#ededed;stroke:#1d1d1b;stroke-miterlimit:10;stroke-width:10px;}</style></defs><title>tiempo-sensor</title><g id="Layer_2" data-name="Layer 2"><g id="Cuadritos"><rect class="cls-1" x="5" y="5" width="250" height="250" rx="12" ry="12"/><path d="M167.65,220.43c-2-.44-4-.8-5.93-1.32a42.15,42.15,0,0,1,3.77-82.29c22.7-3.67,44.49,12.18,47.88,34.84,3.37,22.5-10.37,42.75-32.5,47.88-1.47.34-3,.59-4.43.89Zm4.53-71.82a29.92,29.92,0,1,0,29.81,30A29.84,29.84,0,0,0,172.18,148.61Z"/><path d="M58.84,98.52v98.33H61q29.44,0,58.89,0a2.3,2.3,0,0,1,2.53,1.69c1.43,3.31,3.14,6.51,4.79,9.86-.41,0-.89.1-1.38.1q-33.48,0-67,0a11.77,11.77,0,0,1-12.1-12.08q0-63.18,0-126.37c0-6.63,4.4-11.61,11-12,4.25-.28,8.53,0,13.11,0,0,2.22-.14,4.38,0,6.51A17.38,17.38,0,0,0,86,80.8a17.73,17.73,0,0,0,19.9-13.14c.6-2.57.41-5.33.57-8,0-.52,0-1,0-1.7H142.2c.15,2.79.12,5.55.46,8.25,1,7.92,8.25,14.26,16.22,14.72,9.85.57,17.17-6.08,18.75-13.41a28.58,28.58,0,0,0,.52-4.52c.09-1.63,0-3.27,0-5.17,1.78,0,3.46,0,5.13,0,2.81,0,5.64-.06,8.43.2a11.5,11.5,0,0,1,10.33,11.22q.06,31.64,0,63.27c0,.24,0,.47-.07.89l-1.25-.62c-3.08-1.55-6.11-3.19-9.25-4.59a2.16,2.16,0,0,1-1.52-2.33c0-8.38,0-16.76,0-25.13V98.52Z"/><path d="M100.28,58c-.14,2.79,0,5.66-.5,8.37-1.2,5.93-6.79,9.55-13,8.85A11.64,11.64,0,0,1,76.61,63.77c0-4,0-8,0-11.94a11.77,11.77,0,0,1,23.53,0c0,2,0,4.09,0,6.14Z"/><path d="M172,57.81a66.51,66.51,0,0,1-.51,8.38c-1.09,5.91-6.59,9.61-12.93,9a11.55,11.55,0,0,1-10.24-11.28c0-4.09-.05-8.19,0-12.29a11.49,11.49,0,0,1,11.4-11.2c6.64-.06,11.94,4.75,12.12,11,.06,2.11,0,4.22,0,6.32Z"/><path d="M118.37,110v17.28H100.61V110Z"/><path d="M130.52,109.94h17.7v17.35h-17.7Z"/><path d="M70.75,156.22V138.9H88.52v17.32Z"/><path d="M100.59,156.22V138.9h17.74v17.32Z"/><path d="M70.72,185.16V167.89h17.8v17.27Z"/><path d="M100.59,185.14V167.87H118.3v17.27Z"/><path d="M70.75,110H88.53v17.32H70.75Z"/><path d="M178.11,124.28l-17.73,1V110h17.73Z"/><path d="M130.5,138.89h5l-5,5.36Z"/><path d="M166.2,173.78c0-3.27,0-6.55,0-9.83,0-2.35,1.27-3.64,3.5-3.64a3.29,3.29,0,0,1,3.56,3.61c0,5.8.06,11.59,0,17.38a2.68,2.68,0,0,0,1.76,2.92c4.39,2.05,8.71,4.25,13,6.43,1.33.67,2.55,1.78,2,3.29a5.68,5.68,0,0,1-2.67,2.4c-.5.28-1.5-.05-2.14-.39-5.75-3-11.46-6-17.19-9.08a3.19,3.19,0,0,1-1.83-3.26C166.27,180.34,166.2,177.06,166.2,173.78Z"/></g></g></svg>