<svg xmlns="http://www.w3.org/2000/svg" viewBox="0 0 260 260"><defs><style>.cls-1{fill:#ededed;stroke:#1d1d1b;stroke-miterlimit:10;stroke-width:10px;}</style></defs><title>rayosuv-sensor</title><g id="Layer_2" data-name="Layer 2"><g id="Cuadritos"><rect class="cls-1" x="5" y="5" width="250" height="250" rx="12" ry="12"/><path d="M193.11,147.63c8.61-6.37,18.07-11.3,27.67-16,.83-.41,1.63-.87,2.66-1.42l-1.78-.94c-5.43-2.92-10.94-5.72-16.29-8.79A65.18,65.18,0,0,1,191,109.84c-2.71-2.78-4.38-6.06-3.76-9.93a66,66,0,0,1,3.07-13.2c3.37-8.67,7.32-17.12,11-25.66.18-.43.34-.86.63-1.57l-1.56.79c-5.92,3.09-11.78,6.3-17.77,9.24A80.39,80.39,0,0,1,164.76,76c-5.34,1.2-9.95.24-13.49-4.15-2.21-2.74-4.46-5.47-6.4-8.39a172.75,172.75,0,0,1-13.24-24.93c-.48,1-.82,1.71-1.18,2.42-2.86,5.76-5.6,11.58-8.64,17.24a61.43,61.43,0,0,1-10.13,14.16c-3,3-6.5,4.83-10.83,4.06a64,64,0,0,1-9.8-2.29A160,160,0,0,1,63.34,61c-.58-.33-1.19-.58-2.11-1,2.16,3.67,4.16,6.93,6,10.26,4.39,7.8,8.18,15.85,10.18,24.63,1.47,6.45.27,12.19-4.65,16.85a58.14,58.14,0,0,1-5.93,5c-7.59,5.46-16,9.41-24.59,13-.82.34-1.63.71-2.73,1.19l1,.46c6.59,3.23,13.26,6.33,19.76,9.75A51.5,51.5,0,0,1,73.81,151a11.68,11.68,0,0,1,3.56,9.25c-.33,4.86-1.89,9.37-3.57,13.85a190.17,190.17,0,0,1-12.2,25.67c-.24.43-.41.9-.61,1.36a9.06,9.06,0,0,0,2.43-1c4.76-2.54,9.48-5.2,14.32-7.58a88.88,88.88,0,0,1,19.86-7.39c4.75-1.06,9.15-.75,12.72,3.05,1.08,1.16,2.24,2.26,3.23,3.48,6,7.46,10.37,15.88,14.39,24.5l3,6.39c.36-.68.56-1,.73-1.39,1.93-4.11,3.76-8.27,5.82-12.32a90.68,90.68,0,0,1,11.87-18.51c3.47-4,7.56-6.59,13.1-5.67a57.53,57.53,0,0,1,7.59,1.73c9.43,3,18.08,7.65,26.73,12.35l5.23,2.86c-.36-.78-.51-1.1-.66-1.41-3.19-6.44-6.47-12.83-9.54-19.32a70.74,70.74,0,0,1-6.4-19.38c-.6-3.83.14-7.22,3.11-9.9A60.71,60.71,0,0,1,193.11,147.63ZM128.32,186.8A55.93,55.93,0,0,1,75,129.21c.9-31.28,26.35-54.81,57-54.64,31.8.9,55.81,26.6,55.21,57.24A56,56,0,0,1,128.32,186.8Z"/><path d="M132.37,77.15c-29.91-.44-54.23,24.5-54.45,53.06-.23,30.89,26,54.65,53.54,54.07,27.19.47,53.23-22,53.58-53.08C185.36,102,161.25,77.57,132.37,77.15ZM128,141.33q0,8.08-4.92,12.39T108.6,158q-9.59,0-14.49-4.31T89.2,141.36V113.5h11.31v27.22c0,3,.64,5.28,1.9,6.76s3.33,2.23,6.19,2.23,4.86-.71,6.16-2.14,1.95-3.71,1.95-6.85V113.5H128Zm34.16,15.79h-12.6L133.67,113.5h11.82L156,144.12l10.54-30.62h11.51Z"/></g></g></svg>