<svg xmlns="http://www.w3.org/2000/svg" viewBox="0 0 983.5 334.68"><defs><style>.cls-1{fill:#e94d5c;stroke:#3c3c3b;stroke-miterlimit:10;stroke-width:3px;}.cls-2{fill:#1d1d1b;}</style></defs><title>Potencia</title><g id="Layer_2" data-name="Layer 2"><g id="Bloques_simples" data-name="Bloques simples"><path class="cls-1" d="M970,1.5H412.42L373.35,69.18h-250L84.27,1.5H13.5a12,12,0,0,0-12,12V254a12,12,0,0,0,12,12H84.56l38.79,67.18h250L412.13,266H970a12,12,0,0,0,12-12V13.5A12,12,0,0,0,970,1.5Z"/></g><g id="Text"><path class="cls-2" d="M104.23,147.2q0,14.91-8.06,23.87-8.31,9.19-23,9.2-3.61,0-10.95-.29t-11-.28c-1.36,0-2,.87-2,2.6,0,2.24.13,5.61.41,10.09s.41,7.85.41,10.1q0,1.08-1.2,1.08c-.89,0-2.24-.1-4-.29s-3.14-.29-4-.29-1.88.07-3.36.19-2.58.2-3.3.2c-1.06,0-1.59-.66-1.59-2q0-6.93.6-20.89t.61-20.94q0-19.82-1.46-42.53l-.07-1c0-.93.51-1.39,1.65-1.39q3.43,0,10.32.06t10.38.06q3,0,9-.25t9-.25q14,0,23,9.52Q104.23,133.17,104.23,147.2Zm-16,1q0-9.53-5.14-15.23-5.34-6-14.73-6-2.93,0-10.41.51c-5.71.34-8.66.67-8.82,1q-.45.76-.45,21.84c0,1.78.05,4.44.16,8s.16,6.22.16,8c0,.39.46.68,1.4.89q3.48.7,19.36.7,8.88,0,13.83-5.52Q88.24,157.11,88.24,148.15Z"/><path class="cls-2" d="M170.82,172.46a32.15,32.15,0,0,1-8.7,22.66,30,30,0,0,1-44.11.07,33.7,33.7,0,0,1,0-45.2,29.11,29.11,0,0,1,22.09-9.52,28.82,28.82,0,0,1,22,9.52A31.52,31.52,0,0,1,170.82,172.46Zm-13.39.13a19.41,19.41,0,0,0-4.76-13.2,15.84,15.84,0,0,0-12.57-5.78,16.07,16.07,0,0,0-12.63,5.71,20.68,20.68,0,0,0,.06,26.47,16.32,16.32,0,0,0,25.14,0A19.7,19.7,0,0,0,157.43,172.59Z"/><path class="cls-2" d="M215.13,191.7c0,.93-.09,2.2-.26,3.8-.21,2-.34,3.28-.38,3.88a4.61,4.61,0,0,1-.19,1.39,2.61,2.61,0,0,1-1.2.89q-5.21,2.47-16.38,2.48-14.85,0-14.85-13.46,0-5.4.25-16.22t.25-16.22a2.49,2.49,0,0,0-2.6-2.79c-1.56,0-3.11,0-4.63-.06-.89-.22-1.34-1.95-1.34-5.21a31,31,0,0,1,.26-3.87,2.11,2.11,0,0,1,2-1.84c1.06,0,2.09,0,3.11-.06,2-.09,2.92-1,2.92-2.61s-.05-4.27-.16-7.74-.16-6.07-.16-7.81q0-4.64,1.78-4.63.57,0,11.93,2c1,.13,1.46.6,1.46,1.4,0,1.86-.13,4.66-.41,8.38s-.41,6.52-.41,8.38c0,1.23.57,1.84,1.71,1.84H213.1c.72,0,1.08.25,1.08.76a21.1,21.1,0,0,1-.23,2.45,20.49,20.49,0,0,0-.22,2.5c0,.64,0,1.61.06,2.92s.07,2.29.07,2.92c0,.81-.6,1.21-1.78,1.21q-2.54,0-7.68-.35t-7.68-.35c-.34,0-.59,1.21-.76,3.62q-.32,4.5-.32,12.63v9.46q0,5.46,1,7.62c1,2.2,3.11,3.3,6.28,3.3a29,29,0,0,0,5.78-.86,28.81,28.81,0,0,1,5.65-.86C214.87,190.55,215.13,190.93,215.13,191.7Z"/><path class="cls-2" d="M278,169.29c0,3.13-1.36,5.22-4.06,6.28q-2.73,1-39.3,3.75.82,5.58,6.16,9.52a18,18,0,0,0,10.92,3.74,29.41,29.41,0,0,0,18.41-6.47l2-1.65a1.14,1.14,0,0,1,.67.13q.15.12,2.38,4.41a37.72,37.72,0,0,1,2.22,4.6c0,.25-.34.74-1,1.46q-9.33,9.9-23.93,9.9T229,196.17q-8.76-8.79-8.76-23.45a33.8,33.8,0,0,1,8.37-22.79q8.83-10.1,21.65-10.1a25.87,25.87,0,0,1,19.93,8.76A29.5,29.5,0,0,1,278,169.29Zm-15.11-3.87a12.67,12.67,0,0,0-4.16-9.34,13.1,13.1,0,0,0-9.36-4.06,14.09,14.09,0,0,0-10.38,4.7,14.83,14.83,0,0,0-4.54,10.54c0,.89.77,1.33,2.29,1.33a159.22,159.22,0,0,0,22.47-1.9C261.63,166.35,262.86,165.92,262.86,165.42Z"/><path class="cls-2" d="M342.78,202.11c0,.93-.42,1.39-1.27,1.39q-2.1,0-6.25-.06c-2.78,0-4.86-.06-6.26-.06-.76,0-1.14-.62-1.14-1.85,0-2.07.07-5.22.19-9.45s.19-7.41.19-9.53q0-2.53-.06-7.58t-.06-7.59q0-7.23-2.1-10.22-2.53-3.56-9.39-3.55-3.18,0-8.83,3.55-6,3.75-6,6.67v38.09c0,1.05-.41,1.58-1.21,1.58-1.35,0-3.39,0-6.09-.06s-4.74-.06-6.1-.06c-.89,0-1.33-.49-1.33-1.46q0-5,.16-15t.16-15.11a102.38,102.38,0,0,0-2.86-24.94,2.91,2.91,0,0,1-.19-.83c0-.42.28-.72.83-.89l7.26-1.17q6.82-1.11,7.14-1.11c.26,0,.43.34.51,1a40.8,40.8,0,0,0,1.46,7.94c2.2-1.74,5.1-3.89,8.7-6.48a24.84,24.84,0,0,1,12.88-4.06q11.94,0,16.32,6.92,3.24,5.08,3.24,16.44c0,1.31,0,3.32-.1,6s-.1,4.74-.1,6.09q0,4.26.13,12.7T342.78,202.11Z"/><path class="cls-2" d="M399.15,145.8a29.6,29.6,0,0,1-1.46,6.22c-1,3.22-1.65,4.83-2,4.83q-2.85-1.28-5.74-2.54a15.48,15.48,0,0,0-6.32-1.27,16.79,16.79,0,0,0-13,5.77,19.73,19.73,0,0,0-5.2,13.65,19.11,19.11,0,0,0,5.2,13.4,17,17,0,0,0,13,5.84,18.28,18.28,0,0,0,8.38-2.1c2.75-1.4,4-2.09,3.62-2.09.55,0,1.16,1.77,1.84,5.33a40.6,40.6,0,0,1,.95,6.66q0,2-7.42,3.88a42.11,42.11,0,0,1-9.21,1.58,28.92,28.92,0,0,1-22.09-9.77,34.13,34.13,0,0,1-.19-45.58A28.9,28.9,0,0,1,381.63,140a30.49,30.49,0,0,1,16.25,4.51C398.72,145,399.15,145.42,399.15,145.8Z"/><path class="cls-2" d="M423.58,127.46q0,7.8-8.69,7.8t-8.83-7.8a7.21,7.21,0,0,1,2.73-5.78,9.62,9.62,0,0,1,12.22.06A7.21,7.21,0,0,1,423.58,127.46Zm-.44,17.2q0,4.89-.6,14.76t-.61,14.82q0,4.63.19,13.87t.19,13.81c0,.88-.38,1.33-1.14,1.33H408.79c-.88,0-1.33-.87-1.33-2.6q0-4.38.22-13.18t.23-13.23q0-5-.73-14.85t-.73-14.86c0-.72.44-1.08,1.33-1.08a29.93,29.93,0,0,1,3.52.32,20.3,20.3,0,0,0,7.18,0,30,30,0,0,1,3.58-.32C422.78,143.45,423.14,143.86,423.14,144.66Z"/><path class="cls-2" d="M497.41,145.93a8.32,8.32,0,0,1-.19,1.14,152.58,152.58,0,0,0-2.48,25.07q0,.65,1.59,28.51l.06.88c0,1.23-.52,1.85-1.68,1.85a48.42,48.42,0,0,0-5.27.41,50.9,50.9,0,0,1-5.24.41q-1.2,0-1.84-4.44c-.42-3-.82-4.45-1.2-4.45s-1.4.83-3.43,2.48a37.11,37.11,0,0,1-7,4.63,22,22,0,0,1-10,2.54q-12.32,0-20.76-9.84a32.75,32.75,0,0,1-8-21.9q0-14.08,8.06-23.29,8.44-9.59,22.22-9.59a24.11,24.11,0,0,1,16.95,6.73c.72.85,1.84,2.07,3.36,3.68a.55.55,0,0,0,.39.19c.25,0,.61-1.33,1.07-4s1.06-4,1.78-4a38.74,38.74,0,0,1,6.41,1Q497.41,145,497.41,145.93Zm-16.19,26.53a20.29,20.29,0,0,0-4.63-13.39,15.4,15.4,0,0,0-12.51-6,16,16,0,0,0-12.69,6,20.05,20.05,0,0,0-4.89,13.46,19.7,19.7,0,0,0,4.89,13.33,16,16,0,0,0,12.69,5.91,15.55,15.55,0,0,0,12.44-6A20.05,20.05,0,0,0,481.22,172.46Z"/></g></g></svg>