<svg xmlns="http://www.w3.org/2000/svg" viewBox="0 0 983.5 1069.31"><defs><style>.cls-1{fill:#f9b807;stroke:#3c3c3b;stroke-miterlimit:10;stroke-width:3px;}.cls-2{fill:#fff;}</style></defs><title>Sensoresx2-light</title><g id="Layer_2" data-name="Layer 2"><g id="Sensores2"><path class="cls-1" d="M970,822.1H145.23V266H970a12,12,0,0,0,12-12V13.5a12,12,0,0,0-12-12H412.42L373.35,69.18h-250L84.27,1.5H13.5a12,12,0,0,0-12,12V254h0V989a12,12,0,0,0,12,12H84.75l38.6,66.85h250L411.94,1001H970a12,12,0,0,0,12-12V834.1A12,12,0,0,0,970,822.1Z"/><path class="cls-2" d="M111,121.87c-.84,1.39-2,3.51-3.49,6.34A55.72,55.72,0,0,1,105,133.8a1.19,1.19,0,0,1-1,.57s-2-.75-6.12-2.25a31.4,31.4,0,0,0-10.19-2.26Q76,129.86,76,140.15q0,5.72,8.19,10Q98,157.3,99.44,158.37q8.19,6.52,8.19,17.64,0,14.22-11.23,22.41-10.09,7.37-24.82,7.36-6.85,0-7.37-1.52-.25-2.41-1.14-7-.51-1.91-1.59-5.71a3.62,3.62,0,0,1-.19-1.08c0-.59.32-.89,1-.89,1,0,2.57.11,4.67.32s3.67.32,4.73.32q19.68,0,19.68-12.7,0-6.21-7.94-10.79-14.47-8.25-14.79-8.57-8-6.48-8-17.39,0-11.81,7.75-18.92,7.55-6.85,19.55-6.85a48.91,48.91,0,0,1,11.68,1.65q7.17,1.84,10.79,4.44A2.83,2.83,0,0,1,111,121.87Z"/><path class="cls-2" d="M174.47,170.43q0,4.69-4.06,6.28-2.73,1-39.29,3.74.82,5.6,6.15,9.53a18.1,18.1,0,0,0,10.92,3.74,29.47,29.47,0,0,0,18.41-6.47l2-1.65a1.25,1.25,0,0,1,.67.12c.1.09.9,1.56,2.38,4.42a37.72,37.72,0,0,1,2.22,4.6c0,.25-.34.74-1,1.46q-9.33,9.9-23.93,9.9t-23.48-8.79q-8.76-8.79-8.76-23.46a33.75,33.75,0,0,1,8.38-22.78Q133.91,141,146.73,141a25.87,25.87,0,0,1,19.93,8.76A29.48,29.48,0,0,1,174.47,170.43Zm-15.11-3.88a12.7,12.7,0,0,0-4.15-9.33,13.1,13.1,0,0,0-9.37-4.06,14,14,0,0,0-10.37,4.7,14.78,14.78,0,0,0-4.54,10.53c0,.89.76,1.34,2.28,1.34a159.4,159.4,0,0,0,22.47-1.91C158.14,167.49,159.36,167.06,159.36,166.55Z"/><path class="cls-2" d="M239.28,203.24c0,.93-.42,1.4-1.27,1.4q-2.1,0-6.25-.06c-2.77-.05-4.86-.07-6.25-.07-.77,0-1.15-.61-1.15-1.84,0-2.07.07-5.22.19-9.46s.19-7.4.19-9.52q0-2.53-.06-7.58t-.06-7.59q0-7.23-2.1-10.22-2.53-3.56-9.39-3.55-3.18,0-8.82,3.55-6,3.75-6,6.67v38.08c0,1.06-.4,1.59-1.21,1.59q-2,0-6.09-.06t-6.1-.07c-.88,0-1.33-.48-1.33-1.46q0-5,.16-15t.16-15.11a102.52,102.52,0,0,0-2.86-25,3.27,3.27,0,0,1-.19-.82c0-.42.28-.72.83-.89l7.27-1.17q6.81-1.11,7.14-1.11c.25,0,.42.34.5,1a41.56,41.56,0,0,0,1.46,7.94q3.3-2.61,8.7-6.48a24.76,24.76,0,0,1,12.89-4.06q11.93,0,16.31,6.92,3.24,5.07,3.24,16.44,0,2-.1,6t-.09,6.09q0,4.26.12,12.7T239.28,203.24Z"/><path class="cls-2" d="M281.05,185a18.08,18.08,0,0,1-7.56,15.17,26.79,26.79,0,0,1-16.69,5.21,24.67,24.67,0,0,1-4.32-.19c-.72-.34-1.08-1.38-1.08-3.11a37.19,37.19,0,0,0-.34-4.19,35.29,35.29,0,0,1-.35-4.13q0-.83,1.14-1.08a7.54,7.54,0,0,1,2.35,0l1.9.19q12,0,12-7.36c0-2.33-1.76-4.46-5.27-6.41a99,99,0,0,1-9.84-5.78,14.79,14.79,0,0,1-5.27-11.8q0-9.53,7.18-14.86,6.46-4.76,16.37-4.76a1.36,1.36,0,0,1,1.3.83,40.79,40.79,0,0,1,1.59,5.14,33.11,33.11,0,0,1,1.18,5.2c0,.47-.41.76-1.21.89q-4.06.57-8.19,1.08-4.89,1.33-4.89,5.33c0,1.91,1.72,3.83,5.14,5.78q7.62,4.26,9.65,6.16A16.74,16.74,0,0,1,281.05,185Z"/><path class="cls-2" d="M347.7,173.6a32.16,32.16,0,0,1-8.7,22.66,30,30,0,0,1-44.11.06,33.69,33.69,0,0,1,0-45.19,30.24,30.24,0,0,1,44.05,0A31.52,31.52,0,0,1,347.7,173.6Zm-13.39.13a19.38,19.38,0,0,0-4.77-13.21A15.82,15.82,0,0,0,317,154.75a16.11,16.11,0,0,0-12.64,5.71,20.66,20.66,0,0,0,.07,26.47,16.33,16.33,0,0,0,25.13,0A19.68,19.68,0,0,0,334.31,173.73Z"/><path class="cls-2" d="M393,144.91A78.08,78.08,0,0,1,392,157.6c-.13,1-.55,1.46-1.27,1.46-.89,0-2.24-.09-4-.28s-3.17-.29-4.1-.29q-8,0-10.22,4.51-1.33,2.73-1.33,11.36v7q0,3.56.28,10.79t.29,10.8c0,1.14-.49,1.71-1.46,1.71q-2,0-6-.06t-6-.07c-1,0-1.46-.53-1.46-1.58q0-5.15.15-15.49t.16-15.55q0-15.69-2.92-25.2a3.72,3.72,0,0,1-.12-.77,1.12,1.12,0,0,1,.82-1.08c1.57-.16,3.77-.42,6.6-.76,4.57-.84,6.69-1.27,6.35-1.27.68,0,1.12,1.25,1.33,3.75s.6,3.74,1.15,3.74a.61.61,0,0,0,.31-.12l5.21-3.3a23.17,23.17,0,0,1,5.84-2.54,21.94,21.94,0,0,1,6.35-.76Q393,143.58,393,144.91Z"/><path class="cls-2" d="M453.7,170.43q0,4.69-4.06,6.28-2.73,1-39.29,3.74.82,5.6,6.16,9.53a18.06,18.06,0,0,0,10.92,3.74,29.44,29.44,0,0,0,18.4-6.47l2-1.65a1.22,1.22,0,0,1,.67.12q.17.14,2.38,4.42a37.72,37.72,0,0,1,2.22,4.6c0,.25-.34.74-1,1.46q-9.33,9.9-23.93,9.9t-23.49-8.79q-8.76-8.79-8.76-23.46a33.75,33.75,0,0,1,8.38-22.78Q413.14,141,426,141a25.9,25.9,0,0,1,19.93,8.76A29.52,29.52,0,0,1,453.7,170.43Zm-15.1-3.88a12.71,12.71,0,0,0-4.16-9.33,13.06,13.06,0,0,0-9.36-4.06,14.05,14.05,0,0,0-10.38,4.7,14.78,14.78,0,0,0-4.54,10.53c0,.89.76,1.34,2.28,1.34a159.41,159.41,0,0,0,22.48-1.91C437.37,167.49,438.6,167.06,438.6,166.55Z"/><path class="cls-2" d="M492.3,185a18.08,18.08,0,0,1-7.56,15.17,26.79,26.79,0,0,1-16.69,5.21,24.67,24.67,0,0,1-4.32-.19c-.72-.34-1.08-1.38-1.08-3.11a37.19,37.19,0,0,0-.34-4.19,35.29,35.29,0,0,1-.35-4.13q0-.83,1.14-1.08a7.54,7.54,0,0,1,2.35,0l1.9.19q12,0,12-7.36c0-2.33-1.76-4.46-5.27-6.41a99,99,0,0,1-9.84-5.78,14.79,14.79,0,0,1-5.27-11.8q0-9.53,7.18-14.86,6.47-4.76,16.37-4.76a1.37,1.37,0,0,1,1.3.83,40.79,40.79,0,0,1,1.59,5.14,33.11,33.11,0,0,1,1.18,5.2c0,.47-.41.76-1.21.89q-4.06.57-8.19,1.08-4.89,1.33-4.89,5.33c0,1.91,1.72,3.83,5.14,5.78q7.62,4.26,9.65,6.16A16.74,16.74,0,0,1,492.3,185Z"/></g></g></svg>