<svg xmlns="http://www.w3.org/2000/svg" viewBox="0 0 983.5 334.68"><defs><style>.cls-1{fill:#a4549c;stroke:#3c3c3b;stroke-miterlimit:10;stroke-width:3px;}.cls-2{fill:#1d1d1b;}</style></defs><title>Telecomunicacion</title><g id="Layer_2" data-name="Layer 2"><g id="Bloques_simples" data-name="Bloques simples"><path class="cls-1" d="M970,1.5H412.42L373.35,69.18h-250L84.27,1.5H13.5a12,12,0,0,0-12,12V254a12,12,0,0,0,12,12H84.56l38.79,67.18h250L412.13,266H970a12,12,0,0,0,12-12V13.5A12,12,0,0,0,970,1.5Z"/><path class="cls-2" d="M77.35,126.31c0,1.11-.38,1.65-1.14,1.65q-1.78,0-22.48-.76-.57,19.37-.57,31,0,7.31.54,21.9t.54,21.9c0,.89-.61,1.33-1.84,1.33-.76,0-1.92-.06-3.49-.19s-2.75-.19-3.55-.19-1.93.07-3.5.19-2.72.19-3.49.19a1.4,1.4,0,0,1-1.58-1.58q0-7.24.6-21.74t.6-21.81q0-11.3-.7-31-16.37,1-24,1c-.51,0-.76-.21-.76-.64a14.11,14.11,0,0,1,.57-3.3c.47-1.86.74-3,.83-3.3a50,50,0,0,1,.88-6.16A1.12,1.12,0,0,1,15.9,114l.76.06q22.47,1.34,29.65,1.34,6.34,0,20.75-1,9.84-.63,8.19-.63c1.1,0,1.72.38,1.84,1.14q-.12-.69-.12,6.16a25.32,25.32,0,0,0,.19,2.57C77.28,124.84,77.35,125.72,77.35,126.31Z"/><path class="cls-2" d="M138.67,169.29q0,4.69-4.07,6.28-2.73,1-39.29,3.75.82,5.58,6.16,9.52a18,18,0,0,0,10.92,3.74,29.43,29.43,0,0,0,18.41-6.47l2-1.65a1.1,1.1,0,0,1,.66.13q.16.12,2.38,4.41a38.91,38.91,0,0,1,2.23,4.6c0,.25-.34.74-1,1.46q-9.33,9.9-23.93,9.9t-23.49-8.79q-8.76-8.79-8.76-23.45a33.81,33.81,0,0,1,8.38-22.79q8.82-10.1,21.65-10.1a25.88,25.88,0,0,1,19.93,8.76A29.54,29.54,0,0,1,138.67,169.29Zm-15.11-3.87a12.71,12.71,0,0,0-4.16-9.34A13.1,13.1,0,0,0,110,152a14.07,14.07,0,0,0-10.38,4.7,14.78,14.78,0,0,0-4.54,10.54c0,.89.76,1.33,2.29,1.33a160.73,160.73,0,0,0,22.47-1.9C122.33,166.35,123.56,165.92,123.56,165.42Z"/><path class="cls-2" d="M163.61,115.33l-.06.83q-1.4,23.61-1.4,40.56,0,7.56.26,22.63t.25,22.56c0,1-.34,1.46-1,1.46H149.52c-.76,0-1.14-.48-1.14-1.46q0-7.49.13-22.56t.12-22.63q0-6.85-.66-20.6t-.67-20.53c0-.85.44-1.27,1.33-1.27s1.91.06,3.43.19,2.67.19,3.43.19,2-.07,3.55-.19,2.73-.19,3.49-.19S163.65,114.66,163.61,115.33Z"/><path class="cls-2" d="M230,169.29q0,4.69-4.07,6.28-2.73,1-39.29,3.75.82,5.58,6.16,9.52a18,18,0,0,0,10.92,3.74,29.38,29.38,0,0,0,18.4-6.47l2-1.65a1.1,1.1,0,0,1,.66.13q.16.12,2.38,4.41a37.72,37.72,0,0,1,2.22,4.6c0,.25-.33.74-1,1.46Q219,205,204.43,205t-23.49-8.79q-8.76-8.79-8.76-23.45a33.81,33.81,0,0,1,8.38-22.79q8.82-10.1,21.65-10.1a25.88,25.88,0,0,1,19.93,8.76A29.54,29.54,0,0,1,230,169.29Zm-15.11-3.87a12.71,12.71,0,0,0-4.16-9.34,13.1,13.1,0,0,0-9.36-4.06,14.05,14.05,0,0,0-10.38,4.7,14.78,14.78,0,0,0-4.54,10.54c0,.89.76,1.33,2.29,1.33a160.73,160.73,0,0,0,22.47-1.9C213.61,166.35,214.84,165.92,214.84,165.42Z"/><path class="cls-2" d="M283.14,145.8a29.6,29.6,0,0,1-1.46,6.22q-1.46,4.83-2,4.83c-1.91-.85-3.82-1.7-5.75-2.54a15.43,15.43,0,0,0-6.31-1.27,16.79,16.79,0,0,0-13,5.77,19.73,19.73,0,0,0-5.2,13.65,19.13,19.13,0,0,0,5.2,13.4,17,17,0,0,0,13,5.84,18.34,18.34,0,0,0,8.38-2.1c2.75-1.4,3.95-2.09,3.61-2.09.55,0,1.17,1.77,1.85,5.33a41.78,41.78,0,0,1,.95,6.66q0,2-7.43,3.87a41.6,41.6,0,0,1-9.2,1.59,28.89,28.89,0,0,1-22.09-9.77,34.1,34.1,0,0,1-.19-45.58A28.87,28.87,0,0,1,265.62,140a30.49,30.49,0,0,1,16.25,4.51C282.72,145,283.14,145.42,283.14,145.8Z"/><path class="cls-2" d="M348.58,172.46a32.18,32.18,0,0,1-8.69,22.66,30,30,0,0,1-44.12.07,33.7,33.7,0,0,1,0-45.2,29.11,29.11,0,0,1,22.09-9.52,28.82,28.82,0,0,1,22,9.52A31.52,31.52,0,0,1,348.58,172.46Zm-13.39.13a19.41,19.41,0,0,0-4.76-13.2,15.84,15.84,0,0,0-12.57-5.78,16.07,16.07,0,0,0-12.63,5.71,20.68,20.68,0,0,0,.06,26.47,16.32,16.32,0,0,0,25.14,0A19.7,19.7,0,0,0,335.19,172.59Z"/><path class="cls-2" d="M454,201c0,1.65-.49,2.47-1.46,2.47-.64,0-1.6-.06-2.89-.19s-2.28-.19-2.95-.19-1.8,0-3.24.13-2.52.12-3.24.12c-.89,0-1.33-1-1.33-3s.07-4.86.22-8.73.22-6.78.22-8.72q0-16.06-.12-17.91c-.34-4.35-1.23-7.36-2.67-9-1.65-1.78-4.59-2.66-8.82-2.66q-4,0-9,3.8c-3.48,2.67-5.27,5.29-5.4,7.87q-.25,5-.25,18.1,0,3.1.25,9.33t.25,9.33q0,1.71-1.14,1.71c-.76,0-1.87-.06-3.33-.19s-2.57-.19-3.33-.19-1.68,0-3,.13-2.3.12-3,.12c-.85,0-1.27-.61-1.27-1.84,0-2,.06-5.08.19-9.17s.19-7.14.19-9.17v-15.3q0-7.17-1.71-10.22-2.41-4.32-9.21-4.31-4,0-9.52,3.36-6.09,3.67-6.09,7.43v18.53q0,3.18.06,9.46t.06,9.39c0,1.23-.48,1.84-1.46,1.84h-11.8c-.85,0-1.27-.57-1.27-1.71q0-5.15.06-15.46t.06-15.45a110.26,110.26,0,0,0-2.47-23.17,6,6,0,0,1-.19-1.33q0-.83.57-1c1.57-.16,3.85-.48,6.86-.95a59.89,59.89,0,0,1,6.28-1.39l.51-.07c.51,0,1,1.49,1.43,4.48s.83,4.47,1.17,4.47l3.17-2.79a37.84,37.84,0,0,1,7.49-5.14,23.36,23.36,0,0,1,10.8-2.8q14.59,0,18.59,11.94a32.4,32.4,0,0,1,9.78-8.38,24.69,24.69,0,0,1,12.31-3.56q11.75,0,16.25,6.86,3.24,5.08,3.24,16.06c0,1.4,0,3.55-.13,6.47s-.12,5.08-.12,6.48q0,4,.19,12T454,201Z"/><path class="cls-2" d="M525.37,145.8q0,4.63-.39,14t-.38,14.06q0,4.63.29,13.87t.29,13.87a1.6,1.6,0,0,1-1.21,1.65q-.51.12-12.89.12c-.5,0-.81-1.58-.92-4.76s-.35-4.76-.73-4.76a1.8,1.8,0,0,0-.95.57q-10.61,9.21-21,9.21-14,0-18.53-10.16-2.79-6.28-2.79-22.6a113.6,113.6,0,0,1,2.34-24.94c.39-1.65,1.08-2.48,2.1-2.48,1.23,0,3.07,0,5.52.07s4.3.06,5.52.06c.85,0,1.27.47,1.27,1.4a66.7,66.7,0,0,1-.82,8.25,85.52,85.52,0,0,0-.95,8.69c-.13,2.54-.19,5.34-.19,8.38q0,11.12,1.58,14.92,2.73,6.85,12.13,6.86,4,0,9.45-3.94c3.86-2.75,5.84-5.4,6-7.93q.31-4.77.32-33.52c0-2.07.87-3.11,2.6-3.11h10.47C524.75,143.58,525.37,144.32,525.37,145.8Z"/><path class="cls-2" d="M594.24,202.11c0,.93-.43,1.39-1.27,1.39q-2.1,0-6.25-.06c-2.78,0-4.86-.07-6.26-.07-.76,0-1.14-.61-1.14-1.84q0-3.1.19-9.45c.13-4.24.19-7.41.19-9.53q0-2.53-.06-7.58c0-3.36-.07-5.89-.07-7.59q0-7.23-2.09-10.22-2.54-3.56-9.39-3.55-3.18,0-8.83,3.55-6,3.75-6,6.67v38.08c0,1.06-.41,1.59-1.21,1.59q-2,0-6.09-.06c-2.71,0-4.74-.07-6.1-.07-.89,0-1.33-.48-1.33-1.46q0-5,.16-15t.16-15.11A102.87,102.87,0,0,0,536,146.82a2.91,2.91,0,0,1-.19-.83c0-.42.27-.72.82-.89l7.27-1.17q6.83-1.11,7.14-1.11c.26,0,.43.34.51,1a40.8,40.8,0,0,0,1.46,7.94c2.2-1.74,5.1-3.89,8.7-6.48a24.84,24.84,0,0,1,12.88-4.06q11.94,0,16.32,6.92,3.24,5.08,3.23,16.44,0,2-.09,6c-.06,2.71-.1,4.74-.1,6.09q0,4.26.13,12.7T594.24,202.11Z"/><path class="cls-2" d="M622.8,127.46q0,7.8-8.69,7.8t-8.83-7.8a7.21,7.21,0,0,1,2.73-5.78,9.62,9.62,0,0,1,12.22.06A7.24,7.24,0,0,1,622.8,127.46Zm-.44,17.2q0,4.89-.6,14.76t-.61,14.82q0,4.63.19,13.87t.19,13.8c0,.89-.38,1.34-1.14,1.34H608c-.89,0-1.33-.87-1.33-2.6q0-4.38.22-13.18t.22-13.23q0-5-.73-14.85t-.73-14.86c0-.72.45-1.08,1.34-1.08a30.1,30.1,0,0,1,3.52.32,20.24,20.24,0,0,0,7.17,0,30.13,30.13,0,0,1,3.59-.32C622,143.45,622.36,143.86,622.36,144.66Z"/><path class="cls-2" d="M679.23,145.8a28.93,28.93,0,0,1-1.46,6.22q-1.46,4.83-2,4.83L670,154.31a15.48,15.48,0,0,0-6.32-1.27,16.79,16.79,0,0,0-13,5.77,19.74,19.74,0,0,0-5.21,13.65,19.13,19.13,0,0,0,5.21,13.4,17,17,0,0,0,13,5.84,18.28,18.28,0,0,0,8.38-2.1c2.75-1.4,4-2.09,3.62-2.09.55,0,1.16,1.77,1.84,5.33a41.78,41.78,0,0,1,1,6.66c0,1.32-2.47,2.61-7.43,3.87a41.51,41.51,0,0,1-9.2,1.59,28.91,28.91,0,0,1-22.09-9.77,34.13,34.13,0,0,1-.19-45.58A28.88,28.88,0,0,1,661.71,140,30.47,30.47,0,0,1,678,144.47C678.81,145,679.23,145.42,679.23,145.8Z"/><path class="cls-2" d="M748.87,145.93a8.32,8.32,0,0,1-.19,1.14,152.58,152.58,0,0,0-2.48,25.07q0,.65,1.59,28.51l.06.88c0,1.23-.52,1.84-1.68,1.84a48.84,48.84,0,0,0-5.27.42,50.9,50.9,0,0,1-5.24.41q-1.2,0-1.84-4.44c-.42-3-.82-4.45-1.2-4.45s-1.4.83-3.43,2.48a37.43,37.43,0,0,1-7,4.63,22,22,0,0,1-10,2.54q-12.31,0-20.76-9.84a32.75,32.75,0,0,1-8-21.9q0-14.08,8.06-23.29,8.44-9.59,22.22-9.59a24.12,24.12,0,0,1,16.95,6.73c.72.85,1.84,2.07,3.36,3.68a.55.55,0,0,0,.38.19c.26,0,.62-1.33,1.08-4s1.06-4,1.78-4a38.74,38.74,0,0,1,6.41,1Q748.87,145,748.87,145.93Zm-16.19,26.53a20.29,20.29,0,0,0-4.63-13.39,15.4,15.4,0,0,0-12.51-6,16,16,0,0,0-12.69,6A20.05,20.05,0,0,0,698,172.46a19.7,19.7,0,0,0,4.89,13.33,16,16,0,0,0,12.69,5.91,15.53,15.53,0,0,0,12.44-6A20,20,0,0,0,732.68,172.46Z"/><path class="cls-2" d="M803.52,145.8a29.6,29.6,0,0,1-1.46,6.22q-1.45,4.83-2,4.83c-1.91-.85-3.82-1.7-5.75-2.54A15.43,15.43,0,0,0,788,153a16.77,16.77,0,0,0-13,5.77,19.69,19.69,0,0,0-5.21,13.65,19.09,19.09,0,0,0,5.21,13.4,17,17,0,0,0,13,5.84,18.31,18.31,0,0,0,8.38-2.1c2.75-1.4,3.95-2.09,3.62-2.09.55,0,1.16,1.77,1.84,5.33a41.78,41.78,0,0,1,1,6.66q0,2-7.43,3.87a41.6,41.6,0,0,1-9.2,1.59A28.91,28.91,0,0,1,764,195.19a34.1,34.1,0,0,1-.19-45.58A28.88,28.88,0,0,1,786,140a30.49,30.49,0,0,1,16.25,4.51C803.1,145,803.52,145.42,803.52,145.8Z"/><path class="cls-2" d="M828,127.46q0,7.8-8.7,7.8t-8.82-7.8a7.21,7.21,0,0,1,2.73-5.78,9.62,9.62,0,0,1,12.22.06A7.24,7.24,0,0,1,828,127.46Zm-.45,17.2q0,4.89-.6,14.76t-.6,14.82q0,4.63.19,13.87t.19,13.8c0,.89-.38,1.34-1.14,1.34H813.17c-.89,0-1.33-.87-1.33-2.6q0-4.38.22-13.18t.22-13.23q0-5-.73-14.85t-.73-14.86c0-.72.44-1.08,1.33-1.08a30.23,30.23,0,0,1,3.53.32,20.24,20.24,0,0,0,7.17,0,30.13,30.13,0,0,1,3.59-.32C827.15,143.45,827.51,143.86,827.51,144.66Z"/><path class="cls-2" d="M897.59,172.46a32.18,32.18,0,0,1-8.69,22.66,30,30,0,0,1-44.12.07,33.7,33.7,0,0,1,0-45.2,29.11,29.11,0,0,1,22.09-9.52,28.82,28.82,0,0,1,22,9.52A31.52,31.52,0,0,1,897.59,172.46Zm-13.39.13a19.41,19.41,0,0,0-4.76-13.2,15.84,15.84,0,0,0-12.57-5.78,16.07,16.07,0,0,0-12.63,5.71,20.68,20.68,0,0,0,.06,26.47,16.32,16.32,0,0,0,25.14,0A19.7,19.7,0,0,0,884.2,172.59Zm2-53.13q-1,2.6-14,9.65Q859.38,136,856.33,136c-.76,0-1.42-1.06-2-3.18a17.44,17.44,0,0,1-.63-4.19c0-.42.4-.82,1.21-1.2a135.46,135.46,0,0,0,21.7-13.78,3.4,3.4,0,0,1,1-.57,3.61,3.61,0,0,1,.82.57,59.56,59.56,0,0,0,7.05,4.95A2.59,2.59,0,0,1,886.17,119.46Z"/><path class="cls-2" d="M962.47,202.11c0,.93-.43,1.39-1.27,1.39q-2.1,0-6.26-.06c-2.77,0-4.85-.07-6.25-.07-.76,0-1.14-.61-1.14-1.84q0-3.1.19-9.45c.13-4.24.19-7.41.19-9.53q0-2.53-.06-7.58t-.07-7.59q0-7.23-2.09-10.22-2.55-3.56-9.4-3.55-3.16,0-8.82,3.55-6,3.75-6,6.67v38.08q0,1.59-1.2,1.59-2,0-6.1-.06c-2.71,0-4.74-.07-6.09-.07-.89,0-1.33-.48-1.33-1.46q0-5,.15-15t.16-15.11a102.88,102.88,0,0,0-2.85-24.94,2.91,2.91,0,0,1-.19-.83c0-.42.27-.72.82-.89l7.27-1.17q6.83-1.11,7.14-1.11c.26,0,.42.34.51,1a40.8,40.8,0,0,0,1.46,7.94c2.2-1.74,5.1-3.89,8.7-6.48a24.82,24.82,0,0,1,12.88-4.06q11.94,0,16.31,6.92,3.24,5.08,3.24,16.44,0,2-.09,6t-.1,6.09q0,4.26.13,12.7T962.47,202.11Z"/></g></g></svg>