<svg xmlns="http://www.w3.org/2000/svg" viewBox="0 0 159.76 127.83"><defs><style>.cls-1{fill:#fff;}</style></defs><title>Camara</title><g id="Layer_2" data-name="Layer 2"><g id="Cuadritos"><path class="cls-1" d="M79.93,127.74c-22.08,0-44.17-.13-66.25.09A13.62,13.62,0,0,1,0,114.1C.07,99.57,0,85,0,70.51Q0,52.78,0,35.05a13.29,13.29,0,0,1,11.3-13.57,11.51,11.51,0,0,1,2.12-.13c14.44,0,28.89,0,43.33,0a3.44,3.44,0,0,0,3-1.45c4.3-5.26,8.62-10.49,13.05-15.64A11.93,11.93,0,0,1,82.09.05Q99.82,0,117.55.05a12.06,12.06,0,0,1,9.28,4.28c4.36,5,8.61,10.16,12.82,15.32a4,4,0,0,0,3.66,1.74c2.83-.15,5.7-.26,8.37,1,5.18,2.46,8,6.57,8,12.3q.09,39.86,0,79.71a13.13,13.13,0,0,1-10.62,13.16,10,10,0,0,1-2.12.17Q113.46,127.76,79.93,127.74ZM78.3,117.12A39.88,39.88,0,1,0,38.41,77.23,39.83,39.83,0,0,0,78.3,117.12Zm22.11-95.2a56.77,56.77,0,0,0,6.26-.06,8.38,8.38,0,0,0,3.89-1.4c3.12-2.29,4.29-7.2,3-11.39-1.19-3.77-3.71-5.94-7.09-6-4,0-8.08,0-12.13,0a6.5,6.5,0,0,0-5.17,2.58,11.36,11.36,0,0,0-.5,13.08,6.65,6.65,0,0,0,6,3.19C96.59,21.85,98.5,21.92,100.41,21.92Z"/><path class="cls-1" d="M78.17,103.25a25.62,25.62,0,1,1,25.71-25.5A25.44,25.44,0,0,1,78.17,103.25Z"/></g></g></svg>