<svg xmlns="http://www.w3.org/2000/svg" viewBox="0 0 200.04 130.91"><defs><style>.cls-1{fill:#fff;}</style></defs><title>Co2</title><g id="Layer_2" data-name="Layer 2"><g id="Cuadritos"><path class="cls-1" d="M0,91.17a75.49,75.49,0,0,1,2.42-8.76C7,71.14,15.17,63.82,27,60.67a12.93,12.93,0,0,0,1.23-.46C22.05,25.41,60.91.35,89.63,20.63a46.77,46.77,0,0,1,83.64,39.45c3.91,2,8.08,3.54,11.54,6,12.15,8.77,17.26,20.94,14.51,35.6s-12,24.15-26.58,28a38,38,0,0,1-9.64,1.11q-63.07.1-126.16,0c-16.6,0-29.78-9.18-35.09-24.43C1,104.17.61,101.74,0,99.37ZM81.69,79.53l.34,0c0,1.69-.06,3.38,0,5.07.45,11.56,8.38,19.35,19.79,19.48,10,.12,17.53-5.22,19.56-14.93,1.06-5,.7-10.45.63-15.69a17.64,17.64,0,0,0-1.54-6.77c-3.46-7.69-9.6-11.39-18-11.67-9.49-.31-17.38,5.26-19.6,14.46C82.08,72.76,82.06,76.19,81.69,79.53ZM65,73.54c3.19,0,6.24,0,9.29,0,1.1,0,1.52-.44,1.52-1.5,0-5.35-1.72-9.94-6.12-13.28-3.63-2.75-7.84-3.51-12.27-3.7a18.45,18.45,0,0,0-19.52,18c-.13,4.42-.2,8.85,0,13.26a17.86,17.86,0,0,0,7,13.8c6.16,4.76,13.13,5,20.18,2.78a15.19,15.19,0,0,0,10.6-15.38c0-.56-.6-1.55-.95-1.56-3.28-.12-6.57-.08-9.83-.08-.2,1.55-.28,2.86-.56,4.12A5.73,5.73,0,0,1,60,94.71c-5.41,1.4-10.15-1.58-10.69-7.46a102.18,102.18,0,0,1,0-15.55,10.7,10.7,0,0,1,2.41-5.19c2-2.67,5-2.67,8-2,2.82.66,4.24,2.58,4.7,5.33C64.67,71,64.8,72.16,65,73.54Zm97.5,20.75H144.66c1.1-1.22,1.94-2.11,2.73-3,3.71-4.35,7.64-8.54,11.07-13.09A14.31,14.31,0,0,0,155,57.59c-3.64-2.38-7.75-2.64-12-2.41-8,.42-14.62,7.31-14.38,15.25,0,.55.72,1.52,1.14,1.54,3.23.13,6.46.07,9.75.07.14-1.25.2-2.29.37-3.31a5,5,0,0,1,4.41-4.5c4.14-.37,6.78,2.93,5.4,7.17a17.16,17.16,0,0,1-3.28,5.89c-5.21,6-10.65,11.76-16,17.63-.45.5-1.05,1.13-1.08,1.72-.13,2.25,0,4.51,0,6.82h33.2Z"/><path class="cls-1" d="M93,79.61a76.32,76.32,0,0,1,.78-8.32c.91-4.48,4-7,8.11-7s8,2.51,8.42,6.9a80.31,80.31,0,0,1,0,17c-.54,4.73-4.67,7.24-9.22,6.81-4.18-.39-7.37-4-7.7-9-.14-2.14,0-4.29,0-6.44Z"/></g></g></svg>