<svg xmlns="http://www.w3.org/2000/svg" viewBox="0 0 111.14 160.15"><defs><style>.cls-1{fill:#fff;}</style></defs><title>Humedad</title><g id="Layer_2" data-name="Layer 2"><g id="Cuadritos"><path class="cls-1" d="M55.89,0c.65.92,1.27,1.86,2,2.74C71.56,20,84.41,37.83,95.4,57a172.74,172.74,0,0,1,12.34,26c5.37,14.51,4.13,28.75-1.95,42.63C99.26,140.51,88.58,151.49,73,156.91c-18.56,6.47-35.73,3.16-51-9.11-12.3-9.9-19-23.14-21.47-38.62-1.74-10.74.47-20.85,4.51-30.73,5.3-13,12.32-25,19.89-36.67A477.81,477.81,0,0,1,54.57,1.16,9.59,9.59,0,0,0,55.26,0ZM94.77,97.19c-.56-4.32-.83-8.7-1.74-13A55,55,0,0,0,76.66,54.89a3.4,3.4,0,0,0-1.27-.84,2.06,2.06,0,0,0-2.57.92,2.47,2.47,0,0,0,.51,3.13c1.53,1.63,3.19,3.16,4.57,4.91C89.25,77.4,92,93.65,88.21,111.29a87.93,87.93,0,0,1-6.47,18.48c-.73,1.56-.36,3,.78,3.56s2.59,0,3.37-1.59C91.07,120.82,94.42,109.44,94.77,97.19Z"/></g></g></svg>