<svg xmlns="http://www.w3.org/2000/svg" viewBox="0 0 180.01 180.01"><defs><style>.cls-1{fill:#fff;}</style></defs><title>Presion</title><g id="Layer_2" data-name="Layer 2"><g id="Cuadritos"><path class="cls-1" d="M0,94.05V85.79a8.62,8.62,0,0,0,.15-1A79.34,79.34,0,0,1,2.08,70.65,90.93,90.93,0,0,1,34.23,19.46,88.13,88.13,0,0,1,60.64,5,87.73,87.73,0,0,1,80.86.42,85.33,85.33,0,0,1,97.08.35a85.58,85.58,0,0,1,18.18,3.3c20.34,6.3,36.85,18,49,35.57a89.46,89.46,0,0,1,11.24,78.87,90.12,90.12,0,0,1-78.24,61.57l-3.73.35H86c-.36,0-.72-.14-1.08-.16a82.65,82.65,0,0,1-20.7-3.64c-17.77-5.57-32.76-15.36-44.35-30A89.33,89.33,0,0,1,.33,97.41C.24,96.29.11,95.17,0,94.05Zm163.28-4a73.25,73.25,0,1,0-73.76,73.25C130.28,163.62,163.29,130.23,163.28,90Z"/><path class="cls-1" d="M117.5,105.48h32.85c-5.56,23.85-29.84,47.57-60.37,46.59-29.94.73-53.91-21.46-60.39-46.49h33c-.27,9.88,4.32,17.32,12.16,23,4.89,3.58,10.44,4.87,16.42,4.71,7.52-.19,13.61-3.39,18.78-8.7A25.8,25.8,0,0,0,117.5,105.48Z"/><path class="cls-1" d="M66.28,58.61c1.47,1.75,3,3.49,4.41,5.26q9.77,12,19.5,24a2.33,2.33,0,0,0,1.58.91c7.61,1.26,13.65,6.33,15.07,14.33,1.57,8.79-5,18-13.86,19.42A17.06,17.06,0,0,1,73.2,108.4a14.68,14.68,0,0,1,.89-8.56,7.82,7.82,0,0,0,.41-5.31C71.69,83,69,71.38,66.23,59.8c-.09-.36-.14-.71-.2-1.07Z"/><path class="cls-1" d="M63,49.37c-2.12-3.77-4.19-7.44-6.26-11.1-.29-.51-.06-.82.33-1.06,1.36-.87,2.73-1.72,4.14-2.61a8.24,8.24,0,0,1,.59.73c1.89,3.24,3.77,6.49,5.69,9.71a1,1,0,0,1-.32,1.55Z"/><path class="cls-1" d="M49.31,63.08c-.94,1.43-1.83,2.78-2.74,4.11-.3.45-.67.79-1.3.42-3.39-2-6.79-4-10.19-6a4,4,0,0,1-.47-.42l2.54-4.09a.84.84,0,0,1,1.3-.3c2.1,1.19,4.21,2.35,6.3,3.55C46.23,61.23,47.69,62.12,49.31,63.08Z"/><path class="cls-1" d="M116.66,49.08c-.92-.55-1.73-1-2.48-1.49-2.21-1.47-2.23-1.5-.92-3.8,1.59-2.79,3.25-5.52,4.84-8.31.44-.78.9-.84,1.59-.38,1.09.73,2.19,1.44,3.3,2.14a.7.7,0,0,1,.25,1.08c-1.9,3.3-3.78,6.62-5.69,9.92A4.83,4.83,0,0,1,116.66,49.08Z"/><path class="cls-1" d="M142.17,56.59a1.78,1.78,0,0,1,.45.34q1.29,1.93,2.54,3.9c.4.61-.18.81-.54,1q-4.35,2.61-8.74,5.17c-1.94,1.13-2,1.1-3.22-.8-.43-.66-.79-1.38-1.24-2s-.27-1.11.35-1.5c2.31-1.42,4.61-2.86,6.94-4.27.91-.55,1.87-1,2.81-1.53Z"/><path class="cls-1" d="M138.93,92.87V87.11h13.29c0,1.82,0,3.62,0,5.42a.69.69,0,0,1-.48.47q-6.33,0-12.65,0S139,92.92,138.93,92.87Z"/><path class="cls-1" d="M93,41.11H87.08V27.93H93Z"/><path class="cls-1" d="M27.91,93V87.11H41.1V93Z"/></g></g></svg>