<svg xmlns="http://www.w3.org/2000/svg" viewBox="0 0 101.74 201.49"><defs><style>.cls-1{fill:#fff;}</style></defs><title>Temperatura</title><g id="Layer_2" data-name="Layer 2"><g id="Cuadritos"><path class="cls-1" d="M84.09,73.1q0,25.28,0,50.53a3.61,3.61,0,0,0,1.49,3.18c13.58,11.15,18.93,25.57,14.85,42.56-4.14,17.19-15.67,27.74-33,31.32C45.28,205.27,22.66,189.54,19,167.22c-2.72-16.39,2.55-29.88,15.37-40.39a3.67,3.67,0,0,0,1.37-3.26q0-49.29,0-98.58c0-11.33,6.06-20.36,16.16-23.64,14.88-4.83,29.56,3.74,32.08,19a27.81,27.81,0,0,1,.16,4.48Q84.1,49,84.09,73.1Zm-6.92,2.52c0-17,0-34,0-51,0-12.3-10.48-20.18-22.27-16.92A16.67,16.67,0,0,0,42.75,24.14q0,51.54,0,103.09a3.65,3.65,0,0,1-1.8,3.44C29.29,138.83,23.92,150,25.62,164.25c2.26,18.87,20,32.4,38.9,29.87a34.92,34.92,0,0,0,29.23-26.49,34.3,34.3,0,0,0-14-36.4,5.27,5.27,0,0,1-2.6-5.08C77.22,109.31,77.17,92.46,77.17,75.62Z"/><path class="cls-1" d="M12.12,85.92c3,0,6,0,9,0,1.65,0,2.88.54,2.91,2.33s-1.23,2.45-2.83,2.46q-9.18,0-18.37,0C1.2,90.69,0,90,0,88.21s1.32-2.31,2.94-2.3C6,85.94,9.06,85.92,12.12,85.92Z"/><path class="cls-1" d="M11.83,28.4c-3.05,0-6.11,0-9.17,0C1.06,28.42,0,27.78,0,26.1s1.11-2.36,2.64-2.36q9.39,0,18.8,0c1.55,0,2.63.76,2.55,2.44s-1.18,2.25-2.76,2.23C18.1,28.37,15,28.4,11.83,28.4Z"/><path class="cls-1" d="M11.74,59.49c-3,0-6,0-8.95,0C1.14,59.5,0,58.93,0,57.09s1.17-2.23,2.73-2.23q9.29,0,18.57,0c1.59,0,2.67.6,2.69,2.28s-1,2.35-2.62,2.35C18.16,59.48,15,59.49,11.74,59.49Z"/><path class="cls-1" d="M15.17,44.05c-2,0-4.05,0-6.07,0-1.62,0-2.81-.7-2.75-2.52s1.22-2.29,2.75-2.29c4,0,8.08,0,12.12,0,1.54,0,2.71.61,2.77,2.27S22.88,44,21.23,44.05C19.21,44.08,17.19,44.05,15.17,44.05Z"/><path class="cls-1" d="M15.09,75.1H9c-1.56,0-2.64-.65-2.68-2.33s1.1-2.41,2.6-2.43c4.12-.06,8.23,0,12.35,0,1.53,0,2.7.7,2.7,2.36s-1.18,2.43-2.85,2.42C19.13,75.08,17.11,75.1,15.09,75.1Z"/><path class="cls-1" d="M67.45,101.88c0,12.72,0,25.44,0,38.16a2.76,2.76,0,0,0,1.75,2.9,20.13,20.13,0,0,1,10.31,23.3,20.25,20.25,0,0,1-39.27-.82,20.06,20.06,0,0,1,10.07-22.23,3.46,3.46,0,0,0,2.14-3.61q-.09-37.38,0-74.75c0-4.66,2-7.68,5.68-8.56a7.46,7.46,0,0,1,9.38,7.45C67.47,76.44,67.45,89.16,67.45,101.88Z"/></g></g></svg>